<svg fill="none" height="664" viewBox="0 0 770 664" width="770" xmlns="http://www.w3.org/2000/svg" xmlns:xlink="http://www.w3.org/1999/xlink"><filter id="a" color-interpolation-filters="sRGB" filterUnits="userSpaceOnUse" height="463.847" width="384.971" x="185.176" y="123.091"><feFlood flood-opacity="0" result="BackgroundImageFix"/><feColorMatrix in="SourceAlpha" type="matrix" values="0 0 0 0 0 0 0 0 0 0 0 0 0 0 0 0 0 0 127 0"/><feOffset dy="1.35153"/><feGaussianBlur stdDeviation="1.35153"/><feColorMatrix type="matrix" values="0 0 0 0 0 0 0 0 0 0 0 0 0 0 0 0 0 0 0.0796547 0"/><feBlend in2="BackgroundImageFix" mode="normal" result="effect1_dropShadow"/><feBlend in="SourceGraphic" in2="effect1_dropShadow" mode="normal" result="shape"/></filter><filter id="b" color-interpolation-filters="sRGB" filterUnits="userSpaceOnUse" height="227.058" width="213.542" x="483.865" y="96.0601"><feFlood flood-opacity="0" result="BackgroundImageFix"/><feColorMatrix in="SourceAlpha" type="matrix" values="0 0 0 0 0 0 0 0 0 0 0 0 0 0 0 0 0 0 127 0"/><feOffset dy="1.35153"/><feGaussianBlur stdDeviation="1.35153"/><feColorMatrix type="matrix" values="0 0 0 0 0 0 0 0 0 0 0 0 0 0 0 0 0 0 0.0796547 0"/><feBlend in2="BackgroundImageFix" mode="normal" result="effect1_dropShadow"/><feBlend in="SourceGraphic" in2="effect1_dropShadow" mode="normal" result="shape"/></filter><mask id="c" height="641" maskUnits="userSpaceOnUse" width="654" x="116" y="0"><path d="m236.467 504.685c-174.851-197.327-108.22-463.3108 148.438-471.8511 256.657-8.5403 41.55 198.1311 246.551 242.0191s89.507 199.643 43.887 250.043c-45.621 50.401-264.025 177.115-438.876-20.211z" fill="#c4c4c4"/></mask><mask id="d" height="459" maskUnits="userSpaceOnUse" width="381" x="187" y="124"><rect fill="#fff" height="457.738" rx="11.8124" stroke="#fff" stroke-width=".702798" width="378.862" x="188.23" y="124.794"/></mask><mask id="e" height="223" maskUnits="userSpaceOnUse" width="209" x="486" y="97"><rect fill="#fff" height="220.949" rx="11.8124" stroke="#fff" stroke-width=".702798" width="207.433" x="486.92" y="97.763"/></mask><g clip-rule="evenodd" fill-rule="evenodd" mask="url(#c)"><path d="m748.904 522.881c27.388-138.984 54.055-478.0322-24.657-489.3275-78.711-11.2953-529.532 424.8575-475.586 525.9195s467.182 131.181 500.243-36.592z" fill="#f4ce45"/><path d="m132.136 97.9898c9.464 126.7632 534.499 202.0842 592.887 301.3802 58.389 99.296 89.377-360.9897.001-433.3406-89.375-72.3504-604.313-21.0618-592.888 131.9604z" fill="#f64942"/><path d="m152.359 125.933c92.473 146.723 211.045 111.77 311.849 308.382 136.181 239.901-391.0975 309.12-390.1577 74.64.9398-234.479-33.3189-560.1386 78.3087-383.022z" fill="#ef90a4"/><path d="m66.1508 94.2125c7.9615 163.3855 155.4352 253.5605 242.7112 246.1175 274.978-23.451 286.359-328.768 243.407-375.648s-495.7288-67.7-486.1182 129.5305z" fill="#5b95bf"/></g><rect fill="#575fcf" height="458.44" opacity=".1" rx="12.1638" width="379.565" x="202.745" y="142.012"/><g filter="url(#a)"><rect fill="#fff" height="458.44" rx="12.1638" width="379.565" x="187.879" y="124.443"/><rect height="457.738" rx="11.8124" stroke="#f8f8f8" stroke-width=".702798" width="378.862" x="188.23" y="124.794"/></g><g fill="#e8e8e8" mask="url(#d)"><rect height="24.3276" rx="12.1638" width="147.317" x="244.644" y="166.34"/><rect height="13.5153" rx="6.75767" width="66.2252" x="244.644" y="244.729"/><rect height="13.5153" rx="6.75767" width="93.2559" x="244.644" y="339.336"/><rect height="10.8123" rx="5.40614" width="93.2559" x="266.269" y="271.76"/><rect height="10.8123" rx="5.40614" width="66.2252" x="266.269" y="366.367"/><rect height="10.8123" rx="5.40614" width="120.287" x="266.269" y="392.046"/><rect height="10.8123" rx="5.40614" width="120.287" x="266.269" y="419.077"/><rect height="10.8123" rx="5.40614" width="120.287" x="266.269" y="446.107"/><rect height="10.8123" rx="5.40614" width="93.2559" x="266.269" y="297.439"/></g><rect fill="#575fcf" height="29.2826" rx="14.6413" width="29.5175" x="242.156" y="499.113"/><path d="m257.672 513.988.02 4.782c.001.413-.333.747-.746.745-.414-.002-.75-.338-.752-.751l-.018-4.782-4.782-.019c-.414-.002-.75-.338-.752-.751-.001-.414.332-.748.746-.746l4.782.02-.02-4.782c-.001-.414.332-.748.746-.746.413.002.75.338.751.752l.019 4.782 4.782.018c.413.002.75.338.751.752.002.413-.332.747-.745.745z" fill="#fff"/><path clip-rule="evenodd" d="m228.166 247.806c0-.582.467-1.054 1.044-1.054.576 0 1.043.472 1.043 1.054s-.467 1.054-1.043 1.054c-.577 0-1.044-.472-1.044-1.054zm0 5.622c0-.582.467-1.054 1.044-1.054.576 0 1.043.472 1.043 1.054 0 .583-.467 1.055-1.043 1.055-.577 0-1.044-.472-1.044-1.055zm1.044-3.865c-.577 0-1.044.472-1.044 1.054s.467 1.054 1.044 1.054c.576 0 1.043-.472 1.043-1.054s-.467-1.054-1.043-1.054z" fill="#ccc" fill-rule="evenodd"/><path clip-rule="evenodd" d="m230.977 247.806c0-.582.467-1.054 1.043-1.054s1.043.472 1.043 1.054-.467 1.054-1.043 1.054-1.043-.472-1.043-1.054zm0 5.622c0-.582.467-1.054 1.043-1.054s1.043.472 1.043 1.054c0 .583-.467 1.055-1.043 1.055s-1.043-.472-1.043-1.055zm1.043-3.865c-.576 0-1.043.472-1.043 1.054s.467 1.054 1.043 1.054 1.043-.472 1.043-1.054-.467-1.054-1.043-1.054z" fill="#ccc" fill-rule="evenodd"/><rect fill="#fff" fill-opacity=".060688" height="14.5996" rx="5.27098" stroke="#ccc" stroke-width=".702798" width="14.7588" x="243.264" y="268.01"/><path d="m253.103 273.223-2.877 3.975c-.121.127-.285.198-.457.198-.171 0-.336-.071-.457-.198l-1.48-1.555" stroke="#ccc" stroke-linecap="round" stroke-linejoin="round" stroke-width="1.4056"/><rect fill="#fff" fill-opacity=".060688" height="14.5996" rx="5.27098" stroke="#ccc" stroke-width=".702798" width="14.7588" x="243.264" y="362.617"/><path d="m253.103 367.83-2.877 3.975c-.121.127-.285.198-.457.198-.171 0-.336-.071-.457-.198l-1.48-1.555" stroke="#ccc" stroke-linecap="round" stroke-linejoin="round" stroke-width="1.4056"/><rect fill="#fff" fill-opacity=".060688" height="14.5996" rx="5.27098" stroke="#ccc" stroke-width=".702798" width="14.7588" x="243.264" y="388.296"/><rect fill="#fff" fill-opacity=".060688" height="14.5996" rx="5.27098" stroke="#ccc" stroke-width=".702798" width="14.7588" x="243.264" y="415.327"/><rect fill="#fff" fill-opacity=".060688" height="14.5996" rx="5.27098" stroke="#ccc" stroke-width=".702798" width="14.7588" x="243.264" y="442.358"/><rect fill="#fff" fill-opacity=".060688" height="14.5996" rx="5.27098" stroke="#ccc" stroke-width=".702798" width="14.7588" x="243.264" y="293.746"/><path clip-rule="evenodd" d="m247.021 209.508c0-3.392 2.75-6.141 6.142-6.141h69.404c3.392 0 6.141 2.749 6.141 6.141 0 3.392-2.749 6.141-6.141 6.141h-69.404c-3.392 0-6.142-2.749-6.142-6.141z" fill="#575fcf" fill-rule="evenodd" opacity=".133315"/><rect fill="#575fcf" height="12.2826" rx="6.14129" width="31.9503" x="247.021" y="203.367"/><g clip-rule="evenodd" fill-rule="evenodd"><path d="m239.366 298.971-11.248 7.965c-5.182-4.113-10.365-8.226-15.547-12.339l5.227-11.802c.125-.262.284-.492.475-.69.702-.727 1.767-.974 2.746-.539 1.239.559 1.78 1.975 1.249 3.249l-2.849 6.44c1.343-1.193 2.718-2.354 4.06-3.547l8.194-10.595c.826-1.053 2.377-1.278 3.427-.455 1.049.822 1.268 2.373.442 3.427l-8.289 10.759 6.88-5.481c1.057-.831 2.614-.667 3.441.387.826 1.053.656 2.612-.401 3.443l-.864.697c1-.311 2.139.024 2.768.887.794 1.086.527 2.615-.595 3.382l-.481.366c.778-.015 1.561.358 2.057 1.029.698 1.121.43 2.65-.692 3.417z" fill="#ff6876"/><path d="m229.48 288.637-.045-.008c-.127-.07-.156-.169-.132-.306l1.709-3.652c.069-.129.167-.158.302-.135.127.07.156.169.131.306l-1.709 3.652c-.069.129-.166.159-.256.143z" fill="#000"/><path d="m233.688 290.871s-.045-.008-.09-.016c-.127-.07-.148-.215-.087-.298l1.485-2.897c.069-.13.212-.152.294-.09.127.069.148.215.086.298l-1.484 2.897c-.008.046-.115.121-.204.106z" fill="#000"/><path d="m140.302 587.113c-.236 1.079-.465 2.113-.747 3.184-6.027 1.366-12.062 2.777-18.089 4.142-.058-.197-1.49-3.625-5.216-4.282-3.682-.649-6.192 2.037-6.322 2.248.016-.091.077-.173.101-.309.016-.091.077-.173.146-.301.076-.174.161-.392.246-.611.069-.128.085-.218.154-.346 0 0 0 0 .008-.046.069-.128.085-.218.153-.346.093-.264.231-.52.324-.784.077-.173.153-.346.222-.474.077-.173.154-.347.231-.52.093-.264.23-.52.315-.738.077-.174.146-.302.178-.483.093-.264.177-.482.307-.693.069-.128.146-.301.17-.437.016-.09.077-.173.093-.264.069-.128.084-.218.145-.301.008-.045.069-.128.077-.173.008-.046.016-.091.069-.128.016-.091.077-.173.093-.264.008-.045.016-.091.069-.128.339-.874.715-1.695 1.099-2.562z" fill="#ff6876"/><path d="m77.4744 576.272c-.2203.987-.4328 1.929-.6002 2.879-5.775 1.733-11.505 3.474-17.2879 5.252-.182-.545-1.0869-3.036-3.7305-4.342-3.6666-1.812-7.2468.354-7.4585.504.008-.046.016-.091.0689-.128.008-.045.0689-.128.0848-.218.4611-1.038 1.3674-3.023 2.1199-4.663.0928-.263.2306-.519.3683-.774.2306-.519.4452-.947.5989-1.293.0689-.128.0848-.219.1457-.301.2306-.519.4532-.993.6837-1.512 7.3114 1.383 17.3729 3.204 25.0069 4.596z" fill="#ff6876"/><path d="m76.8138 579.158c-3.2829 1.012-6.5659 2.024-9.8408 2.991-.783.236-1.5661.473-2.3042.717-1.7168.539-3.3808 1.041-5.0896 1.535-.1527-.448-.8373-2.346-2.6835-3.701-.3275-.245-.655-.49-1.0884-.66-.3804-.208-.8138-.378-1.1733-.441-3.2245-.896-6.0802.846-6.2839.951.3767-.823 1.284-2.815 2.0615-4.597.1619-.392.3687-.777.5306-1.169.4943.087 1.0785.19 1.7157.255 4.375.678 11.2586 1.845 16.5164 2.772.8538.151 1.6177.286 2.3817.42 3.1457.555 5.2578.927 5.2578.927z" fill="#1f0d60"/><path d="m52.5818 575.323c-.1203.682-.753 1.18-1.4575 1.056-.3082-.054-.5563-.192-.7444-.413.1603-.394.3645-.78.5248-1.174.4843.086 1.0567.187 1.6812.25.0279.099.0119.19-.0041.281z" fill="#fff"/><path d="m57.0766 580.167c-.0315.178-.1081.349-.2296.512-.3283-.242-.6567-.484-1.0908-.653-.3813-.206-.8154-.374-1.1753-.438.2003-.61.819-.962 1.4488-.851.7278.083 1.173.714 1.0469 1.43z" fill="#fff"/><path d="m61.8638 579.455c.6957.122 1.3582-.337 1.4796-1.025.1215-.689-.344-1.347-1.0398-1.47-.6957-.123-1.3581.336-1.4796 1.025-.1214.689.3441 1.347 1.0398 1.47z" fill="#fff"/><path d="m66.9205 582.121c-.7816.231-1.5632.462-2.2998.7-.1852-.263-.2648-.599-.2017-.957.1182-.67.7596-1.156 1.4781-1.029.5759.147 1.036.689 1.0234 1.286z" fill="#fff"/><path d="m71.5474 578.695c-.1177.667-.7595 1.15-1.4794 1.023-.6748-.119-1.1655-.756-1.04-1.468.0236-.133.0471-.267.1156-.392.8548.151 1.6196.285 2.3844.42.0743.105.0508.239.0194.417z" fill="#fff"/><path d="m139.577 590.375c-6.035 1.374-12.078 2.793-18.113 4.167-.058-.198-1.491-3.639-5.221-4.296-2.247-.397-4.021.463-5.125 1.206-.733.48-1.144.97-1.197 1.007.154-.347.393-.915.648-1.573.709-1.657 1.682-4.017 2.229-5.28l26.787 4.723z" fill="#1f0d60"/><path d="m124.052 592.477c.723.128 1.413-.361 1.542-1.091s-.353-1.425-1.076-1.553c-.723-.127-1.413.361-1.542 1.091-.129.731.353 1.426 1.076 1.553z" fill="#fff"/><path d="m133.673 589.762c-.13.737-.821 1.232-1.542 1.105s-1.157-.821-1.027-1.558c.033-.184.102-.315.172-.445l2.388.421c.021.147.042.293.009.477z" fill="#fff"/><path d="m118.606 587.105c-.13.737-.822 1.232-1.544 1.105-.723-.128-1.204-.83-1.074-1.567.033-.184.102-.314.172-.444l2.392.422c.066.154.087.3.054.484z" fill="#fff"/><path d="m111.118 591.44c-.733.484-1.144.977-1.197 1.015.154-.35.394-.921.649-1.583.254.139.454.316.548.568z" fill="#fff"/><path d="m102.081 619.123c-16.8884-5.212-33.7772-10.424-50.666-15.636l.0798-4.469-4.1747 3.217c-3.5419-1.035-7.114-2.128-10.6559-3.163 2.1644-3.496 4.3857-7.023 6.5768-10.607 2.1777-3.54 4.2985-7.05 6.4629-10.547.2277-.121 4.0352-1.825 7.4475.414 2.4604 1.612 3.0556 4.184 3.17 4.745 5.9287-1.007 11.8138-2.028 17.7558-3.078-1.5237 4.361-3.0475 8.723-4.5712 13.084 6.7137 4.06 12.1938 7.17 15.9778 9.283 7.2464 4.032 11.6502 6.144 12.8702 10.723.575 2.326.182 4.548-.273 6.034z" fill="#ffb800"/><path d="m172.456 617.648c-18.139-.362-36.232-.723-54.371-1.085l-1.198-4.515-3.269 4.438c-3.19-.056-6.381-.111-9.57-.213 1.914-7.75 3.783-15.548 5.696-23.298.095-.184 2.155-3.252 5.893-3.233 3.783.066 5.687 3.249 5.821 3.437 5.739-2.31 11.479-4.665 17.219-6.975-.31 4.674-.666 9.348-.976 14.022 7.578 2.077 13.706 3.574 17.929 4.574 8.082 1.855 12.9 2.726 15.335 6.845 1.329 2.201 1.518 4.428 1.491 6.003z" fill="#ffb800"/><path d="m75.3241 587.435-8.4921-1.497c-.1348-.024-.2088-.13-.1851-.264.0238-.135.1295-.209.2643-.185l8.492 1.497c.1348.024.2089.13.1851.264-.0237.135-.1294.209-.2642.185z" fill="#1f0d60"/><path d="m74.8934 589.88-8.4921-1.498c-.1347-.024-.2088-.129-.185-.264.0237-.135.1294-.209.2642-.185l8.4921 1.498c.1348.023.2088.129.185.264-.0237.134-.1294.208-.2642.185z" fill="#1f0d60"/><path d="m138.121 598.456-8.484-1.542c-.135-.024-.209-.131-.185-.267s.13-.211.265-.187l8.484 1.543c.135.024.209.13.185.266s-.13.211-.265.187z" fill="#1f0d60"/><path d="m137.69 600.901-8.484-1.543c-.135-.024-.208-.13-.184-.266s.174-.203.264-.187l8.484 1.542c.135.024.209.131.185.267s-.13.211-.265.187z" fill="#1f0d60"/><path d="m165.706 429.863c-26.091 2.979-52.19 6.004-78.2813 8.983-15.1085 43.659-30.172 87.325-45.2355 130.991.4043.071 4.4918.792 10.1435 1.835 7.4035 1.352 17.4571 3.172 25.0852 4.563 5.517 1.02 9.7842 1.772 10.9071 1.97 10.9842-36.29 22.005-72.527 32.989-108.818-4.859 37.277-9.673 74.562-14.525 111.793l7.277 1.284 26.188 4.617 11.364 2.004c4.726-53.069 9.407-106.146 14.088-159.222z" fill="#d4dfeb"/><path d="m146.066 588.283c-.09-.016-.209-.13-.193-.221 2.69-52.287 5.433-104.611 8.123-156.898.024-.136.13-.211.228-.24.134.024.208.13.237.229-2.69 52.286-5.433 104.611-8.122 156.897.013.19-.093.265-.273.233.045.008 0 0 0 0z" fill="#1f0d60"/><path d="m63.4672 573.925c-.045-.008-.045-.008-.0899-.016-.1268-.069-.1477-.213-.0868-.296l57.7025-104.203c.069-.128.212-.15.294-.088.127.069.148.213.087.295l-57.6582 104.211c-.0609.083-.1588.112-.2486.097z" fill="#1f0d60"/><path d="m56.4149 375.44-7.4423-20.527c-.1156-.395-.2312-.789-.3388-1.229-.7513-2.563-1.5285-5.505-2.3026-8.728-.0369-.053-.0209-.143-.0578-.197l13.2908 36.706c-.8534-1.459-1.8962-3.42-3.1493-6.025z" fill="#ff6876"/><path d="m140.821 432.807c-.331.035-.617.078-.947.113l-34.265-94.491c.265-.187.493-.428.757-.615z" fill="#ff6876"/><path d="m150.789 431.735c-.33.035-.616.079-.946.114l-35.725-98.635c.106-.075.249-.097.399-.164.151-.067.302-.134.497-.193z" fill="#ff6876"/><path d="m160.785 430.514c-.331.035-.616.078-.947.114l-36.128-99.811c.33-.035.661-.07.938-.068z" fill="#ff6876"/><path d="m170.762 429.393c-.331.035-.616.078-.947.113l-35.73-98.603c.278.002.645.02.975-.015z" fill="#ff6876"/><path d="m173.527 410.819-28.967-79.813c.323.01.645.02.968.03l28.209 77.809c-.023.651-.135 1.286-.21 1.974z" fill="#ff6876"/><path d="m176.187 389.375-20.906-57.648c.352.109.703.218 1.062.281l20.062 55.346c-.076.689-.151 1.377-.218 2.021z" fill="#ff6876"/><path d="m182.152 374.325c-.352-.109-.749-.226-1.101-.334l-14.301-39.419c.352.109.749.226 1.101.335z" fill="#ff6876"/><path d="m193.445 376.728c-.27-.048-.494-.087-.764-.135-.09-.016-.179-.031-.269-.047l-13.681-37.701c.389.162.777.324 1.165.486z" fill="#ff6876"/><path d="m204.398 378.154c-.045-.008-.09-.016-.179-.031-.27-.048-.548-.05-.825-.052l-12.098-33.358c.38.207.806.422 1.194.584z" fill="#ff6876"/><path d="m214.813 378.307c-.331.035-.616.079-.938.069l-10.272-28.355c.351.109.71.172 1.069.235z" fill="#ff6876"/><path d="m224.454 375.92c-.257.142-.551.23-.853.364l-11.397-31.416c.096-.544.2-1.133.319-1.813z" fill="#ff6876"/><path d="m232.339 369.037c-.198.339-.397.679-.596 1.018l-17.563-48.456c.054-.833.056-1.628.065-2.469z" fill="#ff6876"/><path d="m235.772 352.453-18.157-50.125c.322.01.681.073 1.004.083l17.247 47.67c-.046.788-.092 1.576-.094 2.372z" fill="#ff6876"/><path d="m235.944 324.036-7.613-20.95c.322.01.682.073 1.004.083l6.418 17.745c.094 1.046.143 2.084.191 3.122z" fill="#ff6876"/><path d="m51.6176 330.628c-.3037.134-.5622.276-.8579.364l-2.1041-5.808c.2957-.089.5915-.177.8792-.22z" fill="#ff7d80"/><path d="m75.9734 397.887c-.3596-.063-.7111-.172-1.0627-.28l-24.1715-66.618c.2567-.142.5584-.276.8521-.364z" fill="#ff6876"/><path d="m90.701 438.578c-.3306.036-.6163.079-.9468.114l-4.2005-11.653c.141-.537.2741-1.029.4151-1.566z" fill="#ff6876"/><path d="m60.5382 326.543s-.3053.133-.8168.371l-1.5287-4.112c.2973-.089.5946-.177.8839-.219l1.4321 3.861z" fill="#ff7d80"/><path d="m86.1607 397.308c-.2936.089-.5871.177-.8807.266l-25.6176-70.684c.5053-.238.8069-.372.8069-.372l.024-.136z" fill="#ff6876"/><path d="m100.678 437.457c-.33.035-.615.079-.9449.114l-9.7828-27.093c.1409-.537.2738-1.028.4147-1.565z" fill="#ff6876"/><path d="m110.713 436.294c-.33.036-.615.079-.945.114l-15.4096-42.543-.1604-.402-11.0824-30.596c.0898.016.1796.032.2245.04.2324-.006.5098-.004.7422-.01z" fill="#ff6876"/><path d="m120.749 435.132c-.331.035-.616.078-.947.113l-28.447-78.374c.1219-.166.2438-.332.3737-.543l.2598-.422z" fill="#ff6876"/><path d="m130.736 433.961c-.331.035-.616.078-.947.113l-31.6904-87.424c.2357-.286.4264-.58.6621-.866z" fill="#ff6876"/><path d="m162.943 305.927c1.348-1.868 2.748-3.774 4.096-5.643-2.61-1.209-5.264-2.426-7.873-3.635-2.639-3.929-4.834-6.703-5.611-7.542-.888-.999-1.771-1.763-1.771-1.763-.246-.184-.401-.352-.601-.527-.026.931-.267 3.088-1.753 5.214-1.736 2.502-4.078 3.446-4.913 3.72.781.559 2.184 1.789 3.075 3.819 1.499 3.306.625 6.428.346 7.222-4.079 5.552-5.2 7.976-5.295 9.036-.016.09-.032.181-.032.181.066.152.768 1.68.554 3.421-.016.091-.032.182-.056.318-.008.045-.024.136-.032.181-.016.091-.04.227-.101.31-.008.045-.024.136-.077.174-.024.136-.085.219-.154.347-.008.045-.061.083-.077.174-.077.173-.154.347-.275.513-.503.754-1.734 2.222-2.896 2.251-.045-.008-.232.006-.465.011-.33.036-.758.101-1.022.288-.053.038-.22.195-.529.375-.053.037-.106.075-.203.105-1.636.881-3.718 1.403-5.561 1.359-.012 3.742-.024 7.485-.044 11.272 3.259.669 6.519 1.337 9.779 2.006 3.778-.692 7.592-1.33 11.369-2.021l.038-9.401.022-.651s-.02-.144-.07-.387c1.096-.181 2.485-.451 4.085-1.386 5.477-3.247 6.959-11.13 6.42-16.467.028-1.212-.171-2.183-.373-2.874z" fill="#ff6876"/><path d="m147.681 299.587c-.939-2.036-2.307-3.213-3.08-3.817.836-.274 3.18-1.217 4.918-3.718 1.494-2.169 1.69-4.333 1.753-5.21-1.094-.895-2.493-1.89-4.137-2.554-5.953-2.5-13.254-.513-17.786 3.647-1.441 1.336-2.424 2.707-2.967 3.687l-.008.045c-3.627 6.377-2.948 15.666 1.108 22.883.14.259.324.525.464.784.14.258.324.525.472.738.472.738 2.407 2.904 3.017 3.386.156.167.365.298.565.474l-.012 4.535-.015 1.401c1.845.044 3.922-.431 5.568-1.358.053-.037.105-.074.203-.104.31-.179.477-.337.53-.374.219-.196.648-.26 1.023-.288.233-.005.421-.019.466-.011 1.155.016 2.44-1.488 2.898-2.249.443-.671.669-1.426.744-2.114.161-1.703-.506-3.177-.527-3.321 0 0 .016-.091.032-.182.094-1.059 1.216-3.481 5.299-9.029.099-.825.974-3.945-.528-7.251z" fill="#000"/><path d="m148.755 307.768c-.613-1.515-1.71-2.646-2.985-3.293-1.148-.578-2.442-.853-3.727-.658-.571.087-1.105.228-1.655.459-3.301 1.388-4.852 5.195-3.54 8.523 1.356 3.335 5.111 4.888 8.404 3.545 3.263-1.441 4.859-5.241 3.503-8.576z" fill="#ff6876"/><path d="m146.846 312.698c-.801-.189-1.395-.762-1.627-1.553-.202-.692-.082-1.374.3-1.963l-6.183-1.747c-.135-.024-.201-.176-.14-.259.024-.136.175-.204.257-.142l6.535 1.855c.09.016.127.07.156.168.028.099.02.145-.041.228-.455.482-.621 1.156-.455 1.795.173.593.694 1.06 1.315 1.216.135.024.209.131.185.267-.061.083-.167.158-.302.135z" fill="#000"/><path d="m152.83 295.141c1.512-1.346 2.467-2.742 2.133-3.118-.334-.377-1.831.409-3.343 1.755s-2.466 2.742-2.132 3.118 1.83-.41 3.342-1.755z" fill="#000"/><path d="m157.49 315.449c-1.307-.231-2.6-1.067-3.436-2.385-.037-.053-.066-.152-.005-.235s.114-.12.204-.104l7.734-.65c.09.016.135.024.217.085.037.054.066.152.058.198-.178.483-.805 2.199-2.498 2.836-.756.335-1.554.382-2.274.255zm-2.848-2.336c1.248 1.618 3.22 2.292 4.867 1.65 1.246-.479 1.858-1.583 2.113-2.237z" fill="#000"/><path d="m156.364 300.024c.586.104 1.146-.293 1.251-.885.104-.593-.287-1.157-.873-1.26-.587-.104-1.147.293-1.251.885-.105.593.286 1.157.873 1.26z" fill="#000"/><path d="m40.1301 327.515c1.332-.406 2.6601-.849 3.9921-1.254 5.3552-1.739 10.5043-3.57 15.4473-5.493-.348-1.443-4.361-18.697-6.6204-20.015-1.0461-.611-1.9317-.442-1.9317-.442-.0388.004-.9166.248-1.3894.981-.465.807-.184 1.612-.1722 1.725-.308-.689-.5772-1.381-.8812-2.032-.4449-1.243-1.8485-1.892-3.1028-1.495-1.0252.336-1.6298 1.31-1.5622 2.327-.5146-1.16-1.8366-1.78-3.0521-1.386-1.2543.397-1.8972 1.754-1.4135 2.993l1.6932 4.526-.7213-1.631c-.5574-1.194-1.992-1.764-3.1996-1.295-1.2037.506-1.7688 1.855-1.2075 3.085l.8734 1.957 4.6121 10.25c-1.3827.297-2.7772.482-4.1408.587.4527 1.318.995 2.74 1.6189 4.192.4014.83.7641 1.665 1.1577 2.42zm9.7406-9.584c.0039.037.0503.107.0929.141-.0387.004-.0733.045-.0733.045-.0079-.074-.0118-.112-.0196-.186z" fill="#ff6876"/><path d="m49.5522 303.264c0-.074.037-.147.1482-.184s.1853.037.2223.11l1.8526 6.394c.0371.111-.0371.184-.1112.221-.1111.036-.1852-.037-.2223-.11l-1.8526-6.394c-.037 0-.037 0-.037-.037z" fill="#000"/><path d="m44.9933 302.162c0-.073.0747-.147.1495-.183.112-.037.1868.036.2241.146l1.9427 8.288c.0374.11-.0373.184-.1494.22-.1121.037-.1868-.036-.2242-.146l-1.9427-8.325c0 .037 0 .037 0 0z" fill="#000"/><path d="m40.062 307.106c0-.069.0444-.138.1777-.172.1333-.035.2221.034.2665.138l1.7772 5.143c.0444.104-.0445.173-.1777.207-.1333.035-.2222-.034-.2666-.138z" fill="#000"/></g><path d="m63.5384 221.753h54.0616c3.716 0 6.757 2.554 6.757 5.676v51.088l-13.515-11.353h-47.3036c-3.7167 0-6.7577-2.554-6.7577-5.676v-34.059c0-3.122 3.041-5.676 6.7577-5.676z" fill="#ff5e57"/><path clip-rule="evenodd" d="m105.211 250.135c-2.488 0-4.505-1.955-4.505-4.367 0-2.411 2.017-4.366 4.505-4.366s4.505 1.955 4.505 4.366c0 2.412-2.017 4.367-4.505 4.367z" fill="#ffdd59" fill-rule="evenodd"/><path clip-rule="evenodd" d="m92.822 250.135c-2.4881 0-4.5051-1.955-4.5051-4.367 0-2.411 2.017-4.366 4.5051-4.366s4.5051 1.955 4.5051 4.366c0 2.412-2.017 4.367-4.5051 4.367z" fill="#ffdd59" fill-rule="evenodd"/><path clip-rule="evenodd" d="m79.3064 250.135c-2.4881 0-4.5051-1.955-4.5051-4.367 0-2.411 2.017-4.366 4.5051-4.366s4.5051 1.955 4.5051 4.366c0 2.412-2.017 4.367-4.5051 4.367z" fill="#ffdd59" fill-rule="evenodd"/><g filter="url(#b)" opacity=".711984"><rect fill="#d5e0ea" height="221.652" rx="12.1638" width="208.136" x="486.568" y="97.4116"/><rect height="220.949" rx="11.8124" stroke="#f8f8f8" stroke-width=".702798" width="207.433" x="486.92" y="97.763"/></g><g clip-rule="evenodd" fill-rule="evenodd" mask="url(#e)"><path d="m739.759 144.978c-.055-.111-.055-.276-.11-.387l-4.106-15.517-1.095-4.142-1.259-4.859-39.64 10.657.602 2.375c-.931.276-1.807.608-2.628.994-.766.387-1.533.828-2.245 1.325-2.026 1.381-3.668 3.203-4.873 5.247-1.916 3.202-2.737 7.068-2.19 10.989l2.136-1.657 2.682-2.098.986-.773c.657-3.259 2.683-6.075 5.639-7.621.603-.331 1.26-.608 1.917-.773l.328 1.215.712 2.816c.547.221 1.04.552 1.369 1.049.766.939.93 2.209.547 3.258-.109.332-.274.663-.547.994l.054.111c.548-.276 1.15-.331 1.752-.276 1.041.11 2.026.662 2.628 1.546.055.055.11.166.11.221.766 1.38.493 3.148-.657 4.252-.055.055-.11.11-.164.11.054 0 .164-.055.219-.055 1.478-.497 3.23 0 4.106 1.381.493.773.657 1.656.493 2.485-.164.828-.602 1.601-1.314 2.153.985-.386 2.08-.276 3.011.277.11.055.164.11.274.165.383.221.657.553.931.939 1.04 1.602.547 3.81-1.041 4.86l-.657.441c1.479 1.105 3.066 1.933 4.818 2.596.876.331 1.752.607 2.683.828 3.121.718 6.516.718 9.801-.165 4.27-1.16 7.829-3.59 10.457-6.793.602-.718 1.15-1.491 1.643-2.264 2.901-4.639 3.996-10.327 2.628-15.904z" fill="#f4ff00"/><path d="m698.613 139.803c-.818.28-1.637.336-2.455.336l-.327-1.233c-.655.224-1.31.448-1.91.785-1.909-.673-3.546-2.186-4.419-4.148.709-.505 1.473-.953 2.237-1.345 1.582 2.578 4.037 3.979 6.165 3.307 2.237-.729 3.491-3.476 3.273-6.671.819-.28 1.582-.504 2.401-.728 1.2 4.036-1.037 8.408-4.965 9.697z" fill="#1f0d60"/><path d="m709.467 161.546c-.272-.389-.545-.722-.927-.945-.109-.055-.164-.111-.273-.166-.873-.501-1.964-.612-3-.278.709-.556 1.145-1.334 1.309-2.168.164-.833 0-1.723-.491-2.501-.873-1.389-2.618-1.945-4.091-1.389-.055 0-.164.055-.219.055.055-.055.11-.055.164-.111 1.146-1.112 1.473-2.835.655-4.28-.055-.055-.109-.111-.109-.222-.6-.945-1.582-1.501-2.619-1.556-.6-.056-1.2 0-1.746.278-.054 0-.109.055-.218.111.055-.056.109-.111.164-.222.218-.278.436-.667.545-1.001.382-1.111.219-2.334-.545-3.279-.382-.5-.873-.834-1.364-1.056-.545-.222-1.2-.334-1.8-.278s-1.255.334-1.746.723l-.164.166-1.854 1.445-3.001 2.39-.982.778-2.673 2.112-2.127 1.668c-.546-3.946.272-7.837 2.182-11.061-.382-1.167-1.309-2.112-2.564-2.445-1.91-.445-3.819.778-4.31 2.723-5.128 13.228-10.256 26.456-15.384 39.684l27.44-1.5 4.637-4.058c.328 0 .709-.111 1.037-.222.218-.056.436-.167.6-.333l2.837-1.835 8.946-5.835.655-.445c1.637-1.112 2.073-3.335 1.036-4.947z" fill="#8235ff"/><path d="m681.795 165.079c-.113 2.96-.678 6.868-2.374 10.107-.057.111-.17.167-.283.167-.057 0-.113 0-.113-.056-.113-.056-.17-.223-.113-.391 1.752-3.238 2.261-7.202 2.374-10.162.113.112.283.224.509.335z" fill="#000"/><path d="m684.725 165.639c-.109 0-.163-.056-.217-.112-.109-.112-.055-.281.054-.393l14.731-10.042c.109-.113.272-.056.38.056.109.112.055.28-.054.393l-14.785 10.042c0 .056-.055.056-.109.056z" fill="#000"/><path d="m679.925 161.485c-.109 0-.163-.055-.218-.11-.109-.11-.055-.276.055-.386l15.612-11.075c.11-.11.273-.055.382.055.11.11.055.275-.054.386l-15.613 11.075c-.054.055-.109.055-.164.055z" fill="#000"/><path d="m691.546 169.282c-.108 0-.163-.056-.217-.111-.109-.111-.055-.277.054-.388l12.078-8.26c.109-.111.272-.056.381.055s.054.277-.055.388l-12.077 8.26c-.055 0-.109.056-.164.056z" fill="#000"/><path d="m689.83 178.931c-4.596.277-9.192.498-13.788.775-2.134.111-11.655.609-13.789.775-.383 7.579-.984 17.648-2.024 29.488-2.845 32.311-5.198 34.579-6.949 35.187-7.222 2.435-12.584-20.359-37.206-34.357-2.9-1.66-5.855-3.043-8.755-4.205-6.675-2.711-13.241-4.204-19.041-5.034-.93-.111-1.805-.277-2.626-.332-.055 0-.11.055-.164.055v.055c-3.174 9.461-6.293 18.977-9.466 28.438-1.204 3.651-2.408 7.248-3.611 10.899-6.019-.166-12.038-.387-18.002-.553.055-.221.055-.443.11-.775.055-.166.055-.387.109-.608.055-.277.11-.554.11-.83.054-.222.054-.443.109-.719.055-.166.055-.332.11-.554 0-.166.054-.332.054-.498.164-1.051.383-2.268.602-3.596.055-.387.11-.719.164-1.106.055-.222.055-.388.11-.609 0-.166.054-.277.054-.443.055-.442.165-.885.219-1.327 0-.056 0-.111 0-.166.055-.443.164-.886.219-1.328.547-3.486 1.204-7.303 1.751-10.899.055-.277.109-.498.109-.775.11-.774.219-1.494.383-2.213.055-.277.11-.553.11-.83.055-.221.055-.387.109-.608.055-.388.11-.775.219-1.162.055-.388.11-.775.164-1.162.055-.166.055-.387.11-.553.273-1.771.547-3.32.711-4.426-9.302 3.042-16.524 6.915-22.214 10.954-5.527 3.928-9.576 8.078-12.585 11.84-14.007 17.538-18.767 43.265-27.686 42.545-1.86-.166-4.705-1.77-15.266-32.365-3.556-10.235-6.347-19.088-8.48-26.114-9.028 2.158-18.056 4.315-27.03 6.528 4.596 23.016 13.132 58.535 25.552 80.112 1.751 3.043 3.557 5.81 5.472 8.189 1.805 2.268 4.979 5.864 10.177 7.524 7.386 2.379 14.609-.498 17.399-1.605 1.478-.608 2.846-1.327 4.104-2.102 2.572-1.549 4.815-3.485 7.058-6.03-1.915 8.852-3.884 18.423-5.8 28.88 2.791 0 5.636.055 8.427.055 27.084.166 54.168.332 81.252.443 2.408 0 4.76 0 7.168.055 2.462-25.561 4.869-51.121 7.332-76.682 3.064 3.209 21.339 22.02 33.978 28.382 1.86.941 4.213 1.937 7.168 2.49 2.243.443 10.122 1.77 17.235-2.766 4.651-2.933 6.839-7.193 8.043-9.848 1.259-2.822 2.353-5.92 3.338-9.295 7.113-25.118 6.401-64.012 5.143-87.194z" fill="#575fcf"/><path d="m559.237 258.113c1.448 0 2.621-1.187 2.621-2.652 0-1.464-1.173-2.652-2.621-2.652-1.447 0-2.621 1.188-2.621 2.652 0 1.465 1.174 2.652 2.621 2.652z" fill="#f4ff00"/><path d="m556.458 279.203c1.448 0 2.621-1.188 2.621-2.652 0-1.465-1.173-2.653-2.621-2.653s-2.621 1.188-2.621 2.653c0 1.464 1.173 2.652 2.621 2.652z" fill="#f4ff00"/><path d="m554.311 300.1c1.448 0 2.622-1.187 2.622-2.652 0-1.464-1.174-2.652-2.622-2.652-1.447 0-2.621 1.188-2.621 2.652 0 1.465 1.174 2.652 2.621 2.652z" fill="#f4ff00"/><path d="m551.533 321.19c1.448 0 2.621-1.187 2.621-2.652s-1.173-2.652-2.621-2.652c-1.447 0-2.621 1.187-2.621 2.652s1.174 2.652 2.621 2.652z" fill="#f4ff00"/><path d="m516.529 304.702c-.054 0-.054 0 0 0-.216-.055-.27-.166-.27-.332l9.944-53.257c.054-.166.162-.221.324-.221.162.055.216.166.216.332l-9.944 53.257c-.054.11-.162.221-.27.221z" fill="#00ce87"/><path d="m700.768 122.309c-.218-.055-.272-.221-.218-.331 1.849-6.078 1.794-11.438-.109-15.913-1.739-4.089-4.512-6.1885-7.72-8.6196-2.664-2.0444-5.654-4.365-8.427-8.2327-3.37-4.807-5.436-10.719-6.034-17.6256 0-.1658.108-.2763.272-.2763.163 0 .271.1105.271.2763.598 6.7961 2.556 12.5976 5.926 17.3494 2.664 3.8124 5.546 5.9673 8.264 8.0669 3.099 2.3759 6.035 4.6416 7.883 8.8406 1.958 4.586 2.012 10.056.163 16.299-.054.111-.163.166-.271.166z" fill="#1f0d60"/><path d="m711.441 119.817c-.217-.055-.271-.221-.217-.331 1.848-6.078 1.794-11.438-.109-15.913-1.739-4.0888-4.512-6.1884-7.72-8.6195-2.664-2.0444-5.654-4.365-8.427-8.2327-3.37-4.807-5.436-10.7191-6.034-17.6257 0-.1657.108-.2763.271-.2763.164 0 .272.1106.272.2763.598 6.7961 2.556 12.5977 5.926 17.3494 2.664 3.7572 5.546 5.9673 8.264 8.0669 3.099 2.3759 6.035 4.6413 7.883 8.8406 1.957 4.586 2.012 10.056.163 16.3-.054.055-.163.165-.272.165z" fill="#1f0d60"/><path d="m592.756 175.747c-3.502-.442-5.582-2.932-6.075-3.54-.438-.775-1.095-2.324-1.095-4.426.055-3.042 1.588-5.089 2.135-5.697-.383.166-2.901 1.383-5.364.166-2.736-1.328-3.612-6.196-3.284-7.966 0-.111.055-.388 0-.443-.383-.221-1.642 2.932-4.214 4.536-2.901 1.826-6.349.941-6.951.83-1.478-.332-3.503-.885-4.598-2.821-1.532-2.711.274-5.864.438-6.085-1.861.996-6.787 3.319-11.932 1.715-.875-.277-2.189-.664-3.229-1.494-.657.885-1.204 1.881-1.751 2.877-.384.719-.712 1.438-1.095 2.212-6.459 14.881-2.408 36.289 8.812 42.208 1.916.996 4.05 1.549 6.349 1.77-.274 1.771-.547 3.485-.766 5.256-.165 1.106-.438 2.655-.712 4.425 0 .166-.055.387-.109.553-.055.387-.11.775-.165 1.162-.054.387-.109.774-.218 1.162-.055.221-.055.387-.11.608-.055.277-.109.553-.109.83-.11.719-.219 1.493-.384 2.213-.054.276-.109.497-.109.774-.219 1.272-.438 2.6-.657 3.928 5.747 1.604 13.738 3.872 19.704 5.532 2.737-8.298 5.528-16.596 8.265-24.894 0 0 0 0 0-.055s0 0 0-.055v-.056c.656-4.536 1.259-9.072 1.915-13.553 2.409-2.766 4.379-5.863 5.747-9.293.165-.443.383-.941.548-1.438.109-.332.219-.664.328-.996-.438.111-.876.111-1.314.055z" fill="#ff6876"/><g fill="#000"><path d="m624.992 166.845c-2.844-6.254-12.305-9.519-23.517-8.302-.054 0-.109 0-.164-.055-1.75-4.87-5.195-10.958-11.43-16.05 9.079-.442 16.298-8.024 16.298-17.322 0-9.574-7.657-17.378-17.064-17.378-9.406 0-17.063 7.748-17.063 17.378 0 3.597 1.094 6.973 2.953 9.74-9.242-2.103-15.969-1.992-19.907-1.66 0 0-6.891.609-8.805 3.653-.93 1.439-.765 2.822-.765 2.822.054.332.109 1.052.656 1.716.711.941 1.641 1.162 1.914 1.217 0 0-1.313 1.993-1.313 4.262-7.656.941-13.672 5.922-15.149 12.12-1.64 6.807 2.844 12.674 3.555 13.614-5.086-.276-9.625 3.266-10.61 8.247-.984 4.87 1.641 9.795 6.235 11.677-7.875 6.088-8.805 15.33-5.25 19.149 2.406 2.601 7.055 2.988 11.485 1.66.273.941.547 1.771.875 2.601 5.687-4.04 12.906-7.859 22.204-10.958.273-1.771.547-3.486.765-5.257-2.297-.166-4.429-.775-6.344-1.771-11.211-5.922-15.258-27.34-8.805-42.227.328-.775.657-1.494 1.094-2.214.547-.996 1.094-1.937 1.75-2.878 1.039.83 2.297 1.218 3.227 1.494 5.141 1.55 10.063-.719 11.922-1.715-.109.221-1.914 3.376-.437 6.088 1.094 1.937 3.117 2.49 4.594 2.822.656.111 4.047.996 6.945-.83 2.625-1.605 3.829-4.76 4.211-4.538.11.055.055.332 0 .443-.328 1.771.547 6.641 3.282 7.969 2.461 1.162 4.977 0 5.359-.166-.492.609-2.078 2.656-2.132 5.7-.055 1.937.601 3.487 1.039 4.262 0 .055.054.11.054.11.493.665 2.571 3.1 6.071 3.542.437.056.875.056 1.312.056-.109.332-.218.664-.328.996-.164.498-.328.941-.547 1.439-1.367 3.431-3.336 6.53-5.742 9.297-.656 4.539-1.258 9.077-1.914 13.56v.055.055c.055 0 .109-.055.164-.055.875.111 1.75.221 2.625.332 5.797.83 12.305 2.38 19.032 5.036.82-1.66 1.422-3.154 1.86-4.372.492-.055 7.547-.719 10.937-7.195 2.297-4.372 2.079-9.629-.546-13.835.875-.332 4.429-1.771 6.015-5.535 1.641-3.929-.109-7.748-.601-8.799z"/><path d="m562.805 179.635-7.685-1.107c-.054 0-.163-.055-.218-.11-.054-.056-.054-.166-.054-.221l3.869-12.946c.055-.166.218-.222.327-.166.164.055.218.221.164.332l-3.815 12.614 7.303 1.051c.164 0 .273.166.218.332.164.11.055.221-.109.221z"/><path d="m555.8 162.963c-.018-.612-1.916-1.054-4.238-.988-2.323.066-4.19.615-4.171 1.227s1.916 1.054 4.239.988c2.322-.066 4.189-.615 4.17-1.227z"/><path d="m570.129 164.796c2.227.322 4.104.087 4.193-.524.089-.612-1.644-1.367-3.871-1.689-2.227-.321-4.105-.086-4.194.525s1.644 1.367 3.872 1.688z"/><path d="m563.368 188.07c-1.801 0-3.165-.783-3.274-.839s-.163-.223-.109-.391c.055-.112.218-.168.382-.112.109.056 2.946 1.678 5.729 0 2.345-1.398 2.782-4.083 2.782-4.363 0-.168.164-.279.327-.223.164 0 .273.167.218.335-.054.559-.545 3.3-3.055 4.81-1.036.616-2.073.783-3 .783z"/><path d="m560.915 200.213c-.055 0-.055 0-.109 0-.164 0-.274-.111-.274-.277s.11-.277.274-.277h.109c1.858 0 3.771-.166 5.63-.498l.164-.055c.109 0 .164-.056.273-.056.601-.11 1.257-.276 1.968-.442h.054c.383-.111.82-.222 1.203-.332h.109c.11-.056.219-.056.328-.111.273-.111.547-.166.82-.277 3.389-1.107 6.614-2.767 9.511-4.926.054-.055.109-.055.164-.111l.109-.055c.109-.111.273-.055.383.055.109.111.054.277-.055.388l-.055.055c-.054.055-.109.055-.164.111-2.951 2.158-6.176 3.874-9.62 5.037-.273.11-.546.166-.82.276-.109.056-.218.056-.327.111-.055 0-.11 0-.11.055-.382.111-.82.222-1.202.333h-.055c-.711.166-1.366.332-1.968.442-.109 0-.218.056-.273.056l-.164.055c-2.077.277-3.99.443-5.903.443z"/></g><path d="m602.659 180.265c0 5.643-4.548 10.234-10.137 10.234s-10.137-4.591-10.137-10.234c0-3.43 1.644-6.473 4.219-8.299 0 .055.055.111.055.111.493.664 2.575 3.098 6.082 3.54.438.056.877.056 1.315.056 2.246-.056 4.383-.996 5.918-2.379 1.698 1.881 2.685 4.315 2.685 6.971z" fill="#ff6876"/><path d="m589.238 185.067c-.055 0-.109 0-.163-.055-.109-.111-.164-.277-.055-.388.871-1.165 1.142-2.274.925-3.217-.326-1.275-1.523-1.885-1.523-1.885-.109-.056-.163-.111-.163-.222s.054-.222.109-.278l7.941-4.658c.109-.055.272-.055.38.111.055.111.055.277-.108.388l-7.561 4.437c.435.332 1.142.998 1.414 1.996.272 1.109-.054 2.329-1.033 3.66 0 .056-.054.111-.163.111z" fill="#000"/><path d="m576.701 168.338c-.328 4.414-4.206 7.848-8.576 7.575-4.26-.272-7.647-3.923-7.592-8.229 5.407.218 10.815.436 16.168.654z" fill="#d5e0ea"/><path d="m556.554 167.444c-.164 4.363-3.879 7.798-8.249 7.58-4.371-.218-7.812-3.872-7.594-8.234 5.245.218 10.544.436 15.843.654z" fill="#d5e0ea"/><path d="m562.428 168.388c-.11 0-.165-.057-.219-.113-.11-.168-1.151-1.907-3.179-2.188-1.534-.168-3.068.505-4 1.852-.109.112-.274.168-.383.056-.11-.112-.165-.281-.055-.393 1.041-1.515 2.74-2.3 4.493-2.132 2.247.281 3.397 2.076 3.562 2.469.055.112.055.28-.11.392 0 .057-.055.057-.109.057z" fill="#000"/><path d="m586.691 170.113s-.054 0-.109 0l-10.934-.767c-.164 0-.273-.153-.273-.256 0-.153.164-.255.273-.255l10.934.767c.164 0 .273.153.273.255.055.154-.054.256-.164.256z" fill="#000"/><path d="m549.692 175.289c-.113 0-.226-.054-.283-.164-.509-.988-.735-2.086-.679-3.184.057-2.251 1.132-3.953 2.037-4.941.113-.11.283-.11.396 0s.113.274 0 .384c-.849.933-1.81 2.471-1.867 4.557 0 1.043.226 2.031.679 2.964.057.165 0 .275-.113.384-.113 0-.113 0-.17 0z" fill="#fff"/><path d="m569.698 176.184c-.115 0-.173-.055-.231-.164-.462-.82-1.039-2.133-1.039-3.773.057-1.969.866-3.445 1.559-4.32.115-.11.289-.164.404-.055.116.109.174.273.058.383-.635.82-1.444 2.187-1.444 3.992 0 1.531.52 2.734.982 3.5.058.109.058.273-.116.382-.057.055-.115.055-.173.055z" fill="#fff"/><path d="m564.334 172.368c.698 0 1.264-.572 1.264-1.278s-.566-1.278-1.264-1.278c-.697 0-1.263.572-1.263 1.278s.566 1.278 1.263 1.278z" fill="#000"/><path d="m544.693 171.793c.697 0 1.263-.572 1.263-1.278s-.566-1.278-1.263-1.278c-.698 0-1.263.572-1.263 1.278s.565 1.278 1.263 1.278z" fill="#000"/><path d="m593.691 194.206c2.127 0 3.852-1.746 3.852-3.899s-1.725-3.898-3.852-3.898c-2.128 0-3.853 1.745-3.853 3.898s1.725 3.899 3.853 3.899z" fill="#00ce87"/><path d="m557.468 220.664c-.384 2.32-.768 4.695-1.151 6.96-.055.442-.165.883-.22 1.325-.055.497-.164.995-.219 1.436-.055.332-.11.718-.165 1.05-.054.386-.109.773-.164 1.104-.11.663-.219 1.271-.329 1.878-.055.277-.11.608-.164.884-.055.276-.11.552-.11.829 0 .165-.055.331-.055.497-.11.773-.219 1.491-.329 2.043-.055.221-.055.442-.11.608-.054.276-.109.552-.109.773 6.031.166 12.062.387 18.038.553 1.206-3.646 2.413-7.236 3.619-10.881.384-1.16.767-2.375 1.206-3.535-5.976-1.657-14.036-3.922-19.738-5.524z" fill="#fff"/><path d="m577.165 226.415-19.732-5.551c-.164-.055-.219-.222-.164-.333.054-.166.164-.222.328-.166l19.677 5.551c.164.055.219.222.164.333 0 .111-.109.166-.273.166z" fill="#1f0d60"/></g><path clip-rule="evenodd" d="m739.759 144.978c-.055-.11-.055-.276-.11-.386l-4.106-15.518-1.095-4.142-1.259-4.859-39.64 10.658.602 2.374c-.931.276-1.807.608-2.628.994-.766.387-1.533.829-2.245 1.326-2.026 1.38-3.668 3.203-4.873 5.246-1.916 3.203-2.737 7.068-2.19 10.989l2.136-1.657 2.682-2.098.986-.773c.657-3.258 2.683-6.075 5.639-7.621.603-.331 1.26-.607 1.917-.773l.328 1.215.712 2.816c.547.221 1.04.552 1.369 1.05.766.938.93 2.208.547 3.258-.109.331-.274.662-.547.994l.054.11c.548-.276 1.15-.331 1.752-.276 1.041.11 2.026.663 2.628 1.546.055.055.11.166.11.221.766 1.381.493 3.148-.657 4.252-.055.055-.11.111-.164.111.054 0 .164-.056.219-.056 1.478-.497 3.23 0 4.106 1.381.493.773.657 1.657.493 2.485s-.602 1.602-1.314 2.154c.985-.387 2.08-.276 3.011.276.11.055.164.11.274.166.383.22.657.552.931.938 1.04 1.602.547 3.811-1.041 4.86l-.657.442c1.479 1.104 3.066 1.932 4.818 2.595.876.331 1.752.608 2.683.828 3.121.718 6.516.718 9.801-.165 4.27-1.16 7.829-3.59 10.457-6.793.602-.717 1.15-1.491 1.643-2.264 2.901-4.638 3.996-10.326 2.628-15.904z" fill="#ff6876" fill-rule="evenodd"/><path clip-rule="evenodd" d="m735.545 129.056c-.934 1.115-2.144 2.007-3.628 2.508-3.957 1.227-8.245-1.059-9.509-5.073.825-.279 1.594-.502 2.419-.725 1.539 2.732 4.122 4.293 6.376 3.568 1.704-.557 2.858-2.23 3.243-4.404z" fill="#1f0d60" fill-rule="evenodd"/><path clip-rule="evenodd" d="m725.723 143.096c.217 3.189-1.035 5.931-3.267 6.659-2.232.727-4.79-.84-6.369-3.582-.817.224-1.579.504-2.396.728 1.198 4.029 5.444 6.379 9.419 5.092 3.919-1.231 6.206-5.596 4.954-9.681-.708.28-1.525.56-2.341.784z" fill="#1f0d60" fill-rule="evenodd"/><path clip-rule="evenodd" d="m698.613 139.803c-.818.281-1.637.337-2.455.337l-.327-1.233c-.655.224-1.31.448-1.91.784-1.909-.672-3.546-2.186-4.419-4.148.709-.504 1.473-.953 2.237-1.345 1.582 2.579 4.037 3.98 6.165 3.307 2.237-.728 3.491-3.475 3.273-6.67.819-.28 1.582-.505 2.401-.729 1.2 4.036-1.037 8.408-4.965 9.697z" fill="#1f0d60" fill-rule="evenodd"/><path clip-rule="evenodd" d="m715.303 170.241c-.91-.221-1.766-.497-2.622-.827 1.284-1.213 1.98-3.308 1.819-5.678.803-.276 1.552-.496 2.355-.717.749 2.536.107 5.292-1.552 7.222z" fill="#1f0d60" fill-rule="evenodd"/><path clip-rule="evenodd" d="m737.123 161.006c-.488.774-1.031 1.549-1.627 2.269-1.194-.941-2.17-2.214-2.604-3.819.813-.276 1.573-.498 2.387-.719.542.885 1.139 1.66 1.844 2.269z" fill="#1f0d60" fill-rule="evenodd"/><path clip-rule="evenodd" d="m709.469 161.547c-.272-.39-.545-.723-.927-.945-.109-.056-.164-.111-.273-.167-.873-.5-1.964-.611-3-.278.709-.556 1.145-1.334 1.309-2.168.164-.833 0-1.723-.491-2.501-.873-1.389-2.618-1.945-4.091-1.389-.055 0-.164.055-.219.055.055-.055.11-.055.164-.111 1.146-1.111 1.473-2.834.655-4.279-.055-.056-.109-.112-.109-.223-.6-.945-1.582-1.5-2.619-1.556-.6-.055-1.2 0-1.746.278-.054 0-.109.056-.218.111.055-.055.109-.111.164-.222.218-.278.436-.667.545-1.001.382-1.111.219-2.334-.545-3.279-.382-.5-.873-.834-1.364-1.056-.545-.222-1.2-.333-1.8-.278-.6.056-1.255.334-1.746.723l-.164.167-1.854 1.445-3.001 2.39-.982.778-2.673 2.112-2.127 1.667c-.546-3.946.272-7.837 2.182-11.06-.382-1.167-1.309-2.112-2.564-2.446-1.91-.444-3.819.778-4.31 2.724-5.128 13.228-10.256 26.456-15.384 39.684l27.44-1.501 4.637-4.057c.328 0 .709-.112 1.037-.223.218-.055.436-.166.6-.333l2.837-1.834 8.946-5.836.655-.445c1.636-1.111 2.073-3.335 1.036-4.946z" fill="#ff6876" fill-rule="evenodd"/><path clip-rule="evenodd" d="m681.797 165.079c-.113 2.959-.678 6.868-2.374 10.106-.057.112-.17.168-.283.168-.057 0-.113 0-.113-.056-.113-.056-.17-.223-.113-.391 1.752-3.238 2.261-7.203 2.374-10.162.113.112.283.223.509.335z" fill="#000" fill-rule="evenodd"/><path clip-rule="evenodd" d="m684.726 165.639c-.109 0-.163-.056-.218-.112-.108-.112-.054-.281.055-.393l14.731-10.043c.108-.112.272-.056.38.057.109.112.055.28-.054.392l-14.785 10.043c0 .056-.055.056-.109.056z" fill="#000" fill-rule="evenodd"/><path clip-rule="evenodd" d="m679.927 161.485c-.109 0-.163-.055-.218-.11-.109-.11-.055-.275.055-.386l15.612-11.075c.109-.11.273-.055.382.055.11.11.055.276-.054.386l-15.613 11.075c-.055.055-.109.055-.164.055z" fill="#000" fill-rule="evenodd"/><path clip-rule="evenodd" d="m691.547 169.282c-.108 0-.163-.055-.217-.111-.109-.111-.055-.277.054-.388l12.078-8.26c.109-.111.272-.055.381.056s.054.277-.055.388l-12.077 8.26c-.055 0-.109.055-.164.055z" fill="#000" fill-rule="evenodd"/><path clip-rule="evenodd" d="m700.768 122.309c-.218-.055-.272-.221-.218-.331 1.849-6.078 1.794-11.437-.109-15.913-1.739-4.089-4.512-6.1882-7.72-8.6193-2.664-2.0444-5.654-4.365-8.427-8.2327-3.37-4.807-5.436-10.7191-6.034-17.6257 0-.1658.108-.2763.272-.2763.163 0 .271.1105.271.2763.598 6.7961 2.556 12.5977 5.926 17.3494 2.664 3.8125 5.546 5.9673 8.264 8.0669 3.099 2.3759 6.035 4.6414 7.883 8.8404 1.958 4.586 2.012 10.056.163 16.3-.054.11-.163.165-.271.165z" fill="#1f0d60" fill-rule="evenodd"/><path clip-rule="evenodd" d="m711.441 119.818c-.217-.056-.271-.222-.217-.332 1.848-6.078 1.794-11.437-.109-15.913-1.739-4.0886-4.512-6.1882-7.72-8.6193-2.664-2.0443-5.654-4.365-8.427-8.2327-3.37-4.807-5.436-10.719-6.034-17.6256 0-.1658.108-.2763.271-.2763.164 0 .272.1105.272.2763.598 6.7961 2.556 12.5976 5.926 17.3494 2.664 3.7572 5.546 5.9673 8.264 8.0669 3.099 2.3759 6.035 4.6412 7.883 8.8403 1.957 4.586 2.012 10.056.163 16.3-.054.055-.163.166-.272.166z" fill="#1f0d60" fill-rule="evenodd"/><path clip-rule="evenodd" d="m722.052 117.325c-.218-.055-.272-.221-.218-.332 1.849-6.078 1.794-11.437-.108-15.913-1.74-4.0882-4.513-6.1878-7.72-8.619-2.664-2.0443-5.655-4.3649-8.427-8.2326-3.371-4.807-5.437-10.7191-6.035-17.6257 0-.1658.109-.2763.272-.2763s.272.1105.272.2763c.598 6.7961 2.555 12.5976 5.926 17.3494 2.664 3.7572 5.545 5.9673 8.263 8.0669 3.099 2.3759 6.035 4.6413 7.884 8.84 1.957 4.586 2.011 10.056.163 16.3-.055.055-.163.166-.272.166z" fill="#1f0d60" fill-rule="evenodd"/><path clip-rule="evenodd" d="m466.265 193.373c-3.772-5.748-7.981-9.672-11.042-12.104-.984-1.05-2.46-1.271-3.608-.718-.273.165-.547.331-.82.552-1.257 1.216-1.257 3.316-.109 4.643l5.794 6.356-6.833-.884-17.273-12.712c-1.421-1.05-3.389-.664-4.373.773-.711 1.106-.711 2.543-.055 3.593l-.492-.221c-1.421-1.05-3.389-.663-4.373.774-.984 1.492-.656 3.537.766 4.587l.874.608c-1.093-.111-2.186.387-2.842 1.382-.383.552-.547 1.216-.547 1.879 0 1.05.492 2.1 1.367 2.708l2.022 1.492c-.328.055-.711.111-.984.277-.437.221-.82.552-1.148.939-1.038 1.437-.765 3.482.602 4.587 3.115 2.488 6.723 5.251 16.125 9.065 2.788 1.105 4.974 2.045 6.122 2.542.438 1.603.875 3.206 1.312 4.808 9.019-2.155 18.039-4.311 27.003-6.521-.82-4.256-2.787-11.22-7.488-18.405z" fill="#ff6876" fill-rule="evenodd"/><path clip-rule="evenodd" d="m458.457 206.348c-.056 0-.113 0-.169-.056-5.939-5.024-1.358-11.722-1.301-11.778.113-.112.283-.167.396-.056.113.112.169.279.056.391 0 0-1.131 1.619-1.527 3.796-.509 2.847.396 5.303 2.715 7.312.113.112.113.28.057.391-.057-.056-.17 0-.227 0z" fill="#1f0000" fill-rule="evenodd"/><path clip-rule="evenodd" d="m443.915 194.206c-.055 0-.11 0-.165-.056l-16.051-11.07c-.11-.111-.165-.278-.055-.389s.275-.167.385-.056l16.051 11.07c.11.112.165.278.055.39 0 .055-.11.111-.22.111z" fill="#1f0000" fill-rule="evenodd"/><path clip-rule="evenodd" d="m440.735 198.935c-.055 0-.11 0-.164-.056l-16.076-10.032c-.109-.056-.164-.277-.109-.388.054-.111.273-.167.382-.111l16.076 10.033c.109.055.164.277.109.388 0 .11-.109.166-.218.166z" fill="#1f0000" fill-rule="evenodd"/><path clip-rule="evenodd" d="m439.921 205.198c-.055 0-.109 0-.109-.055l-15.192-8.882c-.109-.055-.164-.222-.109-.388.054-.111.218-.167.382-.111l15.192 8.881c.109.056.164.222.109.389-.109.166-.164.166-.273.166z" fill="#1f0000" fill-rule="evenodd"/><path clip-rule="evenodd" d="m497.561 270.275c-1.86-.166-4.705-1.771-15.266-32.366-3.556-10.235-6.347-19.087-8.48-26.114-9.028 2.158-18.057 4.316-27.03 6.529 4.596 23.015 13.132 58.535 25.552 80.112 1.751 3.043 3.557 5.809 5.472 8.188 1.805 2.268 4.979 5.865 10.177 7.524 7.386 2.379 14.609-.498 17.399-1.604 1.478-.609 2.846-1.328 4.104-2.103 2.572-1.549 4.815-3.485 7.058-6.03-1.915 8.852-10.067-33.417-18.986-34.136z" fill="#575fcf" fill-rule="evenodd"/><path d="m441.021 82.5447h68.118c4.683 0 8.514 2.9801 8.514 6.6225v59.6028l-17.029-13.245h-59.603c-4.683 0-8.514-2.98-8.514-6.623v-39.7348c0-3.6424 3.831-6.6225 8.514-6.6225z" fill="#575fcf"/><path clip-rule="evenodd" d="m494.511 117.913c-3.043 0-5.51-2.467-5.51-5.51s2.467-5.51 5.51-5.51c3.044 0 5.51 2.467 5.51 5.51s-2.466 5.51-5.51 5.51z" fill="#ffdd59" fill-rule="evenodd"/><path clip-rule="evenodd" d="m477.981 117.913c-3.043 0-5.51-2.467-5.51-5.51s2.467-5.51 5.51-5.51 5.51 2.467 5.51 5.51-2.467 5.51-5.51 5.51z" fill="#ffdd59" fill-rule="evenodd"/><path clip-rule="evenodd" d="m461.45 117.913c-3.043 0-5.51-2.467-5.51-5.51s2.467-5.51 5.51-5.51 5.51 2.467 5.51 5.51-2.467 5.51-5.51 5.51z" fill="#ffdd59" fill-rule="evenodd"/><rect fill="#f53b57" height="37.843" rx="18.9215" width="78.389" x="551.441" y="270.408"/><path d="m590.636 284.577c-2.711 0-5.321.419-7.771 1.208v5.21c0 .663-.389 1.233-.946 1.51-1.647.823-3.159 1.871-4.502 3.105-.304.293-.718.478-1.183.478s-.887-.185-1.191-.495l-4.181-4.153c-.313-.311-.499-.73-.499-1.192 0-.461.186-.88.499-1.191 5.144-4.858 12.113-7.836 19.774-7.836 7.662 0 14.631 2.978 19.775 7.836.312.302.498.73.498 1.191 0 .462-.186.881-.498 1.183l-4.181 4.153c-.304.302-.727.495-1.191.495-.457 0-.879-.184-1.183-.478-1.343-1.233-2.855-2.282-4.502-3.104-.558-.277-.946-.847-.946-1.51v-5.21c-2.45-.781-5.06-1.2-7.772-1.2z" fill="#fff"/><path d="m218.594 31.101c0 4.7839-3.879 8.662-8.662 8.662-4.784 0-8.662-3.8781-8.662-8.662s3.878-8.662 8.662-8.662c4.783 0 8.662 3.8781 8.662 8.662z" fill="#5b95bf"/><circle cx="732.541" cy="238.412" fill="#f64942" r="11.5494"/><circle cx="643.611" cy="634.555" fill="#f4ce45" r="28.8734"/><circle cx="31.494" cy="453.23" fill="#ef90a4" r="17.324"/></svg>