<svg fill="none" height="68" viewBox="0 0 84 68" width="84" xmlns="http://www.w3.org/2000/svg"><path d="m32 59h21v1h-21z" fill="#000"/><path d="m10 8.5h64c1.933 0 3.5 1.567 3.5 3.5v39c0 1.933-1.567 3.5-3.5 3.5h-64c-1.933 0-3.5-1.567-3.5-3.5v-39c0-1.933 1.567-3.5 3.5-3.5z" fill="#fff" stroke="#000"/><g clip-rule="evenodd" fill="#000" fill-rule="evenodd"><path d="m40 39-7-1.0601v-5.9399h7z"/><path d="m40 32h-7v-5.94l7-1.06z"/><path d="m51 40-9-1.3274v-6.6726h9z"/><path d="m51 31h-9v-6.6733l9-1.3267z"/></g><path d="m39.5 54.5h6v5h-6z" fill="#fff" stroke="#000"/></svg>