<svg fill="none" height="68" viewBox="0 0 38 68" width="38" xmlns="http://www.w3.org/2000/svg"><rect fill="#fff" height="58" rx="5.5" stroke="#000" width="29" x="4.5" y="5.5"/><rect fill="#fff" height="50" rx="4.5" stroke="#000" width="29" x="4.5" y="9.5"/><g fill="#000"><path d="m14 32c-.552 0-1 .448-1 1v4c0 .552.448 1 1 1s1-.448 1-1v-4c0-.5525-.448-1-1-1z"/><path d="m24 32c-.552 0-1 .448-1 1v4c0 .552.448 1 1 1s1-.448 1-1v-4c0-.5525-.448-1-1-1z"/><path d="m15 39.5h1v2.5c0 .552.448 1 1 1s1-.448 1-1v-2.5h2v2.5c0 .552.448 1 1 1s1-.448 1-1v-2.5h1v-7.5h-8z"/><path clip-rule="evenodd" d="m21.3615 29.1274.5135-.7925c.0695-.107.0285-.2428-.092-.3048-.119-.0619-.2725-.0254-.3415.082l-.5005.7725c-.575-.2851-1.236-.4486-1.941-.4486-.7045 0-1.3655.1635-1.941.4491l-.501-.7734c-.0695-.1065-.2215-.143-.342-.0816-.119.0615-.16.1974-.0915.3043l.514.793c-.9915.6487-1.6385 1.692-1.6385 2.8726h8c0-1.1806-.647-2.2239-1.6385-2.8726zm-3.8615 1.5361c-.2765 0-.5-.1991-.5-.4455s.2235-.4455.5-.4455.5.1991.5.4455-.2235.4455-.5.4455zm2.5-.4455c0 .2464.2235.4455.5.4455s.5-.1991.5-.4455-.2235-.4455-.5-.4455-.5.1991-.5.4455z" fill-rule="evenodd"/></g></svg>