<svg fill="none" height="68" viewBox="0 0 38 68" width="38" xmlns="http://www.w3.org/2000/svg"><rect fill="#fff" height="58" rx="5.5" stroke="#000" width="29" x="4.5" y="5.5"/><g clip-rule="evenodd" fill="#000" fill-rule="evenodd"><path d="m21.934 27c.0945.8782-.2519 1.7609-.7665 2.395-.5147.6344-1.3594 1.1272-2.1863 1.0621-.1126-.8609.305-1.7591.7818-2.3203.5321-.6337 1.4292-1.1065 2.171-1.1368zm3.0629 11.0028c-.0883-.0364-1.9545-.8052-1.9749-3.0338-.0164-1.8585 1.4598-2.7718 1.5865-2.8502.0027-.0017.0062-.0039.0062-.0039-.8661-1.2903-2.2149-1.4675-2.6954-1.4879-.7021-.0724-1.3832.2011-1.9394.4244-.3532.1418-.656.2633-.8819.2633-.2519 0-.5633-.1256-.9126-.2667-.4574-.1846-.9799-.3955-1.5197-.3851-1.2514.0185-2.4043.7403-3.0494 1.8801-1.2987 2.2951-.3315 5.6952.9341 7.5575.6193.9104 1.3575 1.9359 2.3269 1.8985.4338-.0173.7422-.151 1.061-.2892.3677-.1594.7494-.3249 1.3535-.3249.5771 0 .942.1607 1.2929.3152.3351.1475.6574.2894 1.1394.2804 1.0043-.0189 1.6417-.9293 2.256-1.8431.6876-1.0228.9842-2.014 1.0174-2.1252.0012-.0037.0025-.0082.0025-.0082z"/><path d="m12 5v1.85837c0 .62918.4683 1.14163 1.0461 1.14163h12.9065c.5778 0 1.0474-.51103 1.0474-1.14163v-1.85837z"/></g></svg>