<svg fill="none" height="68" viewBox="0 0 84 68" width="84" xmlns="http://www.w3.org/2000/svg"><path d="m10 7.5h64c1.933 0 3.5 1.567 3.5 3.5v47c0 1.933-1.567 3.5-3.5 3.5h-64c-1.933 0-3.5-1.567-3.5-3.5v-47c0-1.933 1.567-3.5 3.5-3.5z" fill="#fff" stroke="#000"/><g fill="#000"><path d="m42 46.9703c3.6583.2816 7.1846-1.4531 9.2414-4.5461 2.0567-3.093 2.329-7.0706.7135-10.4242h-9.2243c1.7467.0082 3.3357 1.03 4.0934 2.6322.7578 1.6023.5514 3.5042-.5315 4.8994z"/><path d="m42.5 41c2.4853 0 4.5-2.0147 4.5-4.5s-2.0147-4.5-4.5-4.5-4.5 2.0147-4.5 4.5 2.0147 4.5 4.5 4.5z"/><path d="m52 31.8656c-1.6528-3.365-4.9468-5.5891-8.652-5.8416-3.7051-.2526-7.2642 1.5044-9.348 4.6148l4.1969 7.3612c-.4422-1.4224-.194-2.9726.6694-4.181.8635-1.2083 2.2406-1.9326 3.714-1.9534z"/><path d="m33.7709 31c-2.0657 3.0352-2.3439 6.9214-.7311 10.2121s4.875 5.4933 8.5727 5.7879l4.3875-7.3563c-1.0801 1.2895-2.7856 1.9-4.4542 1.5942-1.6685-.3058-3.0371-1.4796-3.5741-3.0655z"/></g><path d="m42 46.9703c3.6583.2816 7.1846-1.4531 9.2414-4.5461 2.0567-3.093 2.329-7.0706.7135-10.4242h-9.2243c1.7467.0082 3.3357 1.03 4.0934 2.6322.7578 1.6023.5514 3.5042-.5315 4.8994z" stroke="#fff"/><path d="m42.5 41c2.4853 0 4.5-2.0147 4.5-4.5s-2.0147-4.5-4.5-4.5-4.5 2.0147-4.5 4.5 2.0147 4.5 4.5 4.5z" stroke="#fff"/><path d="m52 31.8656c-1.6528-3.365-4.9468-5.5891-8.652-5.8416-3.7051-.2526-7.2642 1.5044-9.348 4.6148l4.1969 7.3612c-.4422-1.4224-.194-2.9726.6694-4.181.8635-1.2083 2.2406-1.9326 3.714-1.9534z" stroke="#fff"/><path d="m33.7709 31c-2.0657 3.0352-2.3439 6.9214-.7311 10.2121s4.875 5.4933 8.5727 5.7879l4.3875-7.3563c-1.0801 1.2895-2.7856 1.9-4.4542 1.5942-1.6685-.3058-3.0371-1.4796-3.5741-3.0655z" stroke="#fff"/><path d="m10 7.5h64c1.933 0 3.5 1.567 3.5 3.5v4.5h-71v-4.5c0-1.933 1.567-3.5 3.5-3.5z" fill="#fff" stroke="#000"/><path clip-rule="evenodd" d="m11.5 13c.8284 0 1.5-.6716 1.5-1.5s-.6716-1.5-1.5-1.5-1.5.6716-1.5 1.5.6716 1.5 1.5 1.5z" fill="#000" fill-rule="evenodd"/><path clip-rule="evenodd" d="m15.5 13c.8284 0 1.5-.6716 1.5-1.5s-.6716-1.5-1.5-1.5-1.5.6716-1.5 1.5.6716 1.5 1.5 1.5z" fill="#000" fill-rule="evenodd"/><path clip-rule="evenodd" d="m19.5 13c.8284 0 1.5-.6716 1.5-1.5s-.6716-1.5-1.5-1.5-1.5.6716-1.5 1.5.6716 1.5 1.5 1.5z" fill="#000" fill-rule="evenodd"/></svg>