<svg fill="none" height="68" viewBox="0 0 84 68" width="84" xmlns="http://www.w3.org/2000/svg"><path d="m10 8.5h64c1.933 0 3.5 1.567 3.5 3.5v39c0 1.933-1.567 3.5-3.5 3.5h-64c-1.933 0-3.5-1.567-3.5-3.5v-39c0-1.933 1.567-3.5 3.5-3.5z" fill="#fff" stroke="#000"/><path clip-rule="evenodd" d="m34.0432 37.2932c.5362-.1751.8042-.7995.6079-1.3558-.1128.6128-.5029 1.0121-1.081 1.1128-.1514.0263-.305.0397-.4587.0531-.1488.013-.2977.026-.4446.0507-.4139.0697-.5583.2577-.5151.679.025.2446.0862.487.1488.7256.127.4841.122.9435-.0857 1.418-.4322.9873-.2372 1.351.8142 1.5941.3428.0793.6869.1537 1.0309.2281.6028.1304 1.2055.2608 1.8016.4171.4016.1053.7939.2465 1.1862.3878.2258.0812.4517.1625.6794.237.5501.1801 1.0628.0912 1.5308-.2563.0954-.0708.1929-.1387.2905-.2066.0477-.0332.0954-.0665.1429-.1001.4966-.3508 1.0487-.5228 1.6534-.5324.0983-.0015.1965-.0074.2948-.0132.1171-.007.2342-.014.3513-.0136l.2836.0008c.9434.0027 1.8868.0055 2.8301.0215.304.0051.5392.1711.6843.4458.2529.479.6599.7223 1.1789.7761.579.06 1.1702.1022 1.6459-.327.8823-.7962 1.8171-1.5037 2.9144-1.9767.3075-.1326.5943-.32.8767-.5046l.0145-.0095c.1537-.1004.2937-.2341.4116-.3766.2295-.2776.2287-.5729-.0217-.8279-.1697-.1729-.3698-.3309-.5839-.4408-.6642-.3411-1.0399-.8812-1.1664-1.6123-.0206-.1186-.0389-.2376-.0608-.3791l-.0002-.0013-.0002-.0014c-.0111-.0721-.0231-.15-.0368-.2367-.2283.4626-.2037.8626-.1162 1.263.1196.5471.3951.9596.9599 1.1322.1941.0594.3813.1584.5548.2669.4749.2971.4925.6373.0206.9286-.3224.1989-.6772.3612-1.0372.4774-.9382.3027-1.7858.7545-2.5148 1.4279-.0793.0733-.164.143-.2543.2015-.541.3497-1.1182.5376-1.7094.1703-.5683-.3532-.6431-.9425-.5583-1.5504.1487-1.0665.2151-2.1183-.0739-3.1829-.1006-.3702-.0291-.8049.0369-1.1974.0301-.1789.2097-.4148.3721-.4687.2178-.0724.3382.126.4457.3033.016.0264.0318.0523.0475.0768.0386.06.069.1254.0995.1908.0114.0245.0228.049.0346.0731.329.6731.8121.902 1.5402.7439.4829-.1049.8049-.4219 1.0965-.7953.1035-.1327.2183-.2565.3331-.3804.0581-.0626.1161-.1253.1728-.1891.0373-.0421.0795-.0826.1217-.1232.0986-.0947.1974-.1897.2357-.3049.0887-.267.1451-.5645.1294-.8443-.1265-2.2525-.828-4.3119-2.3277-5.9907-1.5049-1.6847-2.2305-3.6254-2.1658-5.8517.0718-2.4708-1.3685-4.2826-3.7807-4.6081-2.1885-.2953-3.7743 1.1961-3.7762 3.1137-.0014 1.3326.0621 2.6657.1255 3.9979.0105.2212.0211.4429.0313.6641.0138.2991.0108.5765-.1504.8249-.1211.1866-.2392.3757-.3575.5649-.3219.5153-.6442 1.031-1.0257 1.4966-.6333.773-1.0515 1.639-1.3784 2.5667l-.072.205c-.257.7336-.5137 1.4663-.929 2.1323-.1069.1715-.1771.3806-.2105.5816-.0637.3828-.1214.7751.0618 1.1493.7529-.25.9779-.194 1.5454.3921.171.1766.3437.3578.4804.5612.1487.2211.2983.4417.448.6623.5595.8249 1.1192 1.6502 1.6321 2.5039.2667.4439.417.9815.5222 1.497.1359.6658-.2222 1.1448-.8742 1.3374-.5045.149-.9884.0378-1.4742-.0922l-.5439-.1459c-.792-.2126-1.5841-.4253-2.3787-.6274-.221-.0562-.445-.1002-.6691-.1443-.2276-.0447-.4554-.0895-.6799-.147-.5554-.1424-.6486-.3616-.4131-.8862.0567-.1262.1166-.251.1787-.3745.1868-.3716.1753-.7424.004-1.1156-.0186-.0406-.0376-.0812-.0566-.1217-.0691-.1475-.1383-.2953-.1912-.4487-.1956-.5667-.0049-.7835.5929-.766.3258.0094.6697-.025.978-.1256zm13.1606-7.8382c-.07-.1179-.1401-.2358-.2082-.3547 1.4526 1.4505 1.8895 3.196 1.4911 5.196l.1299.0884c.1561.106.3196.2171.4809.3307.0162.0114.0263.0319.0436.0672.0107.0217.0242.0492.0436.0837-.49-.2576-.9537-.3387-1.436-.256-.4108.0705-.739.2519-.8505.7059-.0149.0609-.1048.1305-.1716.1465-.5036.1209-.7577.3654-.8122.9068-.0392.3905-.0694.8038.0127 1.1811.2479 1.1391.0944 2.2446-.1615 3.3515-.0256.1109-.0475.2227-.0694.3351-.0102.0518-.0203.1038-.0309.1559-.2775.0003-.3489-.1589-.3043-.3712.0263-.1248.0641-.2473.1019-.3698.0439-.1423.0879-.2846.1135-.4302.0715-.4057.1207-.8168.1513-1.2278.0055-.074-.0375-.1518-.0805-.2296-.0198-.0357-.0396-.0715-.0546-.1068-.0321.0208-.0677.0392-.1033.0577-.0764.0397-.153.0794-.1953.1426-.9753 1.454-2.4284 1.5529-3.948 1.4008-.2981-.0298-.6032-.2242-.8559-.4107-.2259-.1666-.3594-.1232-.5277.047.0509.0903.1081.1795.1652.2686.2817.4396.5614.8761.082 1.4325.0495-.9-.4238-1.5831-.9288-2.2796.0329-.0119.0605-.0221.0848-.0311.0445-.0164.0776-.0287.1112-.0397.6767-.2227.8523-1.012.3139-1.4822-.2602-.2271-.5296-.4435-.799-.6599-.2294-.1843-.4589-.3686-.6828-.5597l-.0129-.011c-.5494-.4688-1.0998-.9385-1.6209-1.4386-.3824-.3669-.4605-.8895-.517-1.3896-.0281-.2486.0079-.5067.0433-.7603.0057-.0408.0114-.0816.0167-.1221.0103-.0773.0505-.1506.0945-.2309.0212-.0387.0433-.079.0634-.1222 0 .1379-.0055.2727-.0108.4047-.0119.2932-.0232.5723.0272.8393.0591.3127.2086.6106.3554.9029.025.0499.0501.0998.0745.1494.038.0773.2012.1388.2946.1248.0644-.0097.1456-.1585.1538-.2512.0298-.3342.0449-.6711.0423-1.0068-.011-1.3683.553-2.5308 1.2616-3.6422.0419-.0658.0949-.1244.1547-.1904.03-.0331.0618-.0682.0947-.107-.2996-.5856-.0876-1.1522.2083-1.7078.0388-.0727.0785-.145.1184-.2174.2409-.4383.4838-.8803.5158-1.4345.0243.0281.0492.0558.074.0836.0546.0609.1091.1218.1586.1867.0753.0989.1479.2001.2205.3013.1404.1957.2808.3914.4403.5695.2993.3344.579.3744.979.1713.142-.072.2753-.1618.4087-.2516.0625-.0421.1251-.0842.1886-.1245.5129-.3258 1.026-.6513 1.5393-.9767.0266-.0168.0542-.0325.0819-.0481.0583-.0331.1165-.0661.1649-.1103.0426-.0389.0886-.1383.0692-.1685-.0351-.0544-.1266-.1174-.1793-.1058-.1504.0328-.2992.0888-.4377.1581-.1452.0727-.2883.1506-.4313.2286-.2624.143-.5247.286-.7999.3961-.2829.1131-.6056.1486-.9135.1679-.4086.0256-.6861-.2189-.9371-.5754.0389 0 .0731-.0015.1042-.0028.0586-.0024.1059-.0044.1511.0046.5876.1164 1.1477.0226 1.6949-.2058.2833-.1183.5677-.2337.8522-.3491.269-.1091.538-.2183.806-.3298.0782-.0326.1723-.0816.2065-.1499.0302-.0602.0136-.1862-.0322-.2307-.0391-.0381-.1764-.0341-.2235.0066-.8964.7747-1.9802.916-3.0957.9426-.277.0067-.5054-.1209-.6884-.3411-.1186-.1428-.2478-.2887-.4011-.3872-.2507-.161-.2259-.344-.0942-.5521.0464-.0733.1134-.1362.1799-.1933.1225-.1053.2459-.2095.3694-.3137.1892-.1597.3785-.3196.5644-.4831.0519-.0456.1061-.1352.098-.1961-.0336-.2519-.0685-.5079-.146-.748-.0636-.1969-.252-.3098-.447-.2469-.1596.0514-.3489.1645-.4217.3051-.2004.3868-.0109.9.4072 1.1415-.0299.025-.0582.0535-.0857.0811-.0613.0617-.1185.1192-.1805.125-.0657.0062-.1721-.1165-.2129-.2043-.2621-.5642-.3168-1.1402-.042-1.7191.1234-.2598.287-.4839.6081-.4857.3301-.0018.5234.2129.6367.4902.0885.2167.1391.452.1836.6834.0241.1256.0318.2543.04.3902.0037.0624.0075.1263.0131.192l1.0656.0777-.0372-.4428c-.0642-.774.248-1.2857.8983-1.4723.5196-.1492 1.0088.0534 1.2787.5295.2816.4968.3025 1.0402.2383 1.5851-.0131.1111-.1751.2582-.2949.2917-.2819.0788-.39-.0632-.2781-.3394.1248-.3077.0939-.602-.0428-.8901-.1381-.291-.3792-.4195-.6926-.394-.2997.0244-.4515.2213-.5305.4819-.0451.149-.0593.3107-.0667.4677-.0133.2765.0544.487.3673.5847.2276.0711.4479.1654.6684.2598.1479.0633.2959.1266.4462.183.3506.1316.461.3077.3855.6839-.026.1293-.0597.257-.0934.3847l-.0199.0761c-.1158.4428-.0317.8573.2375 1.2102.5455.7153.8407 1.5345 1.0536 2.3966.0227.0919.077.1763.1309.26.0197.0308.0395.0615.0576.0924.0563.0965.1173.191.1783.2855.1264.1958.2527.3915.3376.6041.3509.8792.5344 1.7989.542 2.7515.0021.2672.0118.5352.0367.801.0246.2617.0694.5238.4003.5728.3724.0552.696-.097.8188-.4273.0816-.2192.1323-.4575.1534-.6912.1015-1.1259-.2414-2.1529-.7302-3.1381-.1338-.2697-.2879-.5292-.442-.7886zm-6.7526-6.0532.1324-.0429c-.0135-.0447-.0268-.0895-.04-.1344-.0427-.1445-.0854-.289-.1383-.4295-.0065-.0172-.0594-.0164-.1022-.0158-.017.0002-.0324.0004-.0427-.0005zm3.3309-.2053c.128-.2958-.0345-.5271-.34-.5076z" fill="#000" fill-rule="evenodd"/><path d="m33 59h21v1h-21z" fill="#000"/><path d="m40.5 54.5h6v5h-6z" fill="#fff" stroke="#000"/></svg>