<svg fill="none" height="68" viewBox="0 0 84 68" width="84" xmlns="http://www.w3.org/2000/svg"><path d="m10 7.5h64c1.933 0 3.5 1.567 3.5 3.5v47c0 1.933-1.567 3.5-3.5 3.5h-64c-1.933 0-3.5-1.567-3.5-3.5v-47c0-1.933 1.567-3.5 3.5-3.5z" fill="#fff" stroke="#000"/><path d="m40.8858 40.37c-.69-.77-1.16-1.69-1.31-2.72-.3.46-.55.96-.73 1.5-.92 2.75.68 6.18 3.4 7.18 2.34.78 4.97-.61 6.7-2.13.26-.35 2.31-2.16 1.29-2.36-3.02 1.55-7.02 1.11-9.35-1.47zm.6-5.81c1.04-.01.04-.43-.39-.75-1.04-.57-2.26-.85-3.44-.85-3.85.04-6.635 2.45-5.33 6.44.94 3.88 4.31 7 8.29 7.5-2.05-1.29-3.29-3.71-3.29-6.12.08-2.53 1.64-5.5 4.16-6.22zm-8.68-1.32c3.04-2.24 7.88-2.06 10.5.76 1.02 1.11 1.72 3 .79 4.37-1.74 1.88 3.08 2.13 4.11 1.85 3.74-.72 4.73-5.07 2.95-8.07-1.7-3.4-5.47-5.18-9.17-5.15-4.06-.07-7.71 2.5-9.18 6.24z" fill="#000"/><path d="m10 7.5h64c1.933 0 3.5 1.567 3.5 3.5v4.5h-71v-4.5c0-1.933 1.567-3.5 3.5-3.5z" fill="#fff" stroke="#000"/><g clip-rule="evenodd" fill="#000" fill-rule="evenodd"><path d="m11.5 13c.8284 0 1.5-.6716 1.5-1.5s-.6716-1.5-1.5-1.5-1.5.6716-1.5 1.5.6716 1.5 1.5 1.5z"/><path d="m15.5 13c.8284 0 1.5-.6716 1.5-1.5s-.6716-1.5-1.5-1.5-1.5.6716-1.5 1.5.6716 1.5 1.5 1.5z"/><path d="m19.5 13c.8284 0 1.5-.6716 1.5-1.5s-.6716-1.5-1.5-1.5-1.5.6716-1.5 1.5.6716 1.5 1.5 1.5z"/></g></svg>