<svg fill="none" height="68" viewBox="0 0 84 68" width="84" xmlns="http://www.w3.org/2000/svg"><path d="m37.5475 62.5.9091-10h8.0868l.9091 10z" fill="#fff" stroke="#000"/><path d="m32 62h21v1h-21z" fill="#000"/><path d="m10 6.5h64c1.933 0 3.5 1.567 3.5 3.5v44c0 1.933-1.567 3.5-3.5 3.5h-64c-1.93299 0-3.5-1.567-3.5-3.5v-44c0-1.933 1.567-3.5 3.5-3.5z" fill="#fff" stroke="#000"/><path d="m10 6.5h64c1.933 0 3.5 1.567 3.5 3.5v40.5h-71v-40.5c0-1.933 1.567-3.5 3.5-3.5z" fill="#fff" stroke="#000"/><path clip-rule="evenodd" d="m45.6565 17c.1339 1.2881-.3568 2.5827-1.0859 3.5126-.7292.9306-1.9258 1.6533-3.0972 1.5578-.1596-1.2626.432-2.58 1.1076-3.403.7538-.9295 2.0246-1.6229 3.0755-1.6674zm4.3392 16.1374c-.1252-.0534-2.769-1.1809-2.7978-4.4495-.0232-2.7258 2.068-4.0654 2.2475-4.1803.0038-.0025.0067-.0043.0088-.0057-1.227-1.8925-3.1378-2.1524-3.8186-2.1822-.9946-.1062-1.9595.2948-2.7475.6223-.5003.208-.9292.3863-1.2492.3863-.357 0-.7981-.1843-1.2929-.3912-.648-.2708-1.3883-.5802-2.1529-.5648-1.7728.0271-3.4061 1.0857-4.32 2.7574-1.8398 3.3662-.4697 8.353 1.3232 11.0843.8774 1.3353 1.9232 2.8393 3.2965 2.7845.6146-.0254 1.0514-.2215 1.5031-.4242.521-.2338 1.0617-.4764 1.9175-.4764.8175 0 1.3345.2356 1.8316.4622.4747.2164.9312.4245 1.6141.4113 1.4227-.0277 2.3258-1.3629 3.1961-2.7032.9741-1.5001 1.3942-2.9539 1.4413-3.117.0016-.0054.0028-.0094.0035-.0119 0 0-.002-.0009-.0043-.0019z" fill="#000" fill-rule="evenodd"/></svg>