<svg fill="none" height="68" viewBox="0 0 84 68" width="84" xmlns="http://www.w3.org/2000/svg"><path d="m10 7.5h64c1.933 0 3.5 1.567 3.5 3.5v47c0 1.933-1.567 3.5-3.5 3.5h-64c-1.933 0-3.5-1.567-3.5-3.5v-47c0-1.933 1.567-3.5 3.5-3.5z" fill="#fff" stroke="#000"/><path clip-rule="evenodd" d="m52 35.519c0 5.216-3.6393 9.5303-8.3979 10.3355l-.1518.0236c-.25.038-.5019.0675-.7575.0859l-.6919.036-.3281-.017-.3018-.002-.2125-.0256c-.16-.0144-.3182-.0353-.4763-.057-.2137-.0281-.4268-.0596-.635-.1015l-.2068-.0485c-1.005-.2267-1.9475-.608-2.8243-1.1525-1.22-.7377-2.2737-1.7368-3.0987-2.9247l-.055-.0688-.0343-.0563c-1.1475-1.7061-1.8275-3.7824-1.8275-6.0284l.1831.2195.0169-.2896c.0713-.6329.2119-1.2297.4238-1.7925l-.5838.5031c-.0212-.0785-.0231-.1663-.025-.2533l-.0156.026.0087-.0989-.0012-.0125.0025-.0046c.0269-.3767.1187-.8091.3919-1.3241.19-.3643.3406-.6355.4499-.8151l.01-.0216.0044-.0046.0106-.0104.0532-.038.2062-.327c-.0231-1.9269.3256-3.2615 1.0456-4.009.1838 1.2795.565 2.0625 1.1306 2.335l-.0032.0034c.8981-.3625 1.6783-.4159 2.3369-.1626.7949-.8078 1.6893-1.275 2.678-1.404-.5318.3773-.8937.7305-1.0825 1.0594l-.0424.04c-.1882.3341-.32.7233-.4 1.176l-.0469.0347.0331.0361-.005.0242h.005v-.019l.1738.1435.5793.5975c.2263.2293.41.365.5556.4095l.005-.0151c.3525.0741.7062.0996 1.0594.0793.1687.1101.2018.2346.1031.3892l-.0188.019-.005.0052-.0137.0105c-.0325.1946-.1313.3388-.3006.4338-.3819.2286-.8288.587-1.3325 1.0797v.0105c.3244.5824.4425 1.1505.3525 1.693-.5362-.1638-1.0118-.2634-1.4262-.3034l-.1569-.0137.1556.0137c-.3668.0603-.5593.3289-.5774.8164v.0052c-.0707.5576.0087 1.2757.2487 2.1575l.005.0105-.005-.0118c-.2394-.8819-.3194-1.598-.2487-2.1562l.15.2326c.3774.4927.7681.8871 1.1724 1.18.6175.418 1.2519.4337 1.9112.0406.6925-.4632 1.3562-.5182 1.9918-.1703.2913.1749.5181.3734.6681.5923.1038.2941-.005.4684-.315.513-.1512-.0741-.3062-.0793-.4712-.0138l.005.0039-1.2706.8727c-.7756.4148-1.6568.5904-2.6218.5058.6181.6591 1.3125 1.1237 2.08 1.3956.5224.1808 1.0781.2738 1.6662.2791 1.488-.059 2.8155-1.0149 3.9823-2.8638.0425.4442-.0325 1.007-.2212 1.6943.9931-1.1263 1.3562-2.854 1.0868-5.1904.1932.1599.41.6133.6456 1.3694.3432-1.1355.3013-2.5749-.1231-4.3177.3444.1101.6131.3289.815.663.0662-1.2684-.8025-2.2518-1.7387-2.9411-.0306-.0216-.0607-.0434-.0909-.0651-.0855-.0616-.1711-.1233-.2672-.1838l-.0438-.0282c-.5068-.3132-1.1024-.6133-1.7893-.9002.5637-.2863 1.3093-.0996 1.3093-.0996-.7293-1.1577-2.2786-1.3294-2.2786-1.3294 4.4055-.0589 6.1935 2.4563 6.9198 4.4992-.0125-.1822-.0375-.3833-.08-.6244.1737.5261.2993 1.0954.3849 1.7008.1807.8301.1913 1.425.1919 1.4696.0769-.1382.1531-.4829.2231-1.0535.1956.7705.2206 1.6536.0782 2.6449zm-16.7471-5.8717-.063.0485.0081-.0046zm14.6684 3.5229.0044-.0858-.0013-.0007z" fill="#000" fill-rule="evenodd"/><path d="m10 7.5h64c1.933 0 3.5 1.567 3.5 3.5v4.5h-71v-4.5c0-1.933 1.567-3.5 3.5-3.5z" fill="#fff" stroke="#000"/><g clip-rule="evenodd" fill="#000" fill-rule="evenodd"><path d="m11.5 13c.8284 0 1.5-.6716 1.5-1.5s-.6716-1.5-1.5-1.5-1.5.6716-1.5 1.5.6716 1.5 1.5 1.5z"/><path d="m15.5 13c.8284 0 1.5-.6716 1.5-1.5s-.6716-1.5-1.5-1.5-1.5.6716-1.5 1.5.6716 1.5 1.5 1.5z"/><path d="m19.5 13c.8284 0 1.5-.6716 1.5-1.5s-.6716-1.5-1.5-1.5-1.5.6716-1.5 1.5.6716 1.5 1.5 1.5z"/></g></svg>