<svg fill="none" height="67" viewBox="0 0 174 67" width="174" xmlns="http://www.w3.org/2000/svg"><g clip-rule="evenodd" fill="#333" fill-rule="evenodd"><path d="m3.16763 16 3.72681 6.3427-6.532746 6.3325h11.294406l1.0617-2.538h-6.23184l3.77084-3.8113-2.20261-3.7887h10.27611l-9.02109 21.6584h3.09099l10.0871-24.1956z"/><path d="m143.172 30.1146h3.017v14.1141h-3.017z"/><path d="m143.172 26.0817h3.017v3.0245h-3.017z"/><path d="m139.472 26.0817-3.25 14.8802h-.118l-3.368-10.0398h-2.338l-3.844 10.0398h-.118l-2.576-14.8802h-2.813l3.525 19.1549h2.616l4.161-10.6055h.118l3.608 10.6055h2.614l4.478-19.1549z"/><path d="m102.938 42.0049c-2.544 0-4.2922-1.9571-4.2922-4.7951 0-2.6461 1.5102-4.9102 3.9742-4.9102 2.822 0 3.577 2.3023 3.657 3.722h-4.878l-.914 2.0714h8.454c.039-.538.039-.6905.039-.9595 0-3.9126-2.026-7.0189-6.398-7.0189-3.7755 0-6.676 2.9905-6.676 7.0952 0 4.2197 2.7807 7.0189 6.755 7.0189 2.386 0 4.491-.8429 5.764-2.3389l-1.59-1.4967c-1.033 1.0364-2.385 1.6118-3.895 1.6118z"/><path d="m92.2833 29.99c0-1.7303.8449-2.7141 2.4542-2.7141.6039 0 1.5693.1578 2.3338.4336l.8441-1.9279c-1.0457-.5111-2.2928-.7081-3.2582-.7081-2.6959 0-5.0289 1.3372-5.0289 4.9165v.433h-1.77v2.203h1.77v11.6024h2.655v-11.6024h2.6952l.9259-2.203h-3.6211z"/><path d="m68.476 30.1146c-1.7409 0-3.3238.6638-4.1153 2.0281h-.1177v-1.7547h-2.5331v13.8407h2.6113v-7.4844c0-2.73 1.3854-4.3684 3.5623-4.3684 2.0561 0 3.2835 1.0916 3.2835 3.6256v8.2272h2.6114v-8.6944c0-3.5086-2.0569-5.4197-5.3024-5.4197z"/><path d="m56.1176 38.7208c0 2.0262-1.7297 3.3272-4.1436 3.3272-1.4479 0-2.6949-.6498-2.6949-2.2571 0-1.4904 1.2872-2.4851 3.2586-2.4851 1.7698 0 2.9366.3055 3.5799.7645zm-3.7413-8.6062c-1.5683 0-3.0571.2288-4.183.6498l.4425 2.067c1.2872-.383 2.3328-.5365 3.3791-.5365 2.2525 0 4.1027.9948 4.1027 3.2132v.3822c-.7236-.2668-1.8502-.6117-3.4996-.6117-3.6208 0-5.9937 1.7593-5.9937 4.6282 0 2.9836 2.3328 4.3219 4.9474 4.3219 2.1729 0 3.6609-.8406 4.4261-1.8361h.1198v1.5693h2.5752v-8.4918c0-3.7095-2.4942-5.3555-6.3165-5.3555z"/><path d="m23.493 26.0817v2.5817h6.0998v16.5732h2.886v-16.5732h6.0998v-2.5817z"/><path d="m46.6243 30.5086c-.88-.3548-1.8436-.394-2.3889-.394-1.5508 0-3.0582.5914-3.8553 1.6545h-.1255v-1.5362h-2.6817v13.9958h2.7662v-7.6485c0-2.957 1.5081-4.1399 3.7289-4.1399.7545 0 1.2572.0791 1.9281.2366z"/><path d="m120.041 30.5485c-.864-.3541-1.81-.4339-2.346-.4339-1.521 0-3.167.5914-3.948 1.6567h-.125v-1.5384h-2.632v13.9958h2.716v-7.6477c0-2.9571 1.645-4.1392 3.825-4.1392.741 0 1.235.0776 1.893.2358z"/><path d="m167.303 42.0049c-2.544 0-4.291-1.9571-4.291-4.7951 0-2.6461 1.51-4.9102 3.973-4.9102 2.823 0 3.577 2.3023 3.657 3.722h-4.878l-.914 2.0714h8.455c.039-.538.039-.6905.039-.9595 0-3.9126-2.027-7.0189-6.398-7.0189-3.776 0-6.677 2.9905-6.677 7.0952 0 4.2197 2.782 7.0189 6.756 7.0189 2.385 0 4.491-.8429 5.763-2.3389l-1.59-1.4967c-1.033 1.0364-2.384 1.6118-3.895 1.6118z"/><path d="m81.9902 36.1364c-2.0668-.269-3.2826-.653-3.2826-1.9569 0-1.1889 1.2158-1.9174 2.7155-1.9174 1.215 0 2.7552.461 3.7268 1.1514l1.2974-1.8418c-1.215-.9594-3.1604-1.4571-4.9845-1.4571-3.12 0-5.4303 1.803-5.4303 4.1799 0 2.7243 1.8241 3.606 4.9044 4.0663 1.7424.2683 3.2414.4603 3.2414 1.8793 0 1.1888-1.2166 1.8411-2.8361 1.8411-1.5806 0-2.9994-.4222-4.3778-1.4578l-1.1746 2.0324c1.0128.8825 3.1208 1.5729 5.4707 1.5729 3.2422 0 5.5921-1.8023 5.5921-4.2188 0-2.9148-2.4308-3.5664-4.8624-3.8735z"/><path d="m154.4 36.1364c-2.067-.269-3.283-.653-3.283-1.9569 0-1.1889 1.216-1.9174 2.717-1.9174 1.215 0 2.756.461 3.727 1.1514l1.298-1.8425c-1.216-.9587-3.161-1.4564-4.985-1.4564-3.121 0-5.43 1.8023-5.43 4.1799 0 2.7236 1.823 3.6053 4.902 4.0656 1.744.269 3.244.4603 3.244 1.8793 0 1.1888-1.216 1.8418-2.838 1.8418-1.58 0-2.999-.4222-4.377-1.4585l-1.174 2.0339c1.012.8817 3.119 1.5721 5.471 1.5721 3.241 0 5.592-1.803 5.592-4.2188 0-2.9148-2.432-3.5671-4.864-3.8735z"/></g></svg>