<svg fill="none" height="67" viewBox="0 0 55 67" width="55" xmlns="http://www.w3.org/2000/svg"><path clip-rule="evenodd" d="m.471802 14.6781h8.260898v22.3744c0 3.5408 1.6049 5.65 2.874 6.5541-1.3436 1.2054-5.44928 2.2601-8.50988-.3014-1.80443-1.5099-2.625018-3.9927-2.625018-6.3282zm51.627298 18.5859v-2.3514h2.5195v-8.249h-2.7668c-1.0622-4.9525-5.4312-8.6636-10.6562-8.6636-6.0192 0-10.8986 4.9245-10.8986 10.9989v19.2639c1.7149.2432 3.7579-.0302 5.496-1.4849 1.8042-1.5101 2.6248-3.9926 2.6248-6.3281v-.7097h4.1258v-8.249h-4.1258v-2.4922h.0099c0-1.5426 1.2391-2.7932 2.7679-2.7932 1.5285 0 2.7726 1.2506 2.7726 2.7932v8.2651c0 6.0743 4.8845 10.9988 10.9035 10.9988v-8.2057c-1.5285 0-2.7726-1.2506-2.7726-2.7931zm-31.287-10.6004v12.1063c0 .6873-.565 1.2445-1.2622 1.2445s-1.2622-.5572-1.2622-1.2445v-12.1063h-8.1741v14.2383c0 2.5612.8608 5.8006 4.7777 6.8553 3.921 1.0559 6.1956-1.1299 6.1956-1.1299-.2072 1.44-1.551 2.4947-3.7157 2.7208-1.6379.1708-3.7325-.3767-4.7774-.8287v7.5434c2.6624.7924 5.4784 1.0484 8.2343.5087 5.0013-.9793 8.1578-5.198 8.1578-10.8106v-19.0973z" fill="#333" fill-rule="evenodd"/></svg>