<svg fill="none" height="67" viewBox="0 0 152 67" width="152" xmlns="http://www.w3.org/2000/svg"><g clip-rule="evenodd" fill="#333" fill-rule="evenodd"><path d="m33.5212 40.9091c-3.0546.0184-5.8187-1.8074-7.0005-4.6242-1.1817-2.8168-.5477-6.0682 1.6057-8.2347s5.4009-2.8202 8.2248-1.6555c2.8239 1.1646 4.6665 3.9176 4.6665 6.9723.0069 4.1504-3.3461 7.5238-7.4965 7.5421zm0-17.909c-4.1928-.0218-7.9849 2.4871-9.6045 6.3545-1.6197 3.8674-.7472 8.3298 2.2099 11.3023 2.9571 2.9726 7.4149 3.8683 11.2906 2.2689 3.8758-1.5995 6.4045-5.3784 6.4045-9.5713.0001-5.6976-4.603-10.3247-10.3005-10.3544z"/><path d="m70.0028 24.1504c-.0934.0008-.1796.0481-.2277.1251l-10.4216 13.6204-10.4215-13.6204c-.0488-.0781-.1369-.1257-.2318-.1251-.1511 0-.2742.1166-.2765.2619v18.1462h2.7569v-10.7166l8.0103 10.3961c.0402.0465.0998.0733.1626.0733.0629 0 .1225-.0268.1627-.0733l8.0103-10.3961v10.7166h2.7568v-18.1462c-.001-.0705-.0312-.1377-.0838-.1868s-.1234-.0761-.1967-.0751z"/><path d="m87.3053 33.3034h-6.27v-6.4877h6.27c1.8169 0 3.2897 1.4506 3.2897 3.2399 0 1.7894-1.4728 3.24-3.2897 3.24m0-9.1452h-8.9684v18.4081h2.6905v-6.5894h6.2699c3.3116 0 5.9962-2.644 5.9962-5.9055s-2.6846-5.9054-5.9962-5.9054"/><path d="m10.5334 40.8968c-3.55364.0199-6.64329-2.4231-7.42904-5.8742-.78575-3.451.94372-6.982 4.15848-8.4902 3.21476-1.5081 7.05026-.5878 9.22226 2.2129l2.0255-1.9921c-2.7953-3.3631-7.4087-4.619-11.53345-3.1398-4.12477 1.4793-6.874611 5.3759-6.874611 9.7415s2.749841 8.2622 6.874611 9.7415c4.12475 1.4793 8.73815.2234 11.53345-3.1398l-2.0255-1.9921c-1.4163 1.848-3.6172 2.9324-5.9517 2.9323z"/><path d="m127.575 31.0656-2.129-.4731c-2.288-.481-2.46-2.0043-2.46-2.4814 0-1.5433 1.259-2.4293 3.453-2.4293 2.255 0 3.903 1.4953 4.408 2.0044l1.956-1.8801c-1.837-1.8841-3.916-2.8061-6.364-2.8061-3.728 0-6.233 2.0485-6.233 5.0991 0 .9701 0 3.9205 5.011 5.1272l2.329.5371c2.161.5813 3.21 1.6035 3.21 3.1188 0 1.7759-1.75 3.0146-4.252 3.0146-2.677 0-4.326-1.7999-4.818-2.4052l-1.931 1.86c1.316 1.4672 3.563 3.207 6.778 3.207 4.006 0 7.028-2.4453 7.028-5.6844 0-2.9023-2.05-4.9147-5.966-5.8167"/><path d="m144.849 31.0623-2.129-.4729c-2.288-.4808-2.46-2.0035-2.46-2.4804 0-1.5427 1.259-2.4283 3.453-2.4283 2.255 0 3.903 1.4947 4.404 2.0036l1.96-1.8793c-1.837-1.8834-3.92-2.805-6.364-2.805-3.728 0-6.233 2.0476-6.233 5.097 0 .9697 0 3.9189 5.011 5.1251l2.341.5249c2.157.581 3.207 1.6028 3.207 3.1175 0 1.7752-1.747 3.0133-4.248 3.0133-2.678 0-4.33-1.7991-4.818-2.4042l-1.96 1.8793c1.316 1.4666 3.563 3.2057 6.778 3.2057 4.006 0 7.028-2.4443 7.028-5.6821 0-2.9011-2.051-4.9126-5.966-5.8142"/><path d="m101.628 35.241 3.173-5.7332 3.176 5.7332zm3.173-11.0906c-.109.0009-.208.0612-.254.1549l-10.1031 18.2532h3.1361l2.584-4.6757h9.269l2.588 4.6757h3.132l-10.099-18.2532c-.047-.0931-.145-.1531-.253-.1549z"/><path d="m28.8652 35.8921 2.063 2.0644 7.141-7.1397-2.0673-2.0643z"/></g></svg>