<svg fill="none" height="67" viewBox="0 0 125 67" width="125" xmlns="http://www.w3.org/2000/svg"><path d="m17.8134 47.8729c-1.8352.3226-3.7027.4193-5.6346.6768l-5.89245-17.2733v18.0147c-1.83524.1933-3.50953.4511-5.24826.7089v-33h4.89429l6.69712 18.7239v-18.7239h5.1839zm10.1426-18.7879c1.9964 0 5.0553-.0967 6.8905-.0967v5.1561c-2.2862 0-4.9585 0-6.8905.0967v7.6701c3.0268-.1933 6.0534-.4514 9.1121-.5481v4.9626l-14.264 1.1282v-30.4539h14.264v5.1563h-9.1121zm28.2702-6.9286h-5.3449v23.7187c-1.7388 0-3.4775 0-5.1515.0643v-23.783h-5.3449v-5.1564h15.8415zm8.3715 6.5742h7.0516v5.1561h-7.0516v11.6984h-5.0555v-28.5851h14.3932v5.1563h-9.3377zm17.7092 12.3426c2.9301.0643 5.8922.2903 8.758.4511v5.0919c-4.6043-.2902-9.2087-.5799-13.9097-.6768v-28.9394h5.1517zm13.1047 5.8975c1.6422.0968 3.3809.1935 5.0554.3866v-30.3573h-5.0554zm27.6264-29.9707-6.536 15.6944 6.536 17.3056c-1.932-.2578-3.864-.6123-5.796-.9346l-3.703-9.5389-3.766 8.7657c-1.868-.3226-3.671-.4193-5.539-.6771l6.633-15.1143-5.989-15.5008h5.538l3.381 8.669 3.606-8.669z" fill="#333"/></svg>