<svg fill="none" height="67" viewBox="0 0 150 67" width="150" xmlns="http://www.w3.org/2000/svg"><g fill="#333"><path d="m58.1152 23.2537c0-1.2459 1.0057-2.2537 2.2436-2.2537 1.2422 0 2.2517 1.0078 2.2517 2.2537 0 1.2443-1.0095 2.2532-2.2517 2.2532-1.2379 0-2.2436-1.0089-2.2436-2.2532z"/><path d="m93.5821 38.244c0-1.2465 1.0051-2.2553 2.243-2.2553 1.2417 0 2.2511 1.0088 2.2511 2.2553 0 1.2433-1.0094 2.2532-2.2511 2.2532-1.2379 0-2.243-1.0099-2.243-2.2532z"/><path d="m21.2228 37.2699c-1.9359 0-3.2813-1.5375-3.2813-3.7346 0-2.1966 1.3454-3.7331 3.2813-3.7331 1.9471 0 3.3073 1.5365 3.3073 3.7331 0 2.2318-1.3319 3.7346-3.3073 3.7346zm0-10.7499c-4.0957 0-7.0682 2.9511-7.0682 7.0153 0 4.0641 2.9725 7.0148 7.0682 7.0148 4.1112 0 7.0959-2.9507 7.0959-7.0148 0-4.0642-2.9847-7.0153-7.0959-7.0153z"/><path d="m53.7615 33.8861c-.1592-.2996-.3418-.5533-.5362-.7546l-.1238-.1314.1303-.1249c.188-.1982.3802-.4332.5655-.7055l3.6144-5.3731h-4.3877l-2.7157 4.203c-.1537.2253-.4641.3391-.9287.3391h-.619v-7.9462c0-1.5893-.9901-1.8056-2.0597-1.8056h-1.8313l.0031 18.7565h3.8879v-5.6263h.3643c.4431 0 .745.0513.8834.2921l2.1447 4.0482c.5991 1.0985 1.1962 1.286 2.3194 1.286h2.9795l-2.2191-3.6706z"/><path d="m72.6358 26.49c-1.9776 0-3.2395.8785-3.9466 1.6214l-.2361.2387-.0833-.3247c-.2077-.7957-.9078-1.2336-1.9615-1.2336h-1.7425l.0109 13.5468h3.8615v-6.2437c0-.6104.0794-1.1402.2408-1.6235.4298-1.4628 1.6288-2.3723 3.1274-2.3723 1.2053 0 1.6763.6361 1.6763 2.2799v5.9002c0 1.403.6489 2.0594 2.0529 2.0594h1.8376l-.0062-8.6159c0-3.4233-1.6707-5.2327-4.8312-5.2327z"/><path d="m60.4099 26.7977h-1.8303l.0125 10.4744-.0012 3.0697h1.9536c.0246 0 .0443.0026.0689.0026l.91-.0026h.9058v-.0053h.0063l.0078-11.4822c0-1.3853-.6623-2.0566-2.0321-2.0566"/><path d="m36.3904 37.2699c-1.9358 0-3.2838-1.5375-3.2838-3.7346 0-2.1966 1.348-3.7331 3.2838-3.7331 1.943 0 3.3069 1.5365 3.3069 3.7331 0 2.2318-1.3313 3.7346-3.3069 3.7346zm0-10.7499c-4.0998 0-7.0729 2.9511-7.0729 7.0153 0 4.0641 2.9731 7.0148 7.0729 7.0148 4.1069 0 7.0966-2.9507 7.0966-7.0148 0-4.0642-2.9897-7.0153-7.0966-7.0153z"/><path d="m119.161 37.2699c-1.935 0-3.284-1.5375-3.284-3.7346 0-2.1966 1.349-3.7331 3.284-3.7331 1.943 0 3.308 1.5365 3.308 3.7331 0 2.2318-1.332 3.7346-3.308 3.7346zm0-10.7499c-4.099 0-7.072 2.9511-7.072 7.0153 0 4.0641 2.973 7.0148 7.072 7.0148 4.107 0 7.096-2.9507 7.096-7.0148 0-4.0642-2.989-7.0153-7.096-7.0153z"/><path d="m85.609 36.6739c-2.1111 0-2.8625-1.8419-2.8625-3.568 0-.7605.1923-3.239 2.6597-3.239 1.2262 0 2.8603.3514 2.8603 3.3667 0 2.8438-1.4462 3.4403-2.6575 3.4403zm4.6624-9.9125c-.7328 0-1.2967.2921-1.5793.8256l-.1067.2072-.179-.1554c-.6233-.5394-1.7408-1.1792-3.5556-1.1792-3.6108 0-6.0418 2.7119-6.0418 6.7478 0 4.031 2.5153 6.8481 6.1144 6.8481 1.2293 0 2.2009-.2868 2.9709-.8699l.298-.2238v.3765c0 1.8094-1.1701 2.8075-3.2913 2.8075-1.0308 0-1.9691-.251-2.5965-.4785-.8194-.2472-1.2995-.0427-1.6317.7792l-.3065.7584-.4337 1.1076.2687.1431c1.3576.7204 3.1247 1.1504 4.7221 1.1504 3.2886 0 7.1285-1.6834 7.1285-6.4204l.014-12.4242z"/><path d="m6.84167 37.1145-3.14336-.0031v-3.7581c0-.8033.31138-1.2209.99969-1.317h2.14367c1.53004 0 2.51864.965 2.51973 2.526-.00109 1.6022-.96511 2.5512-2.51973 2.5522zm-3.14336-11.127c0-.8657.3663-1.2774 1.17015-1.3303h1.60842c1.37945 0 2.20567.8256 2.20567 2.2067 0 1.0532-.56557 2.282-2.15494 2.282h-2.8293zm7.15789 4.7397-.5683-.3193.4961-.4241c.5768-.4961 1.544-1.6112 1.544-3.5381 0-2.9479-2.2867-4.8508-5.826-4.8508h-4.039l-.45986-.001c-1.049307.0384-1.88886.8918-1.900601 1.9477v16.7334h1.853591c.00469.0011.00627 0 .00783.0011l4.61783-.0011c3.93441 0 6.47381-2.1415 6.47381-5.4585 0-1.7859-.8199-3.3128-2.1994-4.0893z"/><path d="m143.507 26.5339c-1.602 0-3.151.7503-4.145 2.0086l-.28.3546-.22-.3968c-.715-1.3042-1.946-1.9664-3.657-1.9664-1.795 0-2.999 1.0013-3.558 1.5968l-.366.3963-.141-.5213c-.204-.7503-.872-1.1637-1.884-1.1637h-1.623l-.016 13.4945h3.688v-5.9568c0-.5218.065-1.0382.195-1.5782.353-1.4392 1.32-2.9874 2.946-2.8326 1.003.0962 1.493.8711 1.493 2.368v7.9996h3.714v-5.9568c0-.6521.061-1.1402.208-1.63.299-1.3741 1.308-2.7829 2.877-2.7829 1.136 0 1.556.643 1.556 2.3701v6.0268c0 1.3634.608 1.9728 1.97 1.9728h1.736l.003-8.6148c0-3.4414-1.514-5.1878-4.496-5.1878z"/><path d="m109.954 35.6512c-.011.0133-1.598 1.6866-3.687 1.6866-1.903 0-3.826-1.168-3.826-3.7753 0-2.251 1.491-3.8243 3.625-3.8243.693 0 1.481.2483 1.605.6659l.018.0706c.284.9468 1.144.9976 1.314.9976l2.02.0022v-1.7662c0-2.3295-2.963-3.1744-4.957-3.1744-4.264 0-7.3581 2.9688-7.3581 7.057 0 4.0866 3.0601 7.0511 7.2801 7.0511 3.661 0 5.652-2.4064 5.67-2.4305l.107-.1303-1.6-2.6542z"/></g></svg>