<svg fill="none" height="67" viewBox="0 0 123 67" width="123" xmlns="http://www.w3.org/2000/svg"><g clip-rule="evenodd" fill="#333" fill-rule="evenodd"><path d="m42.8562 26.2115h4.7039v18.769h-4.7039z"/><path d="m114.519 37.5016v7.8913l-4.632-.0178v-19.1636l8.342 7.6358v-7.0591h4.593v19.3654z"/><path d="m18.1606 35.5991c0-5.182 4.4545-9.3876 9.9421-9.3876 2.4732 0 4.7373.8596 6.4786 2.2712l-3.2854 3.5203c-.8612-.6856-1.975-1.098-3.1932-1.098-2.7438 0-4.971 2.1029-4.971 4.6937s2.2272 4.6938 4.971 4.6938c1.2366 0 2.3688-.4298 3.2424-1.1386l3.2792 3.5261c-1.7413 1.4348-4.0234 2.3005-6.5216 2.3005-5.488.0003-9.9421-4.1998-9.9421-9.3814z"/><path d="m57.3275 49.6726-9.262-24.4555h-7.741v20.2812h-5.0677v-20.2812h-11.2163l2.6021-4.8711h25.0408l5.6437 14.6543 5.65-14.6543h24.2448l2.6732 4.8711h-23.3001z"/><path d="m72.2554 44.9805v-4.1445h3.4889c.5672 0 1.6459-.0417 1.917-.9135.561-1.8154-5.184-4.7596-5.184-9.274 0-3.4159 2.5518-4.437 4.2841-4.437h5.2887v4.0726h-3.2671s-.9368 0-1.1959.3644c-1.4178 1.9647 5.252 4.837 5.252 10.116 0 2.759-2.441 4.216-4.8759 4.216z"/><path d="m65.1997 26.2115h4.7039v18.769h-4.7039z"/><path d="m82.8394 26.2115h4.7039v18.769h-4.7039z"/><path d="m14.1995 46.1535-1.2814-3.5771h-5.98506l-1.28111 3.5771h-5.130934l9.407794-28.1535 9.40781 28.1535zm-5.80395-8.7139h2.84945l-1.42751-4.9165z"/><path d="m89.895 35.5931c0-5.178 4.2144-9.3816 9.4107-9.3816 5.1913 0 9.4053 4.2036 9.4053 9.3816 0 5.1838-4.215 9.3874-9.4053 9.3874-5.1963 0-9.4107-4.2039-9.4107-9.3874zm4.7373.0003c0 2.5744 2.0926 4.6619 4.6734 4.6619 2.5753 0 4.6673-2.0875 4.6673-4.6619 0-2.5686-2.092-4.656-4.6673-4.656-2.5808 0-4.6734 2.0871-4.6734 4.656z"/></g></svg>