<svg fill="none" height="67" viewBox="0 0 109 67" width="109" xmlns="http://www.w3.org/2000/svg"><g fill="#333"><path d="m16.4598 12.3454c-.0924-.0011-.1843.0005-.2753.0046-3.2665.1619-6.56245 3.6342-6.69488 9.9759h-7.57767c-.58856 0-1.059289.471-1.059289 1.0596l1.412479 21.3791c0 .5886 1.57433 3.2814 4.06099 3.2667h20.57017c3.6049-.5591 4.061-3.5756 4.061-4.1642l1.2949-20.4816c-.0147-.5886-.5003-1.0596-1.0888-1.0596h-7.5777c-.8268-7.3551-4.2633-9.9461-7.1259-9.9805zm.0267 1.7671c2.0707.0348 4.6061 2.1839 5.3189 8.2134h-10.5352c.1177-5.1793 2.6485-8.0925 5.0174-8.2102.0658-.0032.1321-.0043.1989-.0032zm.0971 11.8088c1.5743-.0185 3.1562.4878 4.1329 1.6134.7504.8534-.5003 2.1188-1.2507 1.2507-1.3978-1.6039-4.7231-1.383-5.9885.2649-1.7951 2.369.8973 3.6343 2.7807 4.2081 2.5897.7799 5.459 2.2217 5.9299 5.1792.3825 2.3984-1.4714 4.6203-3.7667 5.0617-2.4573.4708-5.6208-.3532-7.3424-2.1924-.7798-.8387.4709-2.0894 1.2507-1.2507 1.1624 1.2506 3.2225 1.8247 4.8999 1.7806 2.1482-.0442 4.0461-2.0012 2.8396-4.1788-1.6774-3.0164-5.8413-2.1631-7.9748-4.532-1.7216-1.9128-.9124-4.9145 1.1182-6.2535.9269-.6051 2.1468-.9368 3.3712-.9512z"/><path d="m46.7159 27.9024c-1.7362-1.9716-5.3853-2.0305-7.5041-.6474-2.0305 1.3243-2.8398 4.2965-1.1182 6.1946 2.1335 2.3542 6.2828 1.5155 7.9749 4.5025 1.2213 2.1629-.6915 4.0904-2.825 4.1346-1.6774.0441-3.7374-.5444-4.8998-1.7804-.7798-.824-2.0305.412-1.2507 1.236 1.7216 1.8245 4.8851 2.6485 7.3276 2.1776 2.2953-.4414 4.1493-2.6485 3.7667-5.0174-.4708-2.9428-3.34-4.3553-5.9297-5.1352-1.8834-.5591-4.576-1.8245-2.7809-4.164 1.2654-1.648 4.576-1.854 5.9886-.2649.7504.8681 2.001-.3825 1.2506-1.236z"/><path d="m59.1637 36.8334v6.1504c0 1.1624-1.7656 1.1624-1.7656 0v-6.0327c-.0589-1.1918-1.0447-1.7362-1.0742-1.751-1.2653-.5591-3.546-.3089-4.9144 1.4714v6.3123c0 1.1624-1.7657 1.1624-1.7657 0v-15.8027c0-1.1624 1.7657-1.1624 1.7657 0v7.1068c2.1777-1.5008 4.9439-1.3243 6.2387-.412-.0147-.0147 1.545.8681 1.5155 2.9575z"/><path d="m97.0521 38.5405c-.0441-2.4278-1.2801-4.6054-3.855-5.091-2.2071-.412-4.7968.7504-5.7385 2.8251-.9858 2.1482-.5738 5.1057 1.3684 6.6066 2.0894 1.6185 5.3412 1.1182 7.4894-.0736 1.0006-.5591.103-2.0894-.8975-1.5303-1.3537.7652-3.1341 1.133-4.6496.6327-1.133-.3825-1.7804-1.3684-1.9717-2.4572h7.3717c.4708-.0294.8975-.4267.8828-.9123zm-8.1957-.8828c.0148-.0736.0295-.1324.0442-.1913.4267-1.4419 1.8687-2.2806 3.34-2.3248 1.6921-.0441 2.6338 1.1183 2.9281 2.5161z"/><path d="m108.853 38.5261c-.044-2.4278-1.28-4.6055-3.855-5.091-2.207-.412-4.797.7504-5.7388 2.825-.9859 2.1483-.5739 5.1058 1.3688 6.6066 2.089 1.6185 5.341 1.1182 7.489-.0736 1.001-.5591.103-2.0894-.898-1.5302-1.353.7651-3.134 1.1329-4.649.6327-1.133-.3826-1.781-1.3684-1.972-2.4573h7.372c.471-.0294.883-.4267.883-.9122zm-8.196-.8829c.015-.0735.029-.1324.044-.1912.427-1.442 1.869-2.2807 3.34-2.3248 1.692-.0442 2.634 1.1182 2.928 2.516z"/><path d="m66.5207 43.8963c-2.8987 0-5.2676-2.3689-5.2676-5.2676 0-2.8986 2.3689-5.2676 5.2676-5.2676 2.8986 0 5.2676 2.369 5.2676 5.2676 0 2.9134-2.369 5.2676-5.2676 5.2676zm0-8.6371c-1.854 0-3.3695 1.5156-3.3695 3.3695 0 1.854 1.5155 3.3695 3.3695 3.3695 1.8539 0 3.3695-1.5155 3.3695-3.3695-.0147-1.8539-1.5156-3.3695-3.3695-3.3695z"/><path d="m79.5867 33.3613c-1.5597 0-2.9722.6916-3.9286 1.7657v-1.2654c0-1.133-1.7657-1.1477-1.7657 0v14.8905c0 1.1477 1.7657 1.1477 1.7657 0v-6.636c.9711 1.0888 2.3689 1.7657 3.9286 1.7657 2.8986 0 5.2676-2.3543 5.2676-5.2676 0-2.884-2.3543-5.2529-5.2676-5.2529zm0 8.6371c-1.854 0-3.3695-1.5156-3.3695-3.3695 0-1.6627 1.2212-3.0605 2.8251-3.3254h.0294c.1618-.0294.3384-.0441.515-.0441 1.3684 0 2.5602.824 3.0752 2.0158v.0147c.1766.412.2796.8681.2796 1.339.0147 1.8539-1.5009 3.3695-3.3548 3.3695z"/></g></svg>