<svg fill="none" height="67" viewBox="0 0 147 67" width="147" xmlns="http://www.w3.org/2000/svg"><g fill="#333"><path d="m99.0912 45.6073c-.0082.0081-.0164.0081-.0164.0163-6.177 4.3672-13.4898 8.9548-21.3581 13.7709l-.3105.1796c-.1062.0735-.1307.2204-.0572.3265s.2206.1306.3268.0572l.2615-.1388c6.6754-3.4774 14.3395-7.6079 22.0527-11.8445.041-.0245.082-.0489.123-.0653-.4254-.702-.7767-1.4693-1.0218-2.3019zm40.5268-32.7743c-9.732-10.72618-72.3598-1.0776-98.9881 4.7345l-.6209.1306c-.1308.0245-.2125.1469-.188.2694.0245.1306.1471.2122.2697.1877l.6128-.1224c22.0608-3.9264 67.9475-9.36296 77.8175.4163 3.015 2.9876 2.296 6.8242-1.201 11.3628 1.879 1.2082 3.219 3.1101 3.824 5.4855 13.645-9.0445 22.804-17.6891 18.474-22.4644z"/><path d="m103.029 42.791c.123 3.7713 2.517 6.8651 5.63 6.8651 6.038 0 8.612-7.412 8.432-12.3587-.131-3.7795-2.582-6.8651-5.695-6.8651-5.188-.0082-8.546 7.3712-8.367 12.3587zm-3.1862-.204c-.2206-6.4406 4.8292-13.0281 12.1662-13.0281 4.902 0 8.113 3.2652 8.293 8.269.237 6.7916-4.486 13.0281-12.158 13.0281-4.919 0-8.13-3.257-8.3012-8.269z"/><path d="m30.3536 40.8891c-.2615.0979-.5965.1959-1.0213.2857-.4167.0979-1.1848.2285-2.296.4081-.768.1225-1.2991.2776-1.6014.498-.286.2122-.4576.4652-.5066.7836-.0572.3347.049.5959.335.8081.2941.2041.7844.3102 1.4789.3102.5229 0 1.0295-.0816 1.5197-.2449.4984-.1632.9233-.3836 1.242-.6612.2369-.204.4085-.4652.5392-.7836.0817-.2122.1879-.6775.3105-1.404zm6.3731-3.9591c-.0245.5878-.1307 1.1102-.2859 2.0163l-1.0786 6.0487c-.0898.5388.1063.9551.6047 1.249l-.0327.2367-6.1771-.0082-.0571-1.5346c-.8988.5388-1.9855.9959-2.966 1.2653-.9805.253-1.773.3591-2.9578.3591-1.9936 0-3.1375-.2041-3.9301-.8979-.8007-.7102-1.1929-1.1836-1.1521-2.1632.0327-.5632.3269-1.2897.7436-1.7958.4248-.5143 1.0131-.849 1.6423-1.151.6373-.302 1.389-.5224 2.4757-.6939 1.0949-.1796 2.6146-.351 4.6491-.5224 1.0704-.0898 1.724-.3347 2.0263-.4571.4249-.1633.5965-.351.6537-.6939.1144-.6204-.0817-.9795-.9151-1.1428-2.2224-.4408-6.3977.2857-8.5466.8163l1.1685-3.1509c2.8352-.4163 5.4907-.6775 8.2932-.6775 4.4694 0 5.8911 1.2652 5.842 2.8978z"/><path d="m54.6368 46.4726 2.1407-12.0894h5.9156l-2.1408 12.0894zm2.4675-14.8893c.1798-.9959 1.7485-1.7958 3.4971-1.7958 1.7567 0 3.0395.8081 2.8679 1.7958-.1879.9959-1.7485 1.804-3.5134 1.804-1.7485 0-3.0232-.8081-2.8516-1.804z"/><path d="m83.6976 40.9136c-.2697.0898-.6129.1877-1.0296.2857-.4167.0979-1.1847.2204-2.2959.4-.7599.1224-1.2992.2775-1.5933.4979-.286.2041-.4494.4653-.5148.7755-.0653.3347.0572.604.335.8081.3024.2041.7926.302 1.4871.302.5148 0 1.0213-.0734 1.5198-.2285.5065-.1714.9233-.3837 1.2501-.6612.2288-.2041.4003-.4735.5229-.7837.0817-.204.1879-.6693.3187-1.3958zm6.3731-3.9672c-.0245.5959-.1307 1.1183-.2942 2.0162l-1.0703 6.0569c-.0899.5306.1062.9551.6046 1.249l-.0327.2122-6.177.0082-.049-1.5428c-.8988.5469-1.9937 1.004-2.966 1.2652-.9805.2612-1.773.3674-2.9741.3674-1.9937 0-3.1294-.1959-3.9219-.898-.8089-.7183-1.193-1.1836-1.1521-2.1631.0245-.5714.3186-1.298.7435-1.7959.4249-.5224 1.0132-.8489 1.6505-1.151.6373-.302 1.389-.5224 2.4675-.702 1.0949-.1714 2.6228-.351 4.6573-.5224 1.0622-.0898 1.7159-.3265 2.0182-.449.433-.1632.5965-.351.6618-.702.1062-.6122-.0817-.9714-.9069-1.1428-2.2388-.4408-6.3977.2857-8.5466.8163l1.1603-3.1509c2.8434-.4163 5.4907-.6776 8.2932-.6776 4.453.0082 5.8747 1.2816 5.8339 2.9061z"/><path d="m17.8933 42.1299c-1.9283.3836-3.0068.5305-4.9106.5305-2.8271 0-5.07401-1.404-4.95145-3.9753.08988-1.7142 2.11625-5.3223 7.27195-5.3223 1.6259 0 2.8924.2857 4.6001 1.2571l.7517-4.1957c-2.3205-.8735-3.8566-1.0041-5.8503-.9878-6.76528.0735-13.2528 3.1428-14.061701 9.3875-.8170683 6.3426 6.936911 7.9344 10.376801 7.918 1.9854-.0081 4.0526-.0898 5.9809-.2857z"/><path d="m65.9533 34.3179.4248-2.4652 6.1852-1.3469-.6618 3.8039h3.0313l-.5719 2.4326-2.9415-.0082-1.7893 9.7221s-5.9565-.0408-5.981 0l1.7812-9.6976h-2.2387l.4575-2.4489h2.3042z"/><path d="m98.9549 29.7708-2.876 16.6933-6.0218.0081 3.0313-16.8647z"/><path d="m46.8093 37.2157c-.7762 0-1.4788.2368-2.0998.7021-.621.4734-1.0132 1.1591-1.1684 2.0652-.188 1.053-.0736 1.8122.3431 2.2775.4249.4652 1.0295.702 1.8303.702.5392 0 1.0948-.098 1.5034-.3021.5066-.2693.8579-.5469 1.1602-.9958.3268-.4653.5393-.9878.6537-1.5918.1716-.9551.0245-1.6653-.4167-2.1387-.4331-.4735-1.0295-.7184-1.8058-.7184zm-10.7689 13.4281 2.8842-16.1953h5.1966l-.4004 2.0652c.4494-.6204 1.1684-1.1265 2.1653-1.5346 1.005-.4082 2.1325-.7102 3.3581-.7102 1.3563 0 2.1898.0735 3.2029.5959 1.005.5306 1.7159 1.2979 2.0917 2.2938.3922.9796.4739 2.0897.2615 3.2897-.3514 1.9999-1.3237 3.5672-2.9251 4.7263-1.5851 1.1592-3.015 1.4612-5.0495 1.4694-.719 0-1.3237-.0735-1.8221-.1959-.4902-.1306-.8824-.2858-1.1766-.4735-.2859-.1877-.5882-.4571-.9723-.8816l-.9641 5.5508z"/><path d="m143.417 38.7014c-.033-.9714-.523-1.6326-1.528-1.6326-2.427 0-5.008 4.7509-5.45 6.661 3.979.0082 7.076-2.3591 6.978-5.0284zm.523 7.4446.466.3184c-1.185 2.4081-3.595 4.3427-6.422 4.3427-2.313 0-4.216-1.5428-4.315-4.4325-.187-5.1835 4.674-9.9915 8.653-9.9915 1.708 0 3.293.7429 3.358 2.5795.147 4.1223-5.646 5.3794-9.461 5.4692-.123.4327-.172.8653-.147 1.5183.065 1.7061 1.095 3.1428 3.235 3.1428 1.847 0 3.693-1.4857 4.633-2.9469z"/><path d="m120.212 38.5708c.409-.0572 1.071-.1306 1.357-.1306.433 0 .841.0816.866.5142.008.2531-.45 2.0898-.548 2.5142l-.923 4.0652c-.376 1.6652-.776 3.404-1.136 4.7835h2.37l1.332-6.4406c4.061-4.2284 5.629-5.6079 6.585-5.6079.433 0 .727.2285.752.7428.024.7428-.441 2.4325-.596 2.9223l-1.357 4.6937c-.31 1.0531-.539 2.0081-.515 2.6857.041 1.0285.662 1.4856 1.594 1.4856 1.732 0 2.99-1.804 4.085-3.5754l-.319-.5795c-.441.7101-1.47 2.2693-2.279 2.2693-.254 0-.499-.1715-.507-.5959-.024-.5469.204-1.3714.368-1.9183l1.511-5.5019c.409-1.5183.597-2.4897.589-3.0121-.041-1.0285-.638-1.5102-1.561-1.5102-1.56 0-3.628 1.1429-8.015 6.1794h-.066l.556-2.457c.302-1.3469.596-2.751.874-3.7224-1.52.547-3.693 1.1592-5.033 1.4204z"/></g></svg>