<svg fill="none" height="67" viewBox="0 0 140 67" width="140" xmlns="http://www.w3.org/2000/svg"><path d="m49.5871 44.9997c-4.9381 0-9.522-1.4808-12.5817-4.2272-2.3116-2.0748-3.4224-4.8931-3.4224-7.7939 0-2.8653 1.1587-5.7031 3.4221-7.767 2.8416-2.5898 7.8585-4.2116 12.582-4.2116 5.2271 0 9.4108 1.3166 12.609 4.2187 2.2755 2.065 3.3756 4.8902 3.3756 7.7602 0 2.7819-1.1674 5.7445-3.3756 7.7936-2.9782 2.7641-7.6584 4.2272-12.609 4.2272v-3.1654c2.6209 0 5.0522-.9049 6.7501-2.5944 1.6862-1.6779 2.4718-3.7405 2.4718-6.2613 0-2.4148-.8475-4.6725-2.4718-6.2738-1.6752-1.6501-4.1645-2.5785-6.7501-2.5785-2.5936 0-5.0845.9189-6.7611 2.5785-1.6156 1.6007-2.4652 3.865-2.4652 6.2738 0 2.4015.8595 4.6644 2.4652 6.2616 1.6779 1.6692 4.1601 2.5944 6.7611 2.5944v3.1654zm-36.0923-23.9882c-2.6415 0-5.64235.4941-8.19213 1.6328-2.35325 1.05-4.27948 2.7482-4.27948 5.5635-.00109 2.5356 1.61035 4.0206 1.56655 3.9795.68542.6309 1.78882 1.7053 4.67365 2.3363 1.28926.2819 4.04571.715 6.79071 1.0018 2.7247.2874 5.4061.5606 6.4983.8371.8677.2209 2.3253.5217 2.3253 2.157 0 1.6287-1.5356 2.1257-1.8025 2.2336-.2666.1054-2.1088.9507-5.4204.9507-2.4449 0-5.3842-.7353-6.4556-1.1185-1.23506-.4396-2.53062-1.021-3.73914-2.4972-.30055-.366-.77465-1.3725-.77465-2.3692h-2.99705v8.3981h3.33128v-1.1347c0-.1292.1615-.6605.72072-.4078.69582.3161 2.73839 1.1294 4.87404 1.5753 1.751.3662 2.8802.6288 5.0571.6288 3.5519 0 5.4601-.5787 6.7792-.9554 1.2427-.3558 2.7783-.9947 4.0257-1.9894.6756-.5379 2.157-1.9167 2.157-4.4194 0-2.4022-1.2893-3.8932-1.7428-4.3468-.6178-.6181-1.3725-1.0971-2.1589-1.4664-.6852-.3224-1.7664-.7097-2.6511-.9263-1.7171-.4215-5.5997-.9416-7.4564-1.1359-1.947-.2034-5.32454-.4832-6.67348-.9006-.40895-.1267-1.24273-.5239-1.24273-1.4918 0-.6884.38131-1.272 1.13488-1.7437 1.1962-.7494 3.61243-1.2153 6.13103-1.2153 2.9776-.011 5.4992.6698 7.1032 1.387.5456.2436 1.1839.5934 1.6908 1.0073.5721.4664 1.3753 1.4357 1.6657 2.7876h2.6907v-7.3102h-3.0044v.8497c0 .2743-.2833.6307-.819.3361-1.3446-.7054-5.1461-2.2273-9.8066-2.2336zm65.8411 1.3284 14.656 13.2266-.1505-8.9052c-.0148-1.1678-.23-1.6553-1.493-1.6553h-2.7556v-2.6639h12.5312v2.6639h-2.6879c-1.2882 0-1.3695.412-1.3851 1.6553l.2272 17.0158h-4.2915l-16.8808-15.0661.0035 10.6924c.0148 1.1623.0693 1.7097 1.2668 1.7097h3.0097v2.6629h-12.3069v-2.6626h2.8769c1.0747 0 1.032-1.0246 1.032-1.7705v-12.4804c0-.8055-.1131-1.7546-1.8003-1.7546h-2.3344v-2.668zm37.1081 18.6683c.117 0 .64-.015.742-.046.289-.0903.485-.2967.576-.5118.038-.0904.057-.49.057-.5768l.003-4.2099c0-.1013-.008-.1451-.18-.3707-.189-.2463-7.676-8.7319-8.019-9.1056-.426-.4639-1.173-1.1811-2.308-1.1811h-2.604v-2.665h14.695v2.6617h-1.771c-.41 0-.682.3887-.332.8207 0 0 4.944 5.9144 4.991 5.9763.046.0629.085.078.148.0205.062-.0588 5.069-5.9427 5.108-5.9892.238-.2852.077-.8253-.437-.8253h-1.817v-2.6647h12.044v2.6647h-2.691c-.976 0-1.373.1807-2.107 1.0109-.336.3799-7.904 9.018-8.11 9.252-.108.1224-.098.2929-.098.3942v4.2094c0 .0854.019.4856.057.5754.091.2162.289.4226.578.5119.101.0312.617.0465.734.0465h2.752v2.6645h-14.619v-2.6648z" fill="#333"/></svg>