<svg enable-background="new 0 0 821.6 1022.9" viewBox="0 0 821.6 1022.9" xmlns="http://www.w3.org/2000/svg"><circle cx="207.7" cy="207.7" fill="#d5e0ea" r="207.7"/><path d="m202.9 688.6c.4.2.8.6 1.1 1.1 3.8 9.2 9 27.4 2 46.8-2 5.6-8.1 22.6-23.4 28.2.3 10.1-1.6 20.9-6.9 30.3-6.2 11-16.3 19-26.9 23.7 1.2 7.6.7 15.6-2.2 22.3-14.2 33.1-53.4 33.4-53.8 33.5-1.2 0-2.1-.9-2.1-2.1 0-1.1.8-2.1 2.1-2 .3 0 36.8-.5 49.9-31 2.5-5.7 3.1-12.4 2.1-19-11.3 4-22.5 4.2-30.1 0-2-1.1-11.6-6.9-12.5-16.7 0-.3-.7-8.6 5.1-13.4 7.3-6.1 18.9-2.4 23.9.4 0 0 0 0 .1.1 7.9 4.4 13.8 13.4 16.4 23.5 9.6-4.5 18.6-11.8 24.1-21.6 4.7-8.3 6.5-17.9 6.4-26.9-3.9.9-10 1.4-16.5-1.1-8.4-3-19.3-11.8-17.8-21.6.7-4.4 3.9-8.8 8.6-11.7 4.4-2.7 9.4-3.6 13.3-2.4 4.8 1.5 9.1 6.3 12.2 13.8 2 4.8 3.4 10.7 4 17.1 12.4-5.5 17.7-19.7 19.6-25.2 6.5-18 1.6-35.2-1.9-43.8-.4-1 .1-2.3 1.2-2.7.8 0 1.5.1 2 .4zm-24.9 73.2c-.4-6.3-1.9-12.3-3.9-17-2.6-6.1-6-10.2-9.5-11.3-2.7-.8-6.4 0-9.8 1.9-3.7 2.3-6.3 5.7-6.8 8.7-1.1 6.9 8.1 14.2 15 16.8 6.1 2.4 11.6 1.8 15 .9zm-34.3 54.6c-2.3-9.3-7.4-17.7-14.5-21.6 0 0 0 0-.1-.1-4.9-2.7-14.1-5.1-19.1-.8-4.2 3.4-3.6 9.8-3.6 9.8.7 7.6 8.6 12.4 10.1 13.3 6.7 3.6 17 3.2 27.2-.6z" fill="#d5e0ea"/><path d="m657.5 514.2c1.1.4 1.6 1.7 1.2 2.8-3.5 8.8-8.6 26.4-2 44.9 1.9 5.7 7.3 20.2 20 25.9.6-6.6 2.1-12.6 4.1-17.5 3.2-7.7 7.7-12.6 12.5-14.1 4-1.2 9.1-.3 13.6 2.5 4.9 3 8.2 7.5 8.8 12 1.5 10-9.7 19-18.3 22.1-6.7 2.5-12.8 2-16.9 1.1-.1 9.2 1.6 19.1 6.5 27.6 5.7 10 14.9 17.5 24.7 22.1 2.7-10.3 8.7-19.6 16.8-24.1.1-.1.1-.1.1-.1 5.2-2.8 17-6.6 24.5-.4 5.9 4.9 5.2 13.4 5.2 13.7-.9 10-10.7 15.9-12.8 17.1-7.7 4.3-19.3 4.1-30.8 0-1 6.8-.4 13.7 2.2 19.5 13.4 31.3 50.7 31.8 51.1 31.8 1.3-.1 2.2.9 2.2 2.1 0 1.3-1 2.2-2.2 2.2-.4-.1-40.5-.5-55-34.4-3-6.9-3.5-15.1-2.2-22.9-10.9-4.8-21.2-13.1-27.6-24.3-5.5-9.6-7.4-20.7-7.1-31-15.6-5.8-21.9-23.2-23.9-28.9-7.1-19.9-1.8-38.5 2.1-47.9.2-.5.7-.9 1.1-1.1.8-.6 1.6-.7 2.1-.7zm39 74.5c7.1-2.6 16.5-10.1 15.4-17.2-.6-3.1-3.2-6.6-7-8.9-3.5-2-7.3-2.9-10-2-3.6 1.2-7.1 5.4-9.7 11.6-2 4.9-3.5 11-4 17.5 3.5.7 9 1.4 15.3-1zm47.7 57.4c1.5-.9 9.6-5.8 10.3-13.6 0 0 .6-6.6-3.7-10.1-5.1-4.4-14.5-2-19.6.8-.1.1-.1.1-.1.1-7.2 4-12.5 12.7-14.9 22.1 10.4 4 20.9 4.4 28 .7z" fill="#d5e0ea"/><path d="m561.8 289.5c-1.4 8.1-4.5 16.2-8.8 23.6-.6 1-1.2 2.1-1.9 3.1-.7 1.1-1.4 2.2-2.2 3.2.2.2.5.3.7.5l-2.8 15.2c-16-2.5-45.2-6.7-62.7-9.1-7.2-11.2-9.6-27.1-7.2-42.3 0-.2.1-.4.1-.6.5-2.8 1.1-5.6 1.9-8.3.7-2.5 1.6-4.9 2.6-7.2.4-.8.8-1.9 1.4-3.1 1.9-3.8 4.2-7.4 7-10.5l.1-.1c3.3-3.5 14.7-14.4 30.8-12.5 8.5 1 21.7 6 25 16.1 4.2 13.2-11.1 27.7-4.9 35 1 1.1 2.8 2.5 5 3 .2-.2.4-.5.6-.7 3.9-4.6 9.8-6.4 15.3-5.3z" fill="#ff6876"/><circle cx="499.6" cy="262.5" r="2.6"/><circle cx="519.9" cy="264.7" r="2.6"/><path d="m560.6 322.5c-2.2 2.2-4.2 3.8-5.8 4.5-1.2.5-5.1 2.2-6.7.7s-.2-5.3.7-7.6c.1-.2.2-.4.2-.6 3.5 2.4 7.7 3.4 11.6 3z"/><path d="m575.1 248.4c-5.5-11.5-19.1-29.4-36.1-30.5-10.7-.7-17.2 5.5-26.9.8-7.5-3.6-9.6-10.3-17.5-10.9-.7-.1-7.1-.5-10.5 3.3-5.2 5.6-2.4 19 4.1 28.4-2.5 1.6-10.1 6.9-13.7 17.1-4.7 13.6 1.2 25.2 2.3 27.2.6-4 1.8-9.7 4.5-16 0-.1 0-.1.1-.2.4-.8.8-1.9 1.4-3.1 1.4-2.8 3.4-6.5 6.3-9.8.1-.2.3-.4.6-.7l.1-.1c3.3-3.5 14.7-14.4 30.8-12.5 8.5 1 21.7 6 25 16.1 4.2 13.2-11.1 27.7-4.9 35 1 1.1 2.8 2.5 5 3 .2-.2.4-.5.6-.7 4-4.5 9.9-6.2 15.4-5.2 3 .5 5.8 1.9 8.2 4 2.2 1.9 3.7 4.3 4.6 6.9 6.3-15 9.2-34.2.6-52.1z"/><path d="m575.2 303.2c-.1-.9-.4-1.9-.7-2.8-.9-2.6-2.4-5-4.6-6.9-6.8-6.2-17.4-5.7-23.6 1.2-.2.2-.4.5-.6.7-5.5 6.8-4.8 16.9 1.8 22.9.4.3.7.6 1.1.9.1.1.3.2.4.3 3.4 2.4 7.6 3.4 11.5 3s7.7-2.2 10.5-5.4c3.7-4 5-9.1 4.2-13.9z" fill="#ff6876"/><path d="m549.2 306.9c-.1 0-.3 0-.4 0-.3 0-.5-.3-.5-.5 0-.3.2-.5.5-.5 1.8.1 3.4-.7 4.4-2.2s1.1-3.4.3-4.9c-.1-.1-.1-.3 0-.5.1-.1.2-.2.4-.3l14.6-.9c.3 0 .5.2.5.5s-.2.5-.5.5l-13.9.9c.6 1.7.4 3.7-.6 5.3s-2.8 2.6-4.8 2.6z"/><path d="m499.4 290.1c-.1 0-.2 0-.3-.1l-8.6-6.2c-.1-.1-.2-.2-.2-.4 0-.1 0-.3.1-.4l15.9-17c.2-.2.5-.2.7 0s.2.5 0 .7l-15.5 16.6 8.2 5.8c.2.2.3.5.1.7-.1.2-.3.3-.4.3z"/><path d="m504.1 305.1-14.2-1.3c-.3 0-.5-.3-.5-.5 0-.3.3-.5.5-.5l14.2 1.3c.3 0 .5.3.5.5 0 .3-.2.5-.5.5z"/><path d="m507.6 331.7c-2.9 0-5.7-.3-8.7-.8-.3 0-.5-.3-.4-.6s.3-.5.6-.4c7.3 1.3 14.5.9 21.4-1.1 3.1-.9 6.1-2.1 9-3.6.2-.1.5 0 .7.2.1.2 0 .5-.2.7-2.9 1.6-6 2.8-9.2 3.7-4.3 1.2-8.7 1.9-13.2 1.9z"/><ellipse cx="525.1" cy="255.5" rx="2.3" ry="7.4" transform="matrix(.4171 -.9089 .9089 .4171 73.8636 626.2352)"/><ellipse cx="498.8" cy="253.1" rx="7.4" ry="2.3" transform="matrix(.9541 -.2994 .2994 .9541 -52.8944 160.9502)"/><path d="m499.5 292.1c2.8 0 7.3.3 12.4 2.2 7 2.6 11.2 6.7 13.1 8.8-8.8-1.5-17.5-3-26.3-4.6.3-2.1.6-4.2.8-6.4z"/><path d="m497.1 291.9c-2.8-.5-7.3-1-12.6-.1-7.3 1.2-12.3 4.5-14.5 6.2 8.9.1 17.8.3 26.7.4.1-2.2.2-4.4.4-6.5z"/><path d="m359.5 939.3-64.9-10.5 3.6-12.9c20.4 7.8 40.8 15.6 61.3 23.4z" fill="#ff6876"/><path d="m598.4 950.3-70.1-14.2c23.3 3.1 46.6 6.2 69.9 9.3z" fill="#ff6876"/><g fill="#ff009d"><path d="m384.8 603.7c-1.8-4.7-4.8-8.7-8.8-11.6-.3 1-.7 2-1 3 3.2 2.5 5.6 5.8 7 9.6 2.1 5.5 1.8 11.5-.6 16.9-2.5 5.4-6.8 9.5-12.4 11.5-2.5.9-5.1 1.4-7.7 1.4-.4 1-.7 2-1 3h1c3 0 5.9-.5 8.8-1.6 6.3-2.3 11.3-7 14-13.1 2.8-6 3.1-12.9.7-19.1z"/><path d="m469 572.3c-.2-.6-.5-1.3-.8-1.9h-3.4c.5.9 1 1.9 1.4 3 2.1 5.5 1.8 11.5-.6 16.9s-6.8 9.5-12.4 11.5c-5.5 2.1-11.5 1.9-16.9-.6s-9.4-6.8-11.5-12.4c-2.1-5.5-1.9-11.5.6-16.9.2-.5.5-1 .8-1.5h-3.4c-.1.1-.1.2-.1.3-2.8 6.1-3 12.9-.7 19.2s7 11.3 13.1 14c3.3 1.5 6.9 2.3 10.4 2.3 3 0 5.9-.5 8.8-1.6 6.3-2.3 11.3-7 14.1-13.1 2.7-6.2 3-13 .6-19.2z"/><path d="m537.3 570.4c-4.9 1.8-10.2 1.8-15.1 0h-6.6c1.2.8 2.4 1.5 3.7 2.1 3.3 1.5 6.9 2.3 10.4 2.3 3 0 5.9-.5 8.8-1.6 1.9-.7 3.7-1.6 5.3-2.8z"/><path d="m362.2 690.5c-2.3-6.3-7-11.3-13.1-14-.7-.3-1.3-.6-2-.8-.3.9-.7 1.9-1 2.8.6.2 1.2.4 1.7.7 5.4 2.5 9.5 6.8 11.5 12.4 2.1 5.5 1.8 11.5-.6 16.9-2.5 5.4-6.8 9.5-12.4 11.5-4.9 1.8-10.1 1.8-14.7.2-.3 1-.7 1.9-1 2.8 2.6.9 5.3 1.3 8 1.3 2.9 0 5.9-.5 8.7-1.6 6.3-2.3 11.3-7 14-13.1 3-6.1 3.2-12.9.9-19.1z"/><path d="m450.5 657.5c-4.8-13-19.3-19.6-32.3-14.7-13 4.8-19.6 19.3-14.7 32.2 3.8 10.1 13.3 16.3 23.5 16.3 2.9 0 5.9-.5 8.7-1.6 13-4.8 19.6-19.2 14.8-32.2zm-15.8 29.4c-11.4 4.2-24.1-1.6-28.4-13s1.6-24.1 13-28.4c2.5-1 5.1-1.4 7.7-1.4 9 0 17.4 5.5 20.7 14.4 4.2 11.4-1.6 24.2-13 28.4z"/><path d="m538.8 624.5c-4.8-13-19.3-19.6-32.2-14.7-6.3 2.3-11.3 7-14.1 13.1s-3 12.9-.7 19.2 7 11.3 13.1 14.1c3.3 1.5 6.8 2.3 10.4 2.3 3 0 5.9-.5 8.8-1.6 13-4.9 19.6-19.4 14.7-32.4zm-15.7 29.5c-5.5 2.1-11.5 1.8-16.9-.6-5.4-2.5-9.5-6.8-11.5-12.4-2.1-5.5-1.8-11.5.6-16.9 2.5-5.4 6.8-9.5 12.4-11.5 2.5-.9 5.1-1.4 7.7-1.4 9 0 17.4 5.5 20.7 14.4 4.2 11.4-1.6 24.1-13 28.4z"/><path d="m343.6 775.7c-4-10.8-14.7-17.1-25.6-16.2-.4 1-.7 2.1-1.1 3.1 1.1-.2 2.1-.2 3.2-.2 9 0 17.4 5.5 20.7 14.4 4.2 11.4-1.6 24.1-13 28.4-8.5 3.2-17.8.7-23.8-5.5-.4 1-.7 2.1-1.1 3.1 4.6 4.3 10.8 6.8 17.1 6.8 2.9 0 5.9-.5 8.7-1.6 13.2-4.9 19.8-19.3 14.9-32.3z"/><path d="m427.8 744.3c-4.8-13-19.3-19.6-32.2-14.7-13 4.8-19.6 19.3-14.7 32.3 3.8 10.1 13.3 16.3 23.5 16.3 2.9 0 5.9-.5 8.7-1.6 13-4.9 19.6-19.4 14.7-32.3zm-15.7 29.4c-11.4 4.2-24.1-1.6-28.4-13-4.2-11.4 1.6-24.1 13-28.4 2.5-.9 5.1-1.4 7.7-1.4 9 0 17.4 5.5 20.7 14.4 4.2 11.4-1.6 24.2-13 28.4z"/><path d="m516.2 711.3c-4.8-13-19.3-19.6-32.3-14.7-3.7 1.4-6.9 3.5-9.5 6.3.2 1.3.4 2.7.6 4 2.5-3.4 5.9-6 10-7.5 2.5-.9 5.1-1.4 7.7-1.4 8.9 0 17.4 5.5 20.7 14.4 4.2 11.4-1.6 24.1-13 28.4-5.5 2.1-11.5 1.8-16.9-.6-1.4-.7-2.8-1.4-4-2.4.2 1.3.4 2.6.6 4 .7.4 1.4.8 2.2 1.1 3.3 1.5 6.9 2.3 10.4 2.3 3 0 5.9-.5 8.8-1.6 12.9-4.8 19.5-19.3 14.7-32.3z"/><path d="m584.8 708.9c-4.3.8-8.8.2-12.9-1.7-5.4-2.5-9.4-6.8-11.5-12.4-4.3-11.4 1.6-24.1 13-28.4 1.6-.6 3.2-1 4.9-1.2l-.4-3c-1.9.2-3.7.7-5.5 1.4-13 4.8-19.5 19.3-14.7 32.3 3.8 10.1 13.3 16.3 23.5 16.3 1.4 0 2.8-.1 4.2-.4z"/><path d="m323.2 855.8c-4.8-12.9-19.3-19.6-32.3-14.7-.5.2-1 .4-1.4.6-.5 1.4-.9 2.8-1.4 4.1 1.2-.7 2.5-1.4 3.9-1.9 2.5-1 5.1-1.4 7.7-1.4 9 0 17.4 5.5 20.7 14.4.9 2.5 1.4 5.1 1.4 7.7 0 9-5.5 17.4-14.4 20.7-11.4 4.2-24.1-1.6-28.4-13 0 0 0-.1-.1-.2-.5 1.4-.9 2.8-1.4 4.2 2.6 4.9 6.6 8.8 11.8 11.1 3.3 1.5 6.9 2.3 10.4 2.3 3 0 5.9-.5 8.8-1.6 12.9-4.9 19.5-19.3 14.7-32.3z"/><path d="m407.4 824.4c-4.8-13-19.3-19.6-32.2-14.7-6.3 2.3-11.3 7-14 13.1-2.8 6.1-3 12.9-.7 19.2s7 11.3 13.1 14.1c3.3 1.5 6.9 2.3 10.4 2.3 3 0 5.9-.5 8.8-1.6 5.2-2 9.4-5.5 12.3-9.8 2.1-3.2 3.4-6.9 3.9-10.8.3-4-.2-7.9-1.6-11.8zm-15.8 29.5c-5.5 2.1-11.5 1.8-16.9-.6s-9.5-6.8-11.5-12.4c-2.1-5.5-1.8-11.5.6-16.9 2.5-5.4 6.8-9.4 12.4-11.5 2.5-1 5.1-1.4 7.7-1.4 9 0 17.4 5.5 20.7 14.4 4.3 11.4-1.6 24.1-13 28.4z"/><path d="m495.8 791.4c-2-5.3-5.5-9.6-10.2-12.5.2 1.4.4 2.7.6 4.1 3.1 2.5 5.4 5.7 6.8 9.5 2.1 5.5 1.8 11.5-.6 16.9-.5 1.2-1.2 2.3-1.9 3.4l.6 4.1c1.6-1.8 3-3.9 4-6.2 2.7-6.2 3-13 .7-19.3z"/><path d="m584.1 758.5c-4.8-13-19.3-19.6-32.3-14.7-13 4.8-19.6 19.3-14.7 32.2 3.8 10.1 13.3 16.3 23.5 16.3 2.9 0 5.9-.5 8.7-1.6 13-4.8 19.6-19.3 14.8-32.2zm-15.8 29.4c-11.4 4.2-24.1-1.6-28.4-13s1.6-24.2 13-28.4c2.5-1 5.1-1.4 7.7-1.4 9 0 17.4 5.5 20.7 14.4.9 2.5 1.4 5.1 1.4 7.7 0 9-5.5 17.4-14.4 20.7z"/><path d="m362.1 896.9c2.5-1 5.1-1.4 7.7-1.4 5.7 0 11.2 2.2 15.3 6.2.4-1 .7-2 1.1-3-6.7-5.8-16.3-7.8-25.2-4.5-12.9 4.8-19.6 19.3-14.7 32.2 1.7 4.5 4.6 8.3 8.2 11.1 1.7.6 3.3 1.3 5 1.9 2.9 1.1 5.7 2.2 8.6 3.3.6 0 1.2.1 1.8.1h.5c.4-1 .7-2 1.1-3-9.5.7-18.8-4.9-22.3-14.3-4.3-11.6 1.5-24.3 12.9-28.6z"/><path d="m565.8 844.5c-4.8-13-19.3-19.6-32.2-14.7-6.3 2.3-11.3 7-14.1 13.1s-3 12.9-.7 19.2 7 11.3 13.1 14c3.3 1.5 6.8 2.3 10.4 2.3 3 0 5.9-.5 8.8-1.6 13-4.9 19.6-19.4 14.7-32.3zm-15.7 29.4c-5.5 2.1-11.5 1.8-16.9-.6-5.4-2.5-9.5-6.8-11.5-12.4-2.1-5.5-1.8-11.5.6-16.9 2.5-5.4 6.8-9.5 12.4-11.5 2.5-1 5.1-1.4 7.7-1.4 9 0 17.4 5.5 20.7 14.4.9 2.5 1.4 5.1 1.4 7.7-.1 9-5.6 17.4-14.4 20.7z"/><path d="m545.4 924.6c-2.3-6.3-7-11.3-13.1-14-6.1-2.8-12.9-3-19.2-.7-3 1.1-5.7 2.8-7.9 4.8.2 1.2.4 2.4.5 3.7 2.3-2.4 5.1-4.4 8.4-5.6 2.5-.9 5.1-1.4 7.7-1.4 3.1 0 6.2.7 9.2 2 5.4 2.5 9.4 6.8 11.5 12.4 1.5 4 1.8 8.3.9 12.5 1 .1 2 .3 3 .4 1-4.8.7-9.6-1-14.1z"/><path d="m616.8 921.5c-11.1 3.4-23.1-2.4-27.2-13.4-4.2-11.4 1.6-24.1 13-28.4 2.5-.9 5.1-1.4 7.7-1.4l-.4-3c-2.8 0-5.6.6-8.3 1.6-6.3 2.3-11.3 7-14 13.1-2.8 6.1-3 12.9-.7 19.2 3.8 10.1 13.3 16.3 23.5 16.3 2.3 0 4.6-.3 6.9-1z"/></g><path d="m359.5 939.3-1.6 5.2c-3-2.3-7.6-4.9-12.9-4.5-8.1.7-11.7 7.9-17.9 12-6.3 4.2-17.4 6.7-38.5-1.5l6-21.8z" fill="#1f0d60"/><path d="m598.7 958.7c-25.9 8.5-36.6 5-41.7.1-4.4-4.3-5.7-11-13-14.5-5.6-2.7-11.5-2-15.7-1.1 0-.6 0-1.1 0-1.7 0-.1 0-.3 0-.4l-.1-5.1 70.1 14.2z" fill="#1f0d60"/><path d="m344.9 940.1c-8.1.7-11.7 7.9-17.9 12-6.3 4.2-17.4 6.7-38.5-1.5-23.6 11.4-41.9 18.4-55.1 23-8.6 3-19.8 6.5-26.7 17.1-4.4 6.8-5.4 13.9-5.6 18.8 34.8-2.7 69.5-5.4 104.3-8.1l10.7-10.9 7.5 9.4c9.2-.7 18.5-1.4 27.7-2.2 2.1-17.7 4.3-35.5 6.4-53.2-2.9-2.2-7.5-4.8-12.8-4.4z" fill="#ffb800"/><path d="m675.1 1003.9c-6.3-10.9-17.2-15-25.8-18.5-12.6-5.2-29.7-13.4-50.6-26.6-25.9 8.5-36.6 5-41.7.1-4.4-4.3-5.7-11-13-14.5-5.6-2.7-11.5-2-15.7-1.1 0 1.1.2 6.4.4 12.4 0 .7 0 1.4.1 2.1v1.5c0 1 .1 1.9.1 2.9v.7c0 .7 0 1.4.1 2.1.2 5.8.3 10.7.4 11.7 0 1.7.8 24.9.8 26.5l22.8 3 7-8.7 11 11.1c36.2 4.8 72.5 9.6 108.7 14.4.1-5-.6-12.2-4.6-19.1z" fill="#ffb800"/><path d="m202.5 1000.7c-.2 0-.5-.2-.5-.4 0-.3.2-.5.4-.6 34.5-4.5 109.3-12.9 150.7-17.6.3 0 .5.2.6.4s-.2.5-.4.6c-41.5 4.7-116.2 13.2-150.8 17.6.1 0 .1 0 0 0z" fill="#1f0d60"/><path d="m678.6 1013.2c-42.6-7.6-118.6-21.3-149-27.2-.3-.1-.4-.3-.4-.6.1-.3.3-.4.6-.4 30.4 5.9 106.3 19.6 148.9 27.2.3 0 .5.3.4.6 0 .3-.2.4-.5.4z" fill="#1f0d60"/><path d="m818.5 269.5c-1.1-1.9-3-2.9-5-2.9l1.6-1c2.7-1.6 3.7-5.3 2.1-8.1s-5.1-3.7-7.8-2.1l-.8.5c1.3-1.9 1.6-4.4.4-6.5-1.6-2.8-5.1-3.8-7.8-2.1l-33.3 20.1c-2.8-.2-5.6-.4-8.4-.5 2.4-3.1 4.9-6.3 7.3-9.5 2.4-2.2 2.6-5.9.6-8.3-.1-.1-.7-.8-1.4-1.2-2.4-1.2-7.4 2.1-7.4 2.1-4 2.7-32.1 26.4-38.3 31.8-.7.7-1.2 1-1.2 1.1 3.4 4.8 42.7 34.1 44 35 5.8-2.8 52.5-25.2 53.7-30.9.6-3-.5-4.6-.5-4.6-.5-.7-1.5-1.7-2.9-2.2-.4-.1-.7-.2-.9-.3l3.9-2.4c1.7-1 2.7-2.8 2.9-4.7 0-1-.2-2.2-.8-3.3z" fill="#ff6876"/><path d="m750.7 296.1c-.2 0-.3-.1-.4-.2-.1-.2-.1-.5.2-.7 1.2-.7 7.2-4.7 8.2-12.3.7-5.5-1.6-9.7-2.7-11.3-.2-.2-.1-.5.1-.7s.5-.1.7.1c1.4 2.1 3.5 6.4 2.8 12-1 8-7.4 12.3-8.7 13 0 0-.1.1-.2.1z" fill="#1f0000"/><path d="m777.9 273.7c-.2 0-.3-.1-.4-.3s-.1-.5.2-.7l30.7-17.3c.2-.1.5-.1.7.2.1.2.1.5-.2.7l-30.7 17.3c-.1.1-.2.1-.3.1z" fill="#1f0000"/><path d="m782.8 282.6c-.2 0-.4-.1-.4-.3-.1-.2 0-.5.2-.7l30.7-15.5c.2-.1.5 0 .7.2.1.2 0 .5-.2.7l-30.8 15.5c-.1.1-.1.1-.2.1z" fill="#1f0000"/><path d="m785.5 293c-.2 0-.4-.1-.5-.3s0-.5.2-.7l26.9-12.6c.2-.1.5 0 .7.2.1.2 0 .5-.2.7l-26.9 12.7c-.1 0-.2 0-.2 0z" fill="#1f0000"/><path d="m406.1 113.3c-.1 0-.1 0 0 0-2.5-2-6.2-1.7-8.3.8l-12 14.6-3.4 4.2c-5.2-.7-10.4-1.5-15.6-2.2-.1-6.8-.1-13.7-.2-20.5l2.2-2.3 13.5-14.1c.6-.7 1.1-1.4 1.4-2.3.7-2.1.1-4.4-1.5-6-1.1-1.1-2.6-1.6-4.1-1.6s-3.1.6-4.2 1.8l-13.9 14.4 4.6-15.1c1-3.1-.8-6.4-3.9-7.3-.6-.2-1.1-.3-1.7-.3-2.4 0-4.6 1.4-5.5 3.7-.6-.6-1.4-1.1-2.3-1.4-.6-.2-1.1-.3-1.7-.3-2.5 0-4.9 1.6-5.6 4.1l-3 9.7v-.5c.2-3.2-2.3-6-5.6-6.2-.1 0-.2 0-.3 0-3.1 0-5.7 2.5-5.9 5.6l-1.2 22.9c-.4 1.5 3.5 26.8 5 38.2 0 0 0 0 0-.1l54 9.6v.2c2.9-7.6 6.4-15.7 10.6-24.2 3.1-6.2 6.2-12 9.3-17.3 2.1-2.3 1.8-6-.7-8.1z" fill="#ff6876"/><path d="m355.3 116.4h-.1c-.3-.1-.4-.4-.3-.6l4.7-15.8c.1-.3.4-.4.6-.3.3.1.4.4.3.6l-4.7 15.8c-.1.2-.3.3-.5.3z" fill="#1f0000"/><path d="m345.4 116.4h-.1c-.3-.1-.4-.3-.4-.6l8.2-34.8c.1-.3.3-.4.6-.4.3.1.4.3.4.6l-8.2 34.8c-.1.2-.3.4-.5.4z" fill="#1f0000"/><path d="m336.3 116.2h-.1c-.3-.1-.4-.3-.4-.6l4.7-22.9c.1-.3.3-.4.6-.4.3.1.4.3.4.6l-4.7 22.9c-.1.3-.3.4-.5.4z" fill="#1f0000"/><path d="m546.8 335.1c-16-2.5-45.2-6.7-62.7-9.1-4.8-.7-8.8-1.2-11.3-1.4-.9 8.6-1.7 17.2-2.6 25.8-7.7 77-15.4 153.9-23.1 230.9 23.8-.5 47.7-1.1 71.5-1.6 4-27.8 8.1-55.6 12.2-83.3 6.8-45.9 13.8-91.7 21-137.5 1.2-7.5 2.3-15 3.5-22.4-2-.4-4.9-.9-8.5-1.4z" fill="#ffb800"/><path d="m477 352.7c-.3 0-.5-.3-.5-.5l1.9-26.5c0-.3.3-.5.5-.5.3 0 .5.3.5.5l-1.9 26.5c0 .2-.3.5-.5.5z" fill="#1f0d60"/><path d="m485.8 353.5c-.1 0-.1 0 0 0-.3 0-.5-.3-.5-.5l1.9-26.5c0-.3.3-.5.5-.5.3 0 .5.3.5.5l-1.9 26.5c-.1.3-.3.5-.5.5z" fill="#1f0d60"/><path d="m495.4 354.5c-.1 0-.1 0 0 0-.3 0-.5-.3-.5-.6l3.6-26.3c0-.3.3-.5.6-.4.3 0 .5.3.4.6l-3.6 26.3c-.1.2-.3.4-.5.4z" fill="#1f0d60"/><path d="m507.5 356.7c-.3 0-.5-.3-.5-.5l1.9-26.5c0-.3.3-.5.5-.5.3 0 .5.3.5.5l-1.9 26.5c0 .3-.2.5-.5.5z" fill="#1f0d60"/><path d="m515.8 358c-.4 0-.5-.3-.5-.6l4.1-26.2c0-.3.3-.5.6-.4.3 0 .5.3.4.6l-4.1 26.2c0 .2-.2.4-.5.4z" fill="#1f0d60"/><path d="m525.1 359.5c-.4-.1-.5-.3-.5-.6l4.9-26.1c.1-.3.3-.5.6-.4s.4.3.4.6l-4.9 26.1c0 .2-.2.4-.5.4z" fill="#1f0d60"/><path d="m533.6 360.4c-.4-.1-.5-.3-.5-.6l6.9-25.6c.1-.3.3-.4.6-.4.3.1.4.3.4.6l-6.9 25.6c0 .3-.2.4-.5.4z" fill="#1f0d60"/><path d="m543.4 362c-.4-.1-.5-.3-.5-.6l5.5-26c.1-.3.3-.4.6-.4.3.1.4.3.4.6l-5.5 26c-.1.2-.3.4-.5.4z" fill="#1f0d60"/><path d="m387 162.9v.2c-.6 5.4-1.2 10.8-1.8 16.2-.8 7-1.5 13.9-2.2 20.8l-58.5-14.2c2.7-13.8 6-24.8 8.6-32.5 0 0 0 0 0-.1 17.9 3.2 35.9 6.4 53.9 9.6z" fill="#ffb800"/><path d="m763.2 318c-.1 5.2-.2 11.4-.7 18.3-16.3-6.4-38.9-15.4-50.7-20 3-13.3 5.5-24.7 7.4-33.4 3.4 4.8 42.6 34.2 44 35.1-.1 0 0 0 0 0z" fill="#ffb800"/><path d="m470.2 350.4c-7.7 77-15.4 153.9-23.1 230.9l-2.3 23.1h-120c24.6-63.6 49.2-127.2 73.8-190.8-16.8-15.6-52.8-53.4-69.8-114.2-13.8-49.4-8.7-91.4-4.4-113.5l58.5 14.2c-.5 22.6 2.6 50.2 14.9 78.3 8.2 18.7 26.5 57.2 63 70 2 .6 5.1 1.3 9.4 2z" fill="#8400ec"/><path d="m762.4 336.3c-.7 10.2-1.9 22.1-4.2 35.2-5.3 30.8-8 46.2-17.9 58.2-18.3 22.1-48.9 24.9-79.8 27.8-26.9 2.5-49.1-.3-63.5-3-3.4 62.3-6.8 124.6-10.2 186.9-24.3-9.3-48.7-18.7-73-28 1.6-11.2 3.2-22.4 4.8-33.7 4-27.8 8.1-55.6 12.2-83.3 6.8-45.9 13.8-91.7 21-137.5 8.8.8 16.6 2.1 23.3 3.6 5.4 1.2 9.8 2.4 12.9 3.3 2 .6 3.5 1.1 3.9 1.2 57.2 18.5 85.8 27.8 99.3 18.7 4.2-2.8 6.1-6.2 18.5-60.5.7-3 1.4-6 2-8.9 11.8 4.7 34.5 13.6 50.7 20z" fill="#8400ec"/><path d="m444.8 604.9c-.3 0-.5-.3-.5-.5l25.4-254c0-.3.3-.5.5-.4.3 0 .5.3.4.5l-25.4 254c.1.2-.1.4-.4.4z" fill="#1f0d60"/><path d="m513.8 613.9c-.3 0-.5-.3-.5-.6l38-254.5c0-.3.3-.5.6-.4.3 0 .5.3.4.6l-38 254.5c0 .2-.2.4-.5.4z" fill="#1f0d60"/><path d="m382.9 200.5h-.1l-58.5-14.2c-.3-.1-.4-.3-.4-.6s.3-.4.6-.4l58.5 14.2c.3.1.4.3.4.6s-.2.4-.5.4z" fill="#1f0d60"/><path d="m762.4 336.8c-.1 0-.1 0-.2 0l-50.7-20c-.3-.1-.4-.4-.3-.6.1-.3.4-.4.6-.3l50.7 20c.3.1.4.4.3.6 0 .2-.2.3-.4.3z" fill="#1f0d60"/><path d="m352.6 518.7h-193.9c-.8 0-1.5-.7-1.5-1.5v-407.9c0-.8.7-1.5 1.5-1.5h509.2c.8 0 1.5.7 1.5 1.5v75h94.9c.8 0 1.5.7 1.5 1.5s-.7 1.5-1.5 1.5h-96.4c-.8 0-1.5-.7-1.5-1.5v-75h-506.2v404.9h192.4c.8 0 1.5.7 1.5 1.5s-.6 1.5-1.5 1.5z" fill="#ffb800"/><path d="m406.3 110c0 1.1-.1 2.2-.3 3.3-2.5-2-6.2-1.6-8.2.8l-12 14.6c-9.6-.9-17.1-8.9-17.1-18.8 0-.7 0-1.4.1-2.1l13.5-14.1c.6-.7 1.1-1.4 1.4-2.3 1.2-.3 2.5-.4 3.8-.4 10.4.2 18.8 8.6 18.8 19z" fill="#290060"/><path d="m133.6 149.8c-3.6 0-7.2-.5-10.8-1.4l5.2-19.9c5.6 1.5 11.5.6 16.5-2.3 5.1-3 8.7-7.7 10.2-13.3s.6-11.5-2.3-16.5c-3-5.1-7.7-8.7-13.3-10.2l5.2-19.9c10.9 2.9 20.1 9.9 25.8 19.7s7.3 21.3 4.4 32.2-9.9 20.1-19.7 25.8c-6.4 3.8-13.8 5.8-21.2 5.8z" fill="#ffb800"/><path d="m171.7 348.2c-24.4-3.7-41.6-25.5-38.2-48.2 3.5-22.8 26.4-38.5 50.8-34.8-4.2 27.6-8.4 55.3-12.6 83z" fill="#8400ec"/><path d="m130.7 486.1c15.3 2.3 30.7 4.6 46 7 3.3 15.3 6.6 30.7 9.9 46-14.9-2.9-29.7-5.9-44.6-8.8-3.7-14.7-7.5-29.4-11.3-44.2z" fill="#ff009d"/><path d="m773.7 130.3c16 16.2 31.9 32.4 47.9 48.5-9.6 20.9-19.1 41.8-28.7 62.7-14.9-16.5-29.8-32.9-44.6-49.4 8.5-20.6 16.9-41.2 25.4-61.8z" fill="#00de60"/><path d="m337.9 488c.3-3.6 1-7.2 2.2-10.6l19.5 6.7c-1.9 5.5-1.5 11.4 1.1 16.7s7 9.2 12.5 11.1 11.4 1.5 16.7-1.1 9.2-7 11.1-12.5l19.5 6.7c-3.7 10.7-11.3 19.3-21.5 24.3s-21.7 5.8-32.4 2.1-19.3-11.3-24.3-21.5c-3.5-7-5-14.5-4.4-21.9z" fill="#00de60"/></svg>