<svg fill="none" height="661" viewBox="0 0 763 661" width="763" xmlns="http://www.w3.org/2000/svg" xmlns:xlink="http://www.w3.org/1999/xlink"><filter id="a" color-interpolation-filters="sRGB" filterUnits="userSpaceOnUse" height="513.468" width="653.564" x="52.4804" y="64.868"><feFlood flood-opacity="0" result="BackgroundImageFix"/><feColorMatrix in="SourceAlpha" type="matrix" values="0 0 0 0 0 0 0 0 0 0 0 0 0 0 0 0 0 0 127 0"/><feOffset dy="1.29902"/><feGaussianBlur stdDeviation="1.29902"/><feColorMatrix type="matrix" values="0 0 0 0 0 0 0 0 0 0 0 0 0 0 0 0 0 0 0.0796547 0"/><feBlend in2="BackgroundImageFix" mode="normal" result="effect1_dropShadow"/><feBlend in="SourceGraphic" in2="effect1_dropShadow" mode="normal" result="shape"/></filter><filter id="b" color-interpolation-filters="sRGB" filterUnits="userSpaceOnUse" height="510.217" width="651.486" x="42.0881" y="54.0306"><feFlood flood-opacity="0" result="BackgroundImageFix"/><feColorMatrix in="SourceAlpha" type="matrix" values="0 0 0 0 0 0 0 0 0 0 0 0 0 0 0 0 0 0 127 0"/><feOffset dy="1.29902"/><feGaussianBlur stdDeviation="1.29902"/><feColorMatrix type="matrix" values="0 0 0 0 0 0 0 0 0 0 0 0 0 0 0 0 0 0 0.0796547 0"/><feBlend in2="BackgroundImageFix" mode="normal" result="effect1_dropShadow"/><feBlend in="SourceGraphic" in2="effect1_dropShadow" mode="normal" result="shape"/></filter><clipPath id="c"><path d="m55.0785 66.167h649.511v509.356h-649.511z"/></clipPath><clipPath id="d"><path d="m69.6277 109.516h597.55v425.366h-597.55z"/></clipPath><mask id="e" height="506" maskUnits="userSpaceOnUse" width="647" x="44" y="55"><rect fill="#fff" height="504.293" rx="5.4559" stroke="#fff" stroke-width=".727453" width="645.562" x="45.0499" y="55.6933"/></mask><g clip-path="url(#c)"><g filter="url(#a)" opacity=".1"><rect fill="#575fcf" height="508.272" rx="5.81962" width="648.368" x="55.0785" y="66.167"/><rect height="507.622" rx="5.49487" stroke="#f8f8f8" stroke-width=".649511" width="647.719" x="55.4032" y="66.4917"/></g><g filter="url(#b)"><rect fill="#fff" height="505.021" rx="5.81962" width="646.29" x="44.6862" y="55.3296"/><rect height="504.293" rx="5.4559" stroke="#f1f1f1" stroke-width=".727453" width="645.562" x="45.0499" y="55.6933"/></g><g mask="url(#e)"><path d="m322.925 86.6552h1.702l3.52 9.1392h-1.715l-.857-2.4192h-3.648l-.858 2.4192h-1.651zm-.563 5.504h2.79l-1.369-3.9296h-.039zm12.262 3.6352h-1.433v-.9216h-.026c-.179.3328-.448.6016-.806.8064-.35.1963-.709.2944-1.076.2944-.87 0-1.502-.2133-1.894-.64-.384-.4352-.576-1.088-.576-1.9584v-4.1984h1.459v4.0576c0 .5803.111.9899.333 1.2288.222.239.533.3584.934.3584.308 0 .564-.0469.768-.1408.205-.0938.372-.2176.5-.3712.128-.1621.217-.3541.268-.576.06-.2218.09-.4608.09-.7168v-3.84h1.459zm7.657-.3456c0 .9984-.281 1.7408-.844 2.2272-.555.495-1.357.7424-2.407.7424-.333 0-.67-.0341-1.011-.1024-.333-.0682-.64-.1834-.922-.3456-.273-.1621-.503-.3754-.691-.64-.188-.2645-.299-.5888-.333-.9728h1.46c.042.2048.115.3712.217.4992.103.128.222.2262.359.2944.145.0768.302.1238.473.1408.171.0256.35.0384.538.0384.589 0 1.019-.145 1.293-.4352.273-.2901.409-.7082.409-1.2544v-1.0112h-.025c-.205.367-.487.6528-.845.8576-.35.2048-.73.3072-1.139.3072-.53 0-.982-.0896-1.357-.2688-.367-.1877-.674-.4394-.922-.7552-.239-.3242-.414-.6954-.525-1.1136-.111-.4181-.166-.8661-.166-1.344 0-.4437.068-.8661.205-1.2672.136-.401.333-.7509.589-1.0496.256-.3072.567-.5504.934-.7296.375-.1792.798-.2688 1.267-.2688.418 0 .802.0896 1.152.2688.35.1707.619.4438.807.8192h.025v-.9088h1.459zm-3.238-.8064c.324 0 .597-.064.819-.192.231-.1365.414-.3114.551-.5248.145-.2218.247-.4693.307-.7424.068-.2816.102-.5632.102-.8448s-.034-.5546-.102-.8192c-.069-.2645-.175-.4992-.32-.704-.137-.2048-.32-.3669-.551-.4864-.222-.1194-.49-.1792-.806-.1792-.324 0-.597.0683-.819.2048-.222.1366-.401.3158-.538.5376-.136.2134-.235.4608-.294.7424-.06.2731-.09.5462-.09.8192 0 .2731.034.5419.103.8064.068.256.17.4864.307.6912.145.2048.324.3712.537.4992.222.128.487.192.794.192zm10.519 1.152h-1.434v-.9216h-.026c-.179.3328-.448.6016-.806.8064-.35.1963-.708.2944-1.075.2944-.871 0-1.502-.2133-1.895-.64-.384-.4352-.576-1.088-.576-1.9584v-4.1984h1.46v4.0576c0 .5803.111.9899.332 1.2288.222.239.534.3584.935.3584.307 0 .563-.0469.768-.1408.205-.0938.371-.2176.499-.3712.128-.1621.218-.3541.269-.576.06-.2218.089-.4608.089-.7168v-3.84h1.46zm2.639-2.1248c.043.4267.205.7254.487.896.281.1707.618.256 1.011.256.136 0 .29-.0085.461-.0256.179-.0256.345-.0682.499-.128.153-.0597.277-.145.371-.256.102-.1194.149-.273.141-.4608-.009-.1877-.077-.3413-.205-.4608-.128-.1194-.294-.2133-.499-.2816-.196-.0768-.423-.1408-.679-.192s-.516-.1066-.78-.1664c-.273-.0597-.538-.1322-.794-.2176-.247-.0853-.474-.2005-.678-.3456-.197-.145-.354-.3285-.474-.5504-.119-.2304-.179-.512-.179-.8448 0-.3584.085-.657.256-.896.179-.2474.401-.4437.665-.5888.274-.1536.572-.2602.896-.32.333-.0597.649-.0896.948-.0896.341 0 .665.0384.972.1152.316.0683.598.1835.845.3456.256.1622.465.3755.627.64.171.256.278.5675.32.9344h-1.523c-.068-.3498-.23-.5845-.486-.704-.248-.1194-.533-.1792-.858-.1792-.102 0-.226.0086-.371.0256-.136.0171-.269.0512-.397.1024-.119.0427-.222.111-.307.2048-.085.0854-.128.2006-.128.3456 0 .1792.06.3243.179.4352.128.111.29.2048.487.2816.204.0683.435.128.691.1792s.52.1067.793.1664c.265.0598.525.1323.781.2176.256.0854.482.2006.679.3456.204.1451.367.3286.486.5504.128.2219.192.495.192.8192 0 .3926-.09.7254-.269.9984-.179.2731-.414.495-.704.6656-.281.1707-.597.2944-.947.3712s-.695.1152-1.037.1152c-.418 0-.806-.0469-1.165-.1408-.349-.0938-.657-.2346-.921-.4224-.256-.1962-.461-.4352-.615-.7168-.145-.2901-.221-.6314-.23-1.024zm4.871-4.4928h1.101v-1.984h1.459v1.984h1.319v1.088h-1.319v3.5328c0 .1536.005.2859.013.3968.017.111.047.2048.09.2816.051.0768.123.1366.217.1792.094.0342.222.0512.384.0512h.308c.102-.0085.204-.0256.307-.0512v1.1264c-.162.0171-.32.0342-.474.0512-.153.0171-.311.0256-.473.0256-.384 0-.696-.0341-.935-.1024-.23-.0768-.414-.1834-.55-.32-.128-.145-.218-.3242-.269-.5376-.043-.2133-.068-.4565-.077-.7296v-3.904h-1.101zm14.341 6.6176h-6.119c.009-.7424.188-1.3909.538-1.9456.35-.5546.827-1.0368 1.433-1.4464.29-.2133.593-.4181.909-.6144.316-.2048.606-.4224.871-.6528.264-.2304.482-.4778.652-.7424.171-.273.261-.5845.269-.9344 0-.1621-.021-.3328-.064-.512-.034-.1877-.107-.3584-.217-.512-.111-.1621-.265-.2944-.461-.3968-.197-.1109-.453-.1664-.768-.1664-.29 0-.534.0598-.73.1792-.188.111-.341.2688-.461.4736-.111.1963-.196.431-.256.704-.051.2731-.081.5675-.089.8832h-1.459c0-.4949.064-.9514.192-1.3696.136-.4266.337-.7936.601-1.1008.265-.3072.585-.5461.96-.7168.384-.1792.828-.2688 1.331-.2688.546 0 1.003.0896 1.37.2688s.661.4054.883.6784c.231.2731.393.5718.487.896.093.3158.14.6187.14.9088 0 .3584-.055.6827-.166.9728-.111.2902-.26.559-.448.8064-.188.239-.401.4608-.64.6656s-.486.3968-.742.576-.512.3499-.768.512c-.256.1622-.495.3243-.717.4864-.214.1622-.401.3328-.563.512-.163.1707-.274.3542-.333.5504h4.365zm4.053-9.1392c.64 0 1.16.1494 1.561.448.41.2902.726.6656.948 1.1264.23.4523.384.9515.46 1.4976.086.5462.128 1.0752.128 1.5872s-.042 1.0411-.128 1.5872c-.076.5462-.23 1.0496-.46 1.5104-.222.4523-.538.8278-.948 1.1264-.401.2902-.921.4352-1.561.4352s-1.165-.145-1.575-.4352c-.401-.2986-.716-.6741-.947-1.1264-.222-.4608-.375-.9642-.461-1.5104-.076-.5461-.115-1.0752-.115-1.5872s.039-1.041.115-1.5872c.086-.5461.239-1.0453.461-1.4976.231-.4608.546-.8362.947-1.1264.41-.2986.935-.448 1.575-.448zm0 8.1024c.316 0 .58-.0896.793-.2688.214-.1877.38-.4352.5-.7424.128-.3157.217-.6826.268-1.1008.052-.4181.077-.8618.077-1.3312 0-.4693-.025-.9088-.077-1.3184-.051-.4181-.14-.785-.268-1.1008-.12-.3157-.286-.5632-.5-.7424-.213-.1877-.477-.2816-.793-.2816-.324 0-.593.0939-.807.2816-.204.1792-.371.4267-.499.7424-.119.3158-.205.6827-.256 1.1008-.051.4096-.077.8491-.077 1.3184 0 .4694.026.9131.077 1.3312.051.4182.137.7851.256 1.1008.128.3072.295.5547.499.7424.214.1792.483.2688.807.2688zm4.232-6.4384c.308 0 .606-.0256.896-.0768s.551-.1365.781-.256c.239-.1194.44-.273.602-.4608.17-.1877.281-.4181.333-.6912h1.19v8.96h-1.6v-6.3232h-2.202zm8.495 5.2096c.034.367.162.6656.384.896.231.2219.538.3328.922.3328.392 0 .704-.1024.934-.3072.239-.2133.423-.4736.551-.7808.128-.3157.213-.6485.256-.9984.051-.3584.089-.6869.115-.9856l-.026-.0256c-.196.3499-.465.6187-.806.8064-.341.1792-.717.2688-1.127.2688-.426 0-.814-.0725-1.164-.2176-.342-.145-.636-.3456-.884-.6016-.247-.2645-.439-.5802-.576-.9472-.136-.3754-.204-.7936-.204-1.2544 0-.4352.068-.8362.204-1.2032.137-.3754.338-.6997.602-.9728.265-.2816.589-.4992.973-.6528s.819-.2304 1.305-.2304c.632 0 1.152.1238 1.562.3712.41.239.73.5718.96.9984.239.4182.405.9131.499 1.4848.094.5718.141 1.1819.141 1.8304 0 .5376-.06 1.0795-.179 1.6256-.111.5462-.299 1.0454-.563 1.4976-.265.4438-.615.8064-1.05 1.088-.427.2816-.956.4224-1.587.4224-.359 0-.696-.0597-1.011-.1792-.316-.1194-.598-.2858-.845-.4992-.239-.2133-.435-.4693-.589-.768-.154-.2986-.239-.6314-.256-.9984zm1.395-5.6576c-.264 0-.494.0512-.691.1536-.196.0939-.358.2262-.486.3968-.128.1707-.226.367-.295.5888-.059.2219-.089.4523-.089.6912 0 .2475.03.4864.089.7168.069.2219.167.4182.295.5888.128.1707.29.3115.486.4224.197.1024.427.1536.691.1536.274 0 .512-.0512.717-.1536s.371-.2389.499-.4096c.137-.1792.239-.3797.308-.6016.068-.2304.102-.4693.102-.7168 0-.2389-.034-.4693-.102-.6912-.069-.2218-.171-.4138-.308-.576-.128-.1706-.294-.3072-.499-.4096s-.443-.1536-.717-.1536z" fill="#333"/><rect fill="#f8f8f8" height="22.7584" rx="3.11765" width="119.827" x="547.097" y="72.6694"/><rect fill="#d8d8d8" height="22.7584" rx="3.11765" width="60.0724" x="547.097" y="72.6694"/></g><g clip-path="url(#d)"><g stroke="#e5e5e5" stroke-width="1.03922"><path d="m666.657 132.253h88.9109v596.511h-88.9109z" transform="matrix(0 1 -1 0 798.91 -534.404)"/><path d="m666.657 221.119h78.0735v596.511h-78.0735z" transform="matrix(0 1 -1 0 887.776 -445.538)"/><path d="m666.657 299.148h78.0735v596.511h-78.0735z" transform="matrix(0 1 -1 0 965.805 -367.509)"/><path d="m666.657 377.177h78.0732v596.511h-78.0732z" transform="matrix(0 1 -1 0 1043.834 -289.48)"/><path d="m666.657 455.206v73.397c0 2.582-2.093 4.676-4.676 4.676h-587.1584c-2.5827 0-4.6765-2.094-4.6765-4.676v-73.397z"/><path d="m70.1471 132.253h85.2159v401.026h-80.5395c-2.5827 0-4.6764-2.094-4.6764-4.676z"/><path d="m70.1477 110.555h85.2159v21.7192h-85.2159z"/><path d="m155.363 110.555h85.2159v21.7192h-85.2159z"/><path d="m240.579 110.555h85.2159v21.7192h-85.2159z"/><path d="m325.795 110.555h85.2159v21.7192h-85.2159z"/><path d="m411.011 110.555h85.2159v21.7192h-85.2159z"/><path d="m496.227 110.555h85.2159v21.7192h-85.2159z"/><path d="m581.443 110.555h85.2159v21.7192h-85.2159z"/><path d="m155.363 132.253h85.2159v401.027h-85.2159z"/><path d="m240.579 132.253h85.2159v401.027h-85.2159z"/><path d="m325.795 132.253h85.2159v401.027h-85.2159z"/><path d="m411.011 132.253h85.2159v401.027h-85.2159z"/><path d="m496.227 132.253h85.2159v401.027h-85.2159z"/><path d="m581.443 132.253h85.215v396.35c0 2.582-2.093 4.676-4.676 4.676h-80.539z"/></g><path d="m141.603 157.188h-4.589c.007-.557.141-1.043.404-1.459.262-.416.62-.778 1.075-1.085.217-.16.445-.314.681-.461.237-.153.455-.317.653-.489.199-.173.362-.359.49-.557.128-.205.195-.439.201-.701 0-.122-.016-.25-.048-.384-.025-.141-.08-.269-.163-.384-.083-.122-.198-.221-.345-.298-.148-.083-.34-.124-.576-.124-.218 0-.4.044-.548.134-.14.083-.256.202-.345.355-.083.147-.147.323-.192.528-.039.205-.061.426-.067.663h-1.095c0-.372.048-.714.144-1.028.103-.32.253-.595.451-.825.199-.231.439-.41.72-.538.288-.134.621-.201.999-.201.409 0 .752.067 1.027.201.275.135.496.304.662.509.173.205.295.429.365.672.071.237.106.464.106.682 0 .268-.042.512-.125.729-.083.218-.195.419-.336.605-.141.179-.301.346-.48.499-.179.154-.365.298-.557.432-.192.135-.384.263-.576.384-.192.122-.371.243-.537.365-.16.122-.301.25-.423.384-.121.128-.205.266-.249.413h3.273zm1.917-1.699c.026.275.122.499.288.672.173.166.403.249.691.249.295 0 .528-.076.701-.23.179-.16.317-.355.413-.586.096-.236.16-.486.192-.748.038-.269.067-.516.086-.74l-.019-.019c-.147.263-.349.464-.605.605-.256.134-.537.202-.845.202-.32 0-.611-.055-.873-.164-.256-.108-.477-.259-.663-.451-.185-.198-.329-.435-.432-.71-.102-.282-.153-.595-.153-.941 0-.326.051-.627.153-.902.103-.282.253-.525.452-.73.198-.211.441-.374.729-.49.288-.115.615-.172.979-.172.474 0 .864.092 1.172.278.307.179.547.429.72.749.179.313.304.685.374 1.113.07.429.106.887.106 1.373 0 .403-.045.81-.135 1.219-.083.41-.224.784-.422 1.124-.199.332-.461.604-.787.816-.32.211-.717.316-1.191.316-.269 0-.521-.044-.758-.134s-.448-.214-.634-.374c-.179-.16-.326-.352-.441-.576-.116-.224-.18-.474-.192-.749zm1.046-4.243c-.198 0-.371.038-.518.115-.147.07-.269.169-.365.297s-.169.276-.221.442c-.044.166-.067.339-.067.518 0 .186.023.365.067.538.052.166.125.314.221.442s.218.233.365.316c.147.077.32.116.518.116.205 0 .384-.039.538-.116.154-.076.278-.179.374-.307.103-.134.18-.285.231-.451.051-.173.077-.352.077-.538 0-.179-.026-.352-.077-.518s-.128-.31-.231-.432c-.096-.128-.22-.23-.374-.307s-.333-.115-.538-.115z" fill="#ccc"/><path d="m226.819 157.188h-4.589c.007-.557.141-1.043.404-1.459.262-.416.62-.778 1.075-1.085.217-.16.445-.314.681-.461.237-.153.455-.317.653-.489.199-.173.362-.359.49-.557.128-.205.195-.439.201-.701 0-.122-.016-.25-.048-.384-.025-.141-.08-.269-.163-.384-.083-.122-.198-.221-.345-.298-.148-.083-.34-.124-.576-.124-.218 0-.4.044-.548.134-.14.083-.256.202-.345.355-.083.147-.147.323-.192.528-.039.205-.061.426-.067.663h-1.095c0-.372.048-.714.144-1.028.103-.32.253-.595.451-.825.199-.231.439-.41.72-.538.288-.134.621-.201.999-.201.409 0 .752.067 1.027.201.275.135.496.304.662.509.173.205.295.429.365.672.071.237.106.464.106.682 0 .268-.042.512-.125.729-.083.218-.195.419-.336.605-.141.179-.301.346-.48.499-.179.154-.365.298-.557.432-.192.135-.384.263-.576.384-.192.122-.371.243-.537.365-.16.122-.301.25-.423.384-.121.128-.205.266-.249.413h3.273zm1.917-1.699c.026.275.122.499.288.672.173.166.403.249.691.249.295 0 .528-.076.701-.23.179-.16.317-.355.413-.586.096-.236.16-.486.192-.748.038-.269.067-.516.086-.74l-.019-.019c-.147.263-.349.464-.605.605-.256.134-.537.202-.845.202-.32 0-.611-.055-.873-.164-.256-.108-.477-.259-.663-.451-.185-.198-.329-.435-.432-.71-.102-.282-.153-.595-.153-.941 0-.326.051-.627.153-.902.103-.282.253-.525.452-.73.198-.211.441-.374.729-.49.288-.115.615-.172.979-.172.474 0 .864.092 1.172.278.307.179.547.429.72.749.179.313.304.685.374 1.113.07.429.106.887.106 1.373 0 .403-.045.81-.135 1.219-.083.41-.224.784-.422 1.124-.199.332-.461.604-.787.816-.32.211-.717.316-1.191.316-.269 0-.521-.044-.758-.134s-.448-.214-.634-.374c-.179-.16-.326-.352-.441-.576-.116-.224-.18-.474-.192-.749zm1.046-4.243c-.198 0-.371.038-.518.115-.147.07-.269.169-.365.297s-.169.276-.221.442c-.044.166-.067.339-.067.518 0 .186.023.365.067.538.052.166.125.314.221.442s.218.233.365.316c.147.077.32.116.518.116.205 0 .384-.039.538-.116.154-.076.278-.179.374-.307.103-.134.18-.285.231-.451.051-.173.077-.352.077-.538 0-.179-.026-.352-.077-.518s-.128-.31-.231-.432c-.096-.128-.22-.23-.374-.307s-.333-.115-.538-.115z" fill="#ccc"/><path d="m308.222 153.252c.179.006.358-.006.538-.038.179-.032.339-.087.48-.164.14-.083.252-.195.336-.336.089-.14.134-.313.134-.518 0-.288-.099-.518-.298-.691-.192-.173-.441-.259-.748-.259-.192 0-.359.038-.5.115-.14.077-.259.182-.355.317-.089.128-.157.275-.201.441-.045.16-.064.327-.058.499h-1.094c.012-.326.073-.627.182-.902.109-.282.256-.525.442-.73.192-.204.422-.364.691-.48.269-.115.573-.172.912-.172.262 0 .518.038.768.115.256.077.483.189.681.336.205.147.368.336.49.566.122.224.182.483.182.778 0 .339-.076.637-.23.893-.154.249-.394.432-.72.547v.019c.384.077.682.269.893.576.217.301.326.669.326 1.104 0 .32-.064.608-.192.864-.128.25-.301.464-.518.643-.218.173-.471.307-.759.403s-.592.144-.912.144c-.39 0-.732-.054-1.027-.163-.288-.115-.531-.275-.729-.48-.192-.205-.34-.451-.442-.739s-.157-.608-.163-.96h1.094c-.013.41.087.752.298 1.027.217.269.541.403.969.403.365 0 .669-.102.912-.307.25-.211.375-.509.375-.893 0-.262-.051-.47-.154-.624-.102-.153-.237-.268-.403-.345-.166-.083-.355-.135-.566-.154-.205-.019-.416-.025-.634-.019zm5.814-2.918c.48 0 .871.112 1.172.336.307.217.544.499.71.844.173.34.288.714.346 1.124.064.409.096.806.096 1.19s-.032.781-.096 1.19c-.058.41-.173.788-.346 1.133-.166.339-.403.621-.71.845-.301.218-.692.326-1.172.326s-.873-.108-1.18-.326c-.301-.224-.538-.506-.711-.845-.166-.345-.281-.723-.345-1.133-.058-.409-.087-.806-.087-1.19s.029-.781.087-1.19c.064-.41.179-.784.345-1.124.173-.345.41-.627.711-.844.307-.224.7-.336 1.18-.336zm0 6.076c.237 0 .436-.067.596-.201.16-.141.284-.327.374-.557.096-.237.163-.512.202-.826.038-.313.057-.646.057-.998s-.019-.682-.057-.989c-.039-.313-.106-.589-.202-.825-.09-.237-.214-.423-.374-.557-.16-.141-.359-.211-.596-.211-.243 0-.444.07-.604.211-.154.134-.279.32-.375.557-.089.236-.153.512-.192.825-.038.307-.057.637-.057.989s.019.685.057.998c.039.314.103.589.192.826.096.23.221.416.375.557.16.134.361.201.604.201z" fill="#ccc"/><path d="m393.437 153.252c.18.006.359-.006.538-.038s.339-.087.48-.164c.141-.083.253-.195.336-.336.09-.14.134-.313.134-.518 0-.288-.099-.518-.297-.691-.192-.173-.442-.259-.749-.259-.192 0-.358.038-.499.115s-.259.182-.355.317c-.09.128-.157.275-.202.441-.045.16-.064.327-.058.499h-1.094c.013-.326.074-.627.182-.902.109-.282.256-.525.442-.73.192-.204.422-.364.691-.48.269-.115.573-.172.912-.172.263 0 .519.038.768.115.256.077.483.189.682.336.205.147.368.336.489.566.122.224.183.483.183.778 0 .339-.077.637-.231.893-.153.249-.393.432-.72.547v.019c.384.077.682.269.893.576.218.301.327.669.327 1.104 0 .32-.064.608-.192.864-.128.25-.301.464-.519.643-.217.173-.47.307-.758.403s-.592.144-.912.144c-.391 0-.733-.054-1.027-.163-.288-.115-.532-.275-.73-.48-.192-.205-.339-.451-.442-.739-.102-.288-.156-.608-.163-.96h1.095c-.013.41.086.752.297 1.027.218.269.541.403.97.403.365 0 .669-.102.912-.307.249-.211.374-.509.374-.893 0-.262-.051-.47-.153-.624-.103-.153-.237-.268-.404-.345-.166-.083-.355-.135-.566-.154-.205-.019-.416-.025-.634-.019zm3.655-1.67c.23 0 .454-.02.672-.058.217-.038.413-.102.585-.192.18-.09.33-.205.452-.346.128-.14.211-.313.249-.518h.893v6.72h-1.2v-4.742h-1.651z" fill="#ccc"/><path d="m480.749 151.582c.231 0 .455-.02.672-.058.218-.038.413-.102.586-.192.179-.09.33-.205.451-.346.128-.14.211-.313.25-.518h.893v6.72h-1.2v-4.742h-1.652z" fill="#666"/><path d="m569.38 157.188h-4.589c.007-.557.141-1.043.404-1.459.262-.416.62-.778 1.075-1.085.217-.16.445-.314.681-.461.237-.153.455-.317.653-.489.199-.173.362-.359.49-.557.128-.205.195-.439.201-.701 0-.122-.016-.25-.048-.384-.025-.141-.08-.269-.163-.384-.083-.122-.198-.221-.345-.298-.148-.083-.34-.124-.576-.124-.218 0-.4.044-.548.134-.14.083-.256.202-.345.355-.083.147-.147.323-.192.528-.039.205-.061.426-.067.663h-1.095c0-.372.048-.714.144-1.028.103-.32.253-.595.451-.825.199-.231.439-.41.72-.538.288-.134.621-.201.999-.201.409 0 .752.067 1.027.201.275.135.496.304.662.509.173.205.295.429.365.672.071.237.106.464.106.682 0 .268-.042.512-.125.729-.083.218-.195.419-.336.605-.141.179-.301.346-.48.499-.179.154-.365.298-.557.432-.192.135-.384.263-.576.384-.192.122-.371.243-.537.365-.16.122-.301.25-.423.384-.121.128-.205.266-.249.413h3.273z" fill="#666"/><path d="m653.9 153.252c.179.006.359-.006.538-.038s.339-.087.48-.164c.141-.083.253-.195.336-.336.089-.14.134-.313.134-.518 0-.288-.099-.518-.297-.691-.192-.173-.442-.259-.749-.259-.192 0-.359.038-.499.115-.141.077-.26.182-.356.317-.089.128-.156.275-.201.441-.045.16-.064.327-.058.499h-1.094c.013-.326.073-.627.182-.902.109-.282.256-.525.442-.73.192-.204.422-.364.691-.48.269-.115.573-.172.912-.172.262 0 .518.038.768.115.256.077.483.189.682.336.204.147.368.336.489.566.122.224.183.483.183.778 0 .339-.077.637-.231.893-.153.249-.393.432-.72.547v.019c.384.077.682.269.893.576.218.301.326.669.326 1.104 0 .32-.064.608-.192.864-.128.25-.3.464-.518.643-.218.173-.47.307-.758.403s-.592.144-.912.144c-.391 0-.733-.054-1.028-.163-.288-.115-.531-.275-.729-.48-.192-.205-.339-.451-.442-.739-.102-.288-.157-.608-.163-.96h1.094c-.012.41.087.752.298 1.027.218.269.541.403.97.403.364 0 .668-.102.912-.307.249-.211.374-.509.374-.893 0-.262-.051-.47-.154-.624-.102-.153-.236-.268-.403-.345-.166-.083-.355-.135-.566-.154-.205-.019-.416-.025-.634-.019z" fill="#666"/><path d="m107.206 128.923c0 .262.044.486.134.672.09.185.214.339.374.461.16.115.343.201.548.259.211.051.438.077.681.077.263 0 .487-.029.672-.087.186-.064.336-.144.451-.24.116-.096.199-.205.25-.326.051-.128.077-.256.077-.384 0-.263-.061-.455-.183-.576-.115-.128-.243-.218-.384-.269-.243-.09-.528-.173-.854-.25-.32-.083-.717-.188-1.19-.316-.295-.077-.541-.176-.74-.298-.192-.128-.345-.269-.46-.422-.116-.154-.199-.317-.25-.49-.045-.173-.067-.349-.067-.528 0-.346.07-.643.211-.893.147-.256.339-.467.576-.633.237-.167.506-.288.806-.365.301-.083.605-.125.912-.125.359 0 .695.048 1.008.144.32.09.599.227.836.413.243.185.435.416.576.691.14.269.211.582.211.941h-1.2c-.032-.442-.183-.752-.451-.931-.269-.186-.612-.279-1.028-.279-.14 0-.284.016-.432.048-.147.026-.281.074-.403.144-.121.064-.224.154-.307.269-.077.115-.115.259-.115.432 0 .243.073.435.221.576.153.134.352.237.595.307.025.007.125.035.297.087.18.044.378.096.596.153.217.058.428.115.633.173.211.051.362.09.451.115.224.071.42.167.586.288.166.122.304.263.413.423.115.153.198.32.249.499.058.179.087.358.087.537 0 .384-.08.714-.24.989-.154.269-.359.49-.615.663-.256.172-.547.297-.873.374-.327.083-.659.125-.999.125-.39 0-.758-.048-1.104-.144-.345-.096-.646-.243-.902-.442-.256-.198-.461-.451-.614-.758-.154-.314-.234-.682-.24-1.104zm9.642 2.285h-1.075v-.692h-.019c-.135.25-.336.452-.605.605-.262.147-.531.221-.806.221-.653 0-1.127-.16-1.421-.48-.288-.326-.432-.816-.432-1.469v-3.149h1.094v3.044c0 .435.083.742.25.921.166.179.4.269.701.269.23 0 .422-.035.576-.106.153-.07.278-.163.374-.278.096-.122.163-.266.202-.432.044-.166.067-.346.067-.538v-2.88h1.094zm1.154-4.964h1.037v.73l.019.019c.167-.275.384-.489.653-.643.269-.16.566-.24.893-.24.544 0 .973.141 1.286.422.314.282.471.704.471 1.268v3.408h-1.095v-3.12c-.013-.391-.096-.672-.249-.845-.154-.179-.394-.269-.72-.269-.186 0-.352.035-.5.106-.147.064-.272.156-.374.278-.102.115-.182.253-.24.413s-.086.329-.086.509v2.928h-1.095z" fill="#333"/><path d="m190.373 124.353h1.69l1.891 5.367h.019l1.843-5.367h1.671v6.855h-1.143v-5.29h-.019l-1.901 5.29h-.989l-1.9-5.29h-.02v5.29h-1.142zm10.672 6.989c-.397 0-.752-.064-1.066-.192-.307-.134-.569-.317-.787-.547-.211-.231-.374-.506-.489-.826-.109-.32-.164-.672-.164-1.056 0-.377.055-.726.164-1.046.115-.32.278-.595.489-.826.218-.23.48-.409.787-.537.314-.135.669-.202 1.066-.202s.749.067 1.056.202c.314.128.576.307.787.537.218.231.381.506.49.826.115.32.173.669.173 1.046 0 .384-.058.736-.173 1.056-.109.32-.272.595-.49.826-.211.23-.473.413-.787.547-.307.128-.659.192-1.056.192zm0-.864c.243 0 .454-.051.634-.154.179-.102.326-.236.441-.403.115-.166.199-.352.25-.557.057-.211.086-.425.086-.643 0-.211-.029-.422-.086-.633-.051-.212-.135-.397-.25-.557-.115-.167-.262-.301-.441-.403-.18-.103-.391-.154-.634-.154s-.454.051-.634.154c-.179.102-.326.236-.441.403-.115.16-.202.345-.259.557-.052.211-.077.422-.077.633 0 .218.025.432.077.643.057.205.144.391.259.557.115.167.262.301.441.403.18.103.391.154.634.154zm3.415-4.234h1.037v.73l.019.019c.167-.275.384-.489.653-.643.269-.16.567-.24.893-.24.544 0 .973.141 1.286.422.314.282.471.704.471 1.268v3.408h-1.095v-3.12c-.012-.391-.096-.672-.249-.845-.154-.179-.394-.269-.72-.269-.186 0-.352.035-.499.106-.148.064-.272.156-.375.278-.102.115-.182.253-.24.413-.057.16-.086.329-.086.509v2.928h-1.095z" fill="#333"/><path d="m275.305 124.353h5.549v1.037h-2.179v5.818h-1.2v-5.818h-2.17zm9.667 6.855h-1.075v-.692h-.019c-.134.25-.336.452-.605.605-.262.147-.531.221-.806.221-.653 0-1.127-.16-1.421-.48-.288-.326-.432-.816-.432-1.469v-3.149h1.094v3.044c0 .435.084.742.25.921s.4.269.701.269c.23 0 .422-.035.576-.106.153-.07.278-.163.374-.278.096-.122.163-.266.202-.432.045-.166.067-.346.067-.538v-2.88h1.094zm4.562-2.919c-.012-.173-.051-.339-.115-.499-.057-.16-.141-.298-.249-.413-.103-.121-.231-.217-.384-.288-.148-.077-.314-.115-.5-.115-.192 0-.368.035-.528.106-.153.064-.288.156-.403.278-.109.115-.198.253-.269.413-.064.16-.099.333-.105.518zm-2.553.72c0 .192.025.378.077.557.057.179.14.336.249.47.109.135.247.244.413.327.166.077.365.115.595.115.32 0 .576-.067.768-.202.199-.14.346-.348.442-.624h1.037c-.058.269-.157.509-.298.72-.141.212-.31.391-.509.538-.198.141-.422.246-.672.317-.243.077-.499.115-.768.115-.39 0-.736-.064-1.037-.192-.3-.128-.556-.307-.768-.538-.204-.23-.361-.505-.47-.825-.102-.32-.154-.672-.154-1.056 0-.352.055-.685.164-.999.115-.32.275-.598.48-.835.211-.243.464-.435.758-.576s.627-.211.998-.211c.391 0 .74.083 1.047.25.313.16.573.374.777.643.205.269.352.579.442.931.096.346.122.704.077 1.075z" fill="#333"/><path d="m358.93 124.353h1.219l1.238 5.242h.02l1.382-5.242h1.229l1.344 5.242h.019l1.277-5.242h1.219l-1.891 6.855h-1.219l-1.373-5.242h-.019l-1.402 5.242h-1.238zm12.823 3.936c-.013-.173-.051-.339-.115-.499-.058-.16-.141-.298-.25-.413-.102-.121-.23-.217-.384-.288-.147-.077-.313-.115-.499-.115-.192 0-.368.035-.528.106-.154.064-.288.156-.403.278-.109.115-.199.253-.269.413-.064.16-.099.333-.106.518zm-2.554.72c0 .192.026.378.077.557.058.179.141.336.25.47.109.135.246.244.413.327.166.077.364.115.595.115.32 0 .576-.067.768-.202.198-.14.345-.348.441-.624h1.037c-.057.269-.157.509-.297.72-.141.212-.311.391-.509.538-.199.141-.423.246-.672.317-.243.077-.499.115-.768.115-.391 0-.736-.064-1.037-.192s-.557-.307-.768-.538c-.205-.23-.362-.505-.47-.825-.103-.32-.154-.672-.154-1.056 0-.352.054-.685.163-.999.115-.32.275-.598.48-.835.211-.243.464-.435.759-.576.294-.141.627-.211.998-.211.39 0 .739.083 1.046.25.314.16.573.374.778.643s.352.579.442.931c.096.346.121.704.076 1.075zm9.156 2.199h-1.037v-.672h-.019c-.148.288-.362.496-.644.624-.281.121-.579.182-.892.182-.391 0-.733-.067-1.028-.202-.288-.14-.528-.329-.72-.566s-.336-.515-.432-.835c-.096-.327-.144-.675-.144-1.047 0-.448.061-.835.183-1.161.121-.327.281-.595.48-.807.205-.211.435-.364.691-.46.262-.103.528-.154.797-.154.153 0 .31.016.47.048.16.026.314.07.461.134s.282.148.403.25c.128.096.234.211.317.346h.019v-2.535h1.095zm-3.821-2.429c0 .211.025.419.077.624.057.205.14.387.249.547.115.16.259.288.432.384s.378.144.615.144c.243 0 .451-.051.624-.154.179-.102.323-.236.432-.403.115-.166.198-.352.249-.557.058-.211.087-.425.087-.643 0-.55-.125-.979-.375-1.286-.243-.307-.576-.461-.998-.461-.256 0-.474.054-.653.163-.173.103-.317.24-.432.413-.109.166-.189.358-.24.576-.045.211-.067.429-.067.653z" fill="#333"/><path d="m443.131 124.353h5.549v1.037h-2.18v5.818h-1.2v-5.818h-2.169zm6.19 0h1.094v2.544h.019c.135-.224.333-.409.595-.557.269-.153.567-.23.893-.23.544 0 .973.141 1.287.422.313.282.47.704.47 1.268v3.408h-1.094v-3.12c-.013-.391-.096-.672-.25-.845-.154-.179-.394-.269-.72-.269-.186 0-.352.035-.499.106-.147.064-.272.156-.375.278-.102.115-.182.253-.24.413-.057.16-.086.329-.086.509v2.928h-1.094zm9.87 6.855h-1.075v-.692h-.019c-.134.25-.336.452-.605.605-.262.147-.531.221-.806.221-.653 0-1.127-.16-1.421-.48-.288-.326-.432-.816-.432-1.469v-3.149h1.094v3.044c0 .435.084.742.25.921s.4.269.701.269c.23 0 .422-.035.576-.106.153-.07.278-.163.374-.278.096-.122.163-.266.202-.432.045-.166.067-.346.067-.538v-2.88h1.094zm1.155-4.964h1.027v.96h.019c.032-.134.093-.265.182-.393.096-.128.208-.243.336-.346.135-.109.282-.195.442-.259s.323-.096.49-.096c.128 0 .214.003.259.01.051.006.102.012.153.019v1.056c-.076-.013-.156-.023-.24-.029-.076-.013-.153-.019-.23-.019-.186 0-.362.038-.528.115-.16.07-.301.179-.422.326-.122.141-.218.317-.288.528-.071.212-.106.455-.106.73v2.362h-1.094z" fill="#333"/><path d="m532.315 124.353h4.732v1.037h-3.532v1.795h3.1v.979h-3.1v3.044h-1.2zm5.537 1.891h1.027v.96h.019c.032-.134.093-.265.183-.393.096-.128.208-.243.336-.346.134-.109.281-.195.441-.259s.323-.096.49-.096c.128 0 .214.003.259.01.051.006.102.012.154.019v1.056c-.077-.013-.157-.023-.24-.029-.077-.013-.154-.019-.231-.019-.185 0-.361.038-.528.115-.16.07-.301.179-.422.326-.122.141-.218.317-.288.528-.071.212-.106.455-.106.73v2.362h-1.094zm3.404-1.891h1.094v1.037h-1.094zm0 1.891h1.094v4.964h-1.094z" fill="#333"/><path d="m618.709 128.923c0 .262.045.486.134.672.09.185.215.339.375.461.16.115.342.201.547.259.211.051.438.077.682.077.262 0 .486-.029.672-.087.185-.064.336-.144.451-.24s.198-.205.249-.326c.052-.128.077-.256.077-.384 0-.263-.061-.455-.182-.576-.115-.128-.243-.218-.384-.269-.243-.09-.528-.173-.855-.25-.32-.083-.716-.188-1.19-.316-.294-.077-.541-.176-.739-.298-.192-.128-.346-.269-.461-.422-.115-.154-.198-.317-.25-.49-.044-.173-.067-.349-.067-.528 0-.346.071-.643.211-.893.148-.256.34-.467.576-.633.237-.167.506-.288.807-.365.301-.083.605-.125.912-.125.358 0 .694.048 1.008.144.32.09.598.227.835.413.243.185.435.416.576.691.141.269.211.582.211.941h-1.2c-.032-.442-.182-.752-.451-.931-.269-.186-.611-.279-1.027-.279-.141 0-.285.016-.432.048-.147.026-.282.074-.403.144-.122.064-.224.154-.308.269-.076.115-.115.259-.115.432 0 .243.074.435.221.576.154.134.352.237.595.307.026.007.125.035.298.087.179.044.377.096.595.153.218.058.429.115.634.173.211.051.361.09.451.115.224.071.419.167.585.288.167.122.304.263.413.423.115.153.199.32.25.499.057.179.086.358.086.537 0 .384-.08.714-.24.989-.153.269-.358.49-.614.663-.256.172-.547.297-.874.374-.326.083-.659.125-.998.125-.391 0-.759-.048-1.104-.144-.346-.096-.647-.243-.903-.442-.256-.198-.46-.451-.614-.758-.154-.314-.234-.682-.24-1.104zm9.441 1.181c0 .134.016.23.048.288.038.057.109.086.211.086h.115c.045 0 .096-.006.154-.019v.758c-.038.013-.09.026-.154.039-.057.019-.118.035-.182.048-.064.012-.128.022-.192.028-.064.007-.118.01-.163.01-.224 0-.41-.045-.557-.134-.147-.09-.243-.247-.288-.471-.218.211-.486.365-.806.461-.314.096-.618.144-.912.144-.224 0-.439-.032-.644-.096-.204-.058-.387-.144-.547-.259-.153-.122-.278-.272-.374-.451-.09-.186-.135-.4-.135-.644 0-.307.055-.556.164-.748.115-.192.262-.343.441-.452.186-.108.391-.185.615-.23.23-.051.46-.09.691-.115.198-.039.387-.064.566-.077.179-.019.336-.048.471-.086.14-.039.249-.096.326-.173.083-.083.125-.205.125-.365 0-.141-.035-.256-.106-.346-.064-.089-.147-.156-.249-.201-.096-.051-.205-.083-.327-.096-.121-.019-.237-.029-.345-.029-.308 0-.56.064-.759.192-.198.128-.31.326-.336.595h-1.094c.019-.32.096-.585.23-.797.135-.211.304-.38.509-.508.211-.128.448-.218.71-.269.263-.051.532-.077.807-.077.243 0 .483.026.72.077s.448.134.633.249c.192.116.346.266.461.452.115.179.173.4.173.662zm-1.094-1.383c-.167.109-.372.176-.615.202-.243.019-.486.051-.729.096-.116.019-.228.048-.336.086-.109.032-.205.08-.288.144-.084.058-.151.138-.202.24-.045.096-.067.215-.067.355 0 .122.035.224.105.308.071.083.154.15.25.201.102.045.211.077.326.096.122.019.231.029.327.029.121 0 .253-.016.393-.048.141-.032.272-.086.394-.163.128-.077.234-.173.317-.288.083-.122.125-.269.125-.442zm1.772-2.477h.826v-1.488h1.094v1.488h.989v.816h-.989v2.65c0 .115.004.214.01.298.013.083.035.153.067.211.039.057.093.102.163.134.071.026.167.039.288.039h.231c.077-.007.153-.02.23-.039v.845c-.121.013-.24.026-.355.038-.115.013-.234.02-.355.02-.288 0-.522-.026-.701-.077-.173-.058-.31-.138-.413-.24-.096-.109-.163-.243-.201-.403-.032-.16-.052-.343-.058-.548v-2.928h-.826z" fill="#333"/><g fill="#666"><path d="m142.53 238.907h2.035v-2.957h-.019zm3.936.864h-.864v1.594h-1.037v-1.594h-2.88v-1.085l2.88-4.041h1.037v4.262h.864z"/><path d="m227.852 234.645h3.475v.979h-2.659l-.346 1.709.019.019c.148-.166.333-.291.557-.374.231-.09.458-.135.682-.135.333 0 .63.058.893.173.262.109.483.266.662.47.179.199.314.436.403.711.096.275.144.573.144.893 0 .268-.045.547-.134.835-.083.281-.221.541-.413.777-.186.231-.426.423-.72.576-.294.148-.646.221-1.056.221-.326 0-.63-.045-.912-.134-.275-.083-.518-.211-.73-.384-.211-.173-.38-.384-.508-.634-.122-.256-.189-.553-.202-.893h1.094c.032.365.157.647.375.845.217.192.505.288.864.288.23 0 .425-.038.585-.115s.288-.182.384-.317c.103-.134.173-.291.212-.47.044-.179.067-.371.067-.576 0-.186-.026-.362-.077-.528-.051-.173-.128-.323-.23-.451-.103-.128-.237-.231-.404-.308-.16-.076-.348-.115-.566-.115-.23 0-.448.045-.653.135-.198.083-.342.243-.432.48h-1.094z"/><path d="m314.639 236.344c-.025-.275-.124-.496-.297-.662-.167-.173-.394-.26-.682-.26-.198 0-.371.039-.518.116-.141.07-.263.166-.365.288-.096.121-.176.262-.24.422-.058.154-.106.317-.144.49-.038.172-.067.345-.086.518-.013.166-.026.323-.039.47l.019.02c.148-.269.349-.468.605-.596.263-.134.544-.201.845-.201.333 0 .63.057.893.173.262.115.483.275.662.48.186.198.327.435.423.71s.144.573.144.893c0 .326-.055.63-.164.912-.102.275-.252.518-.451.729-.198.205-.435.365-.71.48-.275.116-.579.173-.912.173-.493 0-.899-.089-1.219-.269-.314-.185-.564-.435-.749-.748-.179-.32-.304-.692-.375-1.114-.07-.429-.105-.89-.105-1.382 0-.404.041-.81.125-1.22.089-.409.233-.78.432-1.113.198-.339.457-.615.777-.826.327-.211.727-.317 1.2-.317.269 0 .522.045.759.135.236.089.444.214.624.374.185.16.336.352.451.576s.179.474.192.749zm-1.056 4.243c.199 0 .372-.038.519-.115.147-.083.269-.189.365-.317.102-.128.176-.275.22-.441.052-.173.077-.349.077-.528 0-.18-.025-.352-.077-.519-.044-.166-.118-.31-.22-.432-.096-.128-.218-.23-.365-.307s-.32-.115-.519-.115c-.198 0-.374.038-.528.115-.147.07-.272.17-.374.298-.102.121-.179.265-.23.432-.052.166-.077.342-.077.528 0 .185.025.361.077.528.051.166.128.316.23.451.102.128.227.23.374.307.154.077.33.115.528.115z"/><path d="m396.399 234.645h4.599v.912c-.352.397-.672.809-.96 1.238-.288.423-.541.874-.759 1.354-.211.473-.384.976-.518 1.507s-.224 1.101-.269 1.709h-1.2c.039-.531.128-1.056.269-1.575.147-.518.333-1.02.557-1.507.23-.486.496-.953.797-1.401.3-.448.624-.868.969-1.258h-3.485z"/><path d="m482.909 235.374c-.294 0-.544.09-.748.269-.205.173-.308.426-.308.759 0 .32.1.566.298.739.198.166.451.249.758.249.308 0 .56-.083.759-.249.198-.173.297-.419.297-.739 0-.333-.102-.586-.307-.759-.205-.179-.454-.269-.749-.269zm0 6.125c-.339 0-.656-.048-.95-.144-.288-.096-.538-.233-.749-.413-.211-.185-.377-.409-.499-.672-.115-.262-.173-.556-.173-.883 0-.422.109-.777.327-1.065.224-.288.524-.48.902-.576v-.02c-.307-.115-.544-.291-.71-.528-.16-.243-.24-.528-.24-.854 0-.576.179-1.024.537-1.344.365-.326.883-.49 1.555-.49s1.188.164 1.546.49c.365.32.547.768.547 1.344 0 .326-.083.611-.249.854-.16.237-.394.413-.701.528v.02c.377.096.675.288.893.576.224.288.336.643.336 1.065 0 .327-.061.621-.183.883-.115.263-.278.487-.489.672-.212.18-.464.317-.759.413-.288.096-.601.144-.941.144zm0-.864c.365 0 .669-.109.912-.326.244-.218.365-.525.365-.922 0-.371-.121-.659-.365-.864-.243-.211-.547-.317-.912-.317-.364 0-.668.106-.912.317-.243.205-.364.493-.364.864 0 .397.121.704.364.922.244.217.548.326.912.326z"/><path d="m565.963 239.666c.025.275.121.499.288.672.172.166.403.249.691.249.294 0 .528-.077.701-.23.179-.16.316-.355.412-.586.096-.237.16-.486.192-.749.039-.268.068-.515.087-.739l-.019-.019c-.148.262-.349.464-.605.605-.256.134-.538.201-.845.201-.32 0-.611-.054-.874-.163-.256-.109-.476-.259-.662-.451-.186-.198-.33-.435-.432-.71-.102-.282-.154-.596-.154-.941 0-.327.052-.627.154-.903.102-.281.253-.524.451-.729.199-.211.442-.375.73-.49s.614-.173.979-.173c.474 0 .864.093 1.171.279.307.179.547.429.72.749.179.313.304.684.375 1.113.07.429.105.887.105 1.373 0 .403-.045.81-.134 1.219-.083.41-.224.784-.423 1.123-.198.333-.46.605-.787.816-.32.212-.717.317-1.19.317-.269 0-.522-.045-.759-.134-.236-.09-.448-.215-.633-.375-.179-.16-.327-.352-.442-.576s-.179-.473-.192-.748zm1.046-4.244c-.198 0-.371.039-.518.116-.148.07-.269.169-.365.297s-.17.275-.221.442c-.045.166-.067.339-.067.518 0 .186.022.365.067.538.051.166.125.313.221.441s.217.234.365.317c.147.077.32.115.518.115.205 0 .384-.038.538-.115.153-.077.278-.179.374-.307.102-.134.179-.285.23-.451.052-.173.077-.352.077-.538 0-.179-.025-.352-.077-.518-.051-.167-.128-.311-.23-.432-.096-.128-.221-.231-.374-.307-.154-.077-.333-.116-.538-.116z"/><path d="m647.405 235.758c.231 0 .455-.019.672-.057.218-.039.413-.103.586-.192.179-.09.33-.205.451-.346.128-.141.211-.313.25-.518h.893v6.72h-1.2v-4.743h-1.652zm7.495-1.248c.48 0 .87.112 1.171.336.307.218.544.5.71.845.173.339.288.714.346 1.123.064.41.096.807.096 1.191s-.032.781-.096 1.19c-.058.41-.173.787-.346 1.133-.166.339-.403.621-.71.845-.301.217-.691.326-1.171.326s-.874-.109-1.181-.326c-.301-.224-.538-.506-.71-.845-.167-.346-.282-.723-.346-1.133-.058-.409-.086-.806-.086-1.19s.028-.781.086-1.191c.064-.409.179-.784.346-1.123.172-.345.409-.627.71-.845.307-.224.701-.336 1.181-.336zm0 6.077c.237 0 .435-.067.595-.201.16-.141.285-.327.374-.557.096-.237.164-.512.202-.826.038-.313.058-.646.058-.998s-.02-.682-.058-.989c-.038-.314-.106-.589-.202-.826-.089-.236-.214-.422-.374-.556-.16-.141-.358-.212-.595-.212-.243 0-.445.071-.605.212-.154.134-.278.32-.374.556-.09.237-.154.512-.192.826-.039.307-.058.637-.058.989s.019.685.058.998c.038.314.102.589.192.826.096.23.22.416.374.557.16.134.362.201.605.201z"/><path d="m137.149 311.621c.23 0 .454-.019.672-.057.217-.039.413-.103.585-.192.18-.09.33-.205.452-.346.128-.141.211-.314.249-.518h.893v6.72h-1.2v-4.743h-1.651zm5.334 0c.231 0 .455-.019.672-.057.218-.039.413-.103.586-.192.179-.09.329-.205.451-.346.128-.141.211-.314.25-.518h.892v6.72h-1.2v-4.743h-1.651z"/><path d="m222.365 311.621c.23 0 .454-.019.672-.057.217-.039.413-.103.585-.192.18-.09.33-.205.452-.346.128-.141.211-.314.249-.518h.893v6.72h-1.2v-4.743h-1.651zm9.789 5.607h-4.589c.006-.557.141-1.044.403-1.46s.621-.777 1.075-1.084c.218-.16.445-.314.682-.461.237-.154.454-.317.653-.49.198-.173.361-.358.489-.557.128-.204.195-.438.202-.7 0-.122-.016-.25-.048-.384-.026-.141-.08-.269-.163-.384-.084-.122-.199-.221-.346-.298-.147-.083-.339-.125-.576-.125-.218 0-.4.045-.547.135-.141.083-.256.201-.346.355-.083.147-.147.323-.192.528-.038.205-.061.425-.067.662h-1.094c0-.371.048-.713.144-1.027.102-.32.252-.595.451-.826.198-.23.438-.409.72-.537.288-.135.621-.202.998-.202.41 0 .752.067 1.027.202.276.134.496.304.663.509.173.204.294.428.365.672.07.236.105.464.105.681 0 .269-.041.512-.125.73-.083.217-.195.419-.336.605-.14.179-.3.345-.48.499-.179.153-.364.297-.556.432-.192.134-.384.262-.576.384-.192.121-.372.243-.538.365-.16.121-.301.249-.422.384-.122.128-.205.265-.25.412h3.274z"/><path d="m306.542 311.621c.23 0 .454-.019.672-.057.218-.039.413-.103.586-.192.179-.09.329-.205.451-.346.128-.141.211-.314.249-.518h.893v6.72h-1.2v-4.743h-1.651zm7.014 1.671c.18.006.359-.007.538-.039s.339-.086.48-.163c.141-.083.253-.195.336-.336.09-.141.134-.314.134-.518 0-.288-.099-.519-.297-.692-.192-.172-.442-.259-.749-.259-.192 0-.358.039-.499.115-.141.077-.259.183-.355.317-.09.128-.157.275-.202.442-.045.16-.064.326-.058.499h-1.094c.013-.326.074-.627.182-.902.109-.282.256-.525.442-.73.192-.205.422-.365.691-.48s.573-.173.912-.173c.263 0 .519.039.768.115.256.077.483.189.682.336.205.148.368.336.489.567.122.224.183.483.183.777 0 .34-.077.637-.231.893-.153.25-.393.432-.72.547v.02c.384.076.682.268.893.576.218.3.327.668.327 1.104 0 .32-.064.608-.192.864-.128.249-.301.464-.519.643-.217.173-.47.307-.758.403s-.592.144-.912.144c-.391 0-.733-.054-1.027-.163-.288-.115-.532-.275-.73-.48-.192-.205-.339-.451-.442-.739-.102-.288-.156-.608-.163-.96h1.095c-.013.409.086.752.297 1.027.218.269.541.403.97.403.365 0 .669-.102.912-.307.249-.211.374-.509.374-.893 0-.262-.051-.47-.153-.624-.103-.154-.237-.269-.404-.346-.166-.083-.355-.134-.566-.153-.205-.019-.416-.026-.634-.019z"/><path d="m391.757 311.621c.231 0 .455-.019.672-.057.218-.039.413-.103.586-.192.179-.09.33-.205.451-.346.128-.141.211-.314.25-.518h.893v6.72h-1.2v-4.743h-1.652zm5.901 3.149h2.035v-2.957h-.019zm3.936.864h-.864v1.594h-1.037v-1.594h-2.88v-1.085l2.88-4.041h1.037v4.262h.864z"/><path d="m475.934 311.621c.231 0 .455-.019.672-.057.218-.039.413-.103.586-.192.179-.09.33-.205.451-.346.128-.141.211-.314.25-.518h.893v6.72h-1.2v-4.743h-1.652zm6.007-1.113h3.475v.979h-2.659l-.346 1.709.019.019c.148-.167.333-.291.557-.375.231-.089.458-.134.682-.134.333 0 .63.058.893.173.262.109.483.265.662.47.179.199.314.435.403.711.096.275.144.572.144.892 0 .269-.045.548-.134.836-.083.281-.221.54-.413.777-.186.231-.426.423-.72.576-.294.147-.646.221-1.056.221-.326 0-.63-.045-.912-.134-.275-.084-.518-.212-.73-.384-.211-.173-.38-.384-.508-.634-.122-.256-.189-.554-.202-.893h1.094c.032.365.157.647.375.845.217.192.505.288.864.288.23 0 .425-.038.585-.115s.288-.183.384-.317c.103-.134.173-.291.212-.47.044-.18.067-.372.067-.576 0-.186-.026-.362-.077-.528-.051-.173-.128-.324-.23-.452-.103-.128-.237-.23-.404-.307-.16-.077-.348-.115-.566-.115-.23 0-.448.045-.653.134-.198.084-.342.244-.432.48h-1.094z"/><path d="m560.111 311.621c.23 0 .454-.019.672-.057.217-.039.413-.103.585-.192.18-.09.33-.205.452-.346.128-.141.211-.314.249-.518h.893v6.72h-1.2v-4.743h-1.651zm8.617.586c-.025-.275-.124-.496-.297-.663-.167-.172-.394-.259-.682-.259-.198 0-.371.039-.518.115-.141.071-.263.167-.365.288-.096.122-.176.263-.24.423-.058.153-.106.317-.144.489-.038.173-.067.346-.086.519-.013.166-.026.323-.039.47l.019.019c.148-.268.349-.467.605-.595.263-.134.544-.201.845-.201.333 0 .63.057.893.172.262.116.483.276.662.48.186.199.327.436.423.711s.144.573.144.893c0 .326-.055.63-.164.912-.102.275-.252.518-.451.729-.198.205-.435.365-.71.48s-.579.173-.912.173c-.493 0-.899-.09-1.219-.269-.314-.185-.564-.435-.749-.749-.179-.32-.304-.691-.375-1.113-.07-.429-.105-.89-.105-1.383 0-.403.041-.809.125-1.219.089-.409.233-.781.432-1.113.198-.34.457-.615.777-.826.327-.211.727-.317 1.2-.317.269 0 .522.045.759.135.236.089.444.214.624.374.185.16.336.352.451.576s.179.474.192.749zm-1.056 4.243c.199 0 .372-.038.519-.115.147-.083.269-.189.365-.317.102-.128.176-.275.22-.442.052-.172.077-.348.077-.528 0-.179-.025-.352-.077-.518-.044-.166-.118-.31-.22-.432-.096-.128-.218-.23-.365-.307s-.32-.115-.519-.115c-.198 0-.374.038-.528.115-.147.07-.272.169-.374.297-.102.122-.179.266-.23.432-.052.167-.077.343-.077.528 0 .186.025.362.077.528.051.167.128.317.23.452.102.128.227.23.374.307.154.077.33.115.528.115z"/><path d="m647.405 311.621c.231 0 .455-.019.672-.057.218-.039.413-.103.586-.192.179-.09.33-.205.451-.346.128-.141.211-.314.25-.518h.893v6.72h-1.2v-4.743h-1.652zm5.162-1.113h4.598v.912c-.352.396-.672.809-.96 1.238-.288.422-.54.874-.758 1.354-.211.473-.384.976-.518 1.507-.135.531-.224 1.101-.269 1.709h-1.2c.038-.532.128-1.056.269-1.575.147-.518.332-1.021.556-1.507.231-.486.496-.954.797-1.402s.624-.867.97-1.257h-3.485z"/><path d="m137.149 387.484c.23 0 .454-.019.672-.057.217-.039.413-.103.585-.192.18-.09.33-.205.452-.346.128-.141.211-.314.249-.518h.893v6.72h-1.2v-4.743h-1.651zm7.494-.384c-.294 0-.544.09-.749.269-.204.173-.307.426-.307.758 0 .32.099.567.298.74.198.166.451.249.758.249s.56-.083.759-.249c.198-.173.297-.42.297-.74 0-.332-.102-.585-.307-.758-.205-.179-.454-.269-.749-.269zm0 6.125c-.339 0-.656-.048-.95-.144-.288-.096-.538-.234-.749-.413-.211-.185-.378-.409-.499-.672-.115-.262-.173-.557-.173-.883 0-.422.109-.778.326-1.066.224-.288.525-.48.903-.576v-.019c-.307-.115-.544-.291-.711-.528-.16-.243-.24-.528-.24-.854 0-.576.18-1.024.538-1.344.365-.327.883-.49 1.555-.49s1.187.163 1.546.49c.365.32.547.768.547 1.344 0 .326-.083.611-.25.854-.16.237-.393.413-.7.528v.019c.377.096.675.288.892.576.224.288.336.644.336 1.066 0 .326-.06.621-.182.883-.115.263-.278.487-.49.672-.211.179-.464.317-.758.413-.288.096-.602.144-.941.144zm0-.864c.365 0 .669-.109.912-.326.243-.218.365-.525.365-.922 0-.371-.122-.659-.365-.864-.243-.211-.547-.317-.912-.317s-.669.106-.912.317c-.243.205-.365.493-.365.864 0 .397.122.704.365.922.243.217.547.326.912.326z"/><path d="m222.365 387.484c.23 0 .454-.019.672-.057.217-.039.413-.103.585-.192.18-.09.33-.205.452-.346.128-.141.211-.314.249-.518h.893v6.72h-1.2v-4.743h-1.651zm6.371 3.907c.026.276.122.5.288.672.173.167.403.25.691.25.295 0 .528-.077.701-.23.179-.16.317-.356.413-.586.096-.237.16-.486.192-.749.038-.269.067-.515.086-.739l-.019-.019c-.147.262-.349.464-.605.605-.256.134-.537.201-.845.201-.32 0-.611-.054-.873-.163-.256-.109-.477-.259-.663-.451-.185-.199-.329-.435-.432-.711-.102-.281-.153-.595-.153-.94 0-.327.051-.628.153-.903.103-.281.253-.525.452-.729.198-.212.441-.375.729-.49s.615-.173.979-.173c.474 0 .864.093 1.172.279.307.179.547.428.72.748.179.314.304.685.374 1.114s.106.886.106 1.373c0 .403-.045.809-.135 1.219-.083.41-.224.784-.422 1.123-.199.333-.461.605-.787.816-.32.211-.717.317-1.191.317-.269 0-.521-.045-.758-.134-.237-.09-.448-.215-.634-.375-.179-.16-.326-.352-.441-.576-.116-.224-.18-.473-.192-.749zm1.046-4.243c-.198 0-.371.039-.518.115-.147.071-.269.17-.365.298s-.169.275-.221.442c-.044.166-.067.339-.067.518 0 .186.023.365.067.538.052.166.125.313.221.441s.218.234.365.317c.147.077.32.115.518.115.205 0 .384-.038.538-.115s.278-.179.374-.307c.103-.135.18-.285.231-.451.051-.173.077-.352.077-.538 0-.179-.026-.352-.077-.518-.051-.167-.128-.311-.231-.432-.096-.128-.22-.231-.374-.308-.154-.076-.333-.115-.538-.115z"/><path d="m310.996 393.091h-4.588c.006-.557.14-1.044.403-1.46.262-.416.621-.777 1.075-1.084.218-.16.445-.314.682-.461.236-.154.454-.317.652-.49.199-.173.362-.358.49-.557.128-.204.195-.438.202-.7 0-.122-.016-.25-.048-.384-.026-.141-.08-.269-.164-.384-.083-.122-.198-.221-.345-.298-.147-.083-.339-.125-.576-.125-.218 0-.4.045-.547.135-.141.083-.256.201-.346.355-.083.147-.147.323-.192.528-.038.205-.061.425-.067.662h-1.095c0-.371.048-.713.144-1.027.103-.32.253-.595.452-.826.198-.23.438-.409.72-.537.288-.135.62-.202.998-.202.41 0 .752.067 1.027.202.275.134.496.304.663.509.172.204.294.428.364.672.071.236.106.464.106.681 0 .269-.042.512-.125.73-.083.217-.195.419-.336.605-.141.179-.301.345-.48.499-.179.153-.365.297-.557.432-.192.134-.384.262-.576.384-.192.121-.371.243-.537.365-.16.121-.301.249-.423.384-.121.128-.204.265-.249.412h3.273zm3.04-6.855c.48 0 .871.112 1.172.336.307.218.544.499.71.845.173.339.288.714.346 1.123.064.41.096.807.096 1.191s-.032.78-.096 1.19c-.058.41-.173.787-.346 1.133-.166.339-.403.621-.71.845-.301.217-.692.326-1.172.326s-.873-.109-1.18-.326c-.301-.224-.538-.506-.711-.845-.166-.346-.281-.723-.345-1.133-.058-.41-.087-.806-.087-1.19s.029-.781.087-1.191c.064-.409.179-.784.345-1.123.173-.346.41-.627.711-.845.307-.224.7-.336 1.18-.336zm0 6.077c.237 0 .436-.067.596-.202.16-.14.284-.326.374-.556.096-.237.163-.512.202-.826.038-.314.057-.646.057-.998s-.019-.682-.057-.989c-.039-.314-.106-.589-.202-.826-.09-.237-.214-.422-.374-.557-.16-.14-.359-.211-.596-.211-.243 0-.444.071-.604.211-.154.135-.279.32-.375.557-.089.237-.153.512-.192.826-.038.307-.057.637-.057.989s.019.684.057.998c.039.314.103.589.192.826.096.23.221.416.375.556.16.135.361.202.604.202z"/><path d="m396.212 393.091h-4.589c.006-.557.141-1.044.403-1.46.263-.416.621-.777 1.075-1.084.218-.16.445-.314.682-.461.237-.154.454-.317.653-.49.198-.173.361-.358.489-.557.128-.204.196-.438.202-.7 0-.122-.016-.25-.048-.384-.026-.141-.08-.269-.163-.384-.083-.122-.199-.221-.346-.298-.147-.083-.339-.125-.576-.125-.217 0-.4.045-.547.135-.141.083-.256.201-.346.355-.083.147-.147.323-.192.528-.038.205-.06.425-.067.662h-1.094c0-.371.048-.713.144-1.027.102-.32.253-.595.451-.826.198-.23.438-.409.72-.537.288-.135.621-.202.998-.202.41 0 .752.067 1.028.202.275.134.496.304.662.509.173.204.294.428.365.672.07.236.105.464.105.681 0 .269-.041.512-.124.73-.084.217-.196.419-.336.605-.141.179-.301.345-.48.499-.18.153-.365.297-.557.432-.192.134-.384.262-.576.384-.192.121-.371.243-.538.365-.16.121-.301.249-.422.384-.122.128-.205.265-.25.412h3.274zm.88-5.607c.23 0 .454-.019.672-.057.217-.039.413-.103.585-.192.18-.09.33-.205.452-.346.128-.141.211-.314.249-.518h.893v6.72h-1.2v-4.743h-1.651z"/><path d="m480.389 393.091h-4.589c.006-.557.141-1.044.403-1.46.263-.416.621-.777 1.075-1.084.218-.16.445-.314.682-.461.237-.154.454-.317.653-.49.198-.173.361-.358.489-.557.128-.204.196-.438.202-.7 0-.122-.016-.25-.048-.384-.026-.141-.08-.269-.163-.384-.083-.122-.199-.221-.346-.298-.147-.083-.339-.125-.576-.125-.217 0-.4.045-.547.135-.141.083-.256.201-.346.355-.083.147-.147.323-.192.528-.038.205-.06.425-.067.662h-1.094c0-.371.048-.713.144-1.027.102-.32.253-.595.451-.826.198-.23.438-.409.72-.537.288-.135.621-.202.998-.202.41 0 .752.067 1.028.202.275.134.496.304.662.509.173.204.294.428.365.672.07.236.105.464.105.681 0 .269-.041.512-.124.73-.084.217-.196.419-.336.605-.141.179-.301.345-.48.499-.18.153-.365.297-.557.432-.192.134-.384.262-.576.384-.192.121-.371.243-.538.365-.16.121-.301.249-.422.384-.122.128-.205.265-.25.412h3.274zm5.334 0h-4.589c.007-.557.141-1.044.404-1.46.262-.416.62-.777 1.075-1.084.217-.16.445-.314.681-.461.237-.154.455-.317.653-.49.199-.173.362-.358.49-.557.128-.204.195-.438.201-.7 0-.122-.016-.25-.048-.384-.025-.141-.08-.269-.163-.384-.083-.122-.198-.221-.345-.298-.148-.083-.34-.125-.576-.125-.218 0-.4.045-.548.135-.14.083-.256.201-.345.355-.083.147-.147.323-.192.528-.039.205-.061.425-.067.662h-1.095c0-.371.048-.713.144-1.027.103-.32.253-.595.451-.826.199-.23.439-.409.72-.537.288-.135.621-.202.999-.202.409 0 .752.067 1.027.202.275.134.496.304.662.509.173.204.295.428.365.672.071.236.106.464.106.681 0 .269-.042.512-.125.73-.083.217-.195.419-.336.605-.141.179-.301.345-.48.499-.179.153-.365.297-.557.432-.192.134-.384.262-.576.384-.192.121-.371.243-.537.365-.16.121-.301.249-.423.384-.121.128-.205.265-.249.412h3.273z"/><path d="m564.565 393.091h-4.589c.007-.557.141-1.044.404-1.46.262-.416.62-.777 1.075-1.084.217-.16.445-.314.681-.461.237-.154.455-.317.653-.49.199-.173.362-.358.49-.557.128-.204.195-.438.201-.7 0-.122-.016-.25-.048-.384-.025-.141-.08-.269-.163-.384-.083-.122-.198-.221-.345-.298-.148-.083-.34-.125-.576-.125-.218 0-.4.045-.548.135-.14.083-.256.201-.345.355-.083.147-.147.323-.192.528-.039.205-.061.425-.067.662h-1.095c0-.371.048-.713.144-1.027.103-.32.253-.595.451-.826.199-.23.439-.409.72-.537.288-.135.621-.202.999-.202.409 0 .752.067 1.027.202.275.134.496.304.662.509.173.204.295.428.365.672.071.236.106.464.106.681 0 .269-.042.512-.125.73-.083.217-.195.419-.336.605-.141.179-.301.345-.48.499-.179.153-.365.297-.557.432-.192.134-.384.262-.576.384-.192.121-.371.243-.537.365-.16.121-.301.249-.423.384-.121.128-.205.265-.249.412h3.273zm2.56-3.936c.179.006.359-.007.538-.039s.339-.086.48-.163c.141-.083.253-.195.336-.336.089-.141.134-.314.134-.518 0-.288-.099-.519-.297-.692-.192-.172-.442-.259-.749-.259-.192 0-.359.039-.499.115-.141.077-.26.183-.356.317-.089.128-.156.275-.201.442-.045.16-.064.326-.058.499h-1.094c.013-.326.073-.627.182-.902.109-.282.256-.525.442-.73.192-.205.422-.365.691-.48s.573-.173.912-.173c.262 0 .518.039.768.115.256.077.483.189.682.336.204.148.368.336.489.567.122.224.183.483.183.777 0 .34-.077.637-.231.893-.153.25-.393.432-.72.547v.02c.384.076.682.268.893.576.218.3.326.668.326 1.104 0 .32-.064.608-.192.864-.128.249-.3.464-.518.643-.218.173-.47.307-.758.403s-.592.144-.912.144c-.391 0-.733-.054-1.028-.163-.288-.115-.531-.275-.729-.48-.192-.205-.339-.451-.442-.739-.102-.288-.157-.608-.163-.96h1.094c-.012.409.087.752.298 1.027.218.269.541.403.97.403.364 0 .668-.102.912-.307.249-.211.374-.509.374-.893 0-.262-.051-.47-.154-.624-.102-.154-.236-.269-.403-.346-.166-.083-.355-.134-.566-.153-.205-.019-.416-.026-.634-.019z"/><path d="m651.86 393.091h-4.589c.006-.557.141-1.044.403-1.46.263-.416.621-.777 1.075-1.084.218-.16.445-.314.682-.461.237-.154.454-.317.653-.49.198-.173.361-.358.489-.557.128-.204.196-.438.202-.7 0-.122-.016-.25-.048-.384-.026-.141-.08-.269-.163-.384-.083-.122-.199-.221-.346-.298-.147-.083-.339-.125-.576-.125-.217 0-.4.045-.547.135-.141.083-.256.201-.346.355-.083.147-.147.323-.192.528-.038.205-.06.425-.067.662h-1.094c0-.371.048-.713.144-1.027.102-.32.253-.595.451-.826.198-.23.438-.409.72-.537.288-.135.621-.202.998-.202.41 0 .752.067 1.028.202.275.134.496.304.662.509.173.204.294.428.365.672.07.236.105.464.105.681 0 .269-.041.512-.124.73-.084.217-.196.419-.336.605-.141.179-.301.345-.48.499-.18.153-.365.297-.557.432-.192.134-.384.262-.576.384-.192.121-.371.243-.538.365-.16.121-.301.249-.422.384-.122.128-.205.265-.25.412h3.274zm1.446-2.458h2.035v-2.957h-.019zm3.936.864h-.864v1.594h-1.037v-1.594h-2.88v-1.085l2.88-4.041h1.037v4.262h.864z"/><path d="m141.603 468.954h-4.589c.007-.557.141-1.044.404-1.46.262-.416.62-.777 1.075-1.084.217-.16.445-.314.681-.461.237-.154.455-.317.653-.49.199-.173.362-.358.49-.557.128-.204.195-.438.201-.7 0-.122-.016-.25-.048-.384-.025-.141-.08-.269-.163-.384-.083-.122-.198-.221-.345-.298-.148-.083-.34-.125-.576-.125-.218 0-.4.045-.548.135-.14.083-.256.201-.345.355-.083.147-.147.323-.192.528-.039.205-.061.425-.067.662h-1.095c0-.371.048-.713.144-1.027.103-.32.253-.595.451-.826.199-.23.439-.409.72-.537.288-.135.621-.202.999-.202.409 0 .752.067 1.027.202.275.134.496.304.662.509.173.204.295.428.365.672.071.236.106.464.106.681 0 .269-.042.512-.125.73-.083.217-.195.419-.336.605-.141.179-.301.345-.48.499-.179.153-.365.297-.557.432-.192.134-.384.262-.576.384-.192.121-.371.243-.537.365-.16.121-.301.249-.423.384-.121.128-.205.265-.249.412h3.273zm1.552-6.72h3.475v.979h-2.659l-.345 1.709.019.019c.147-.167.333-.291.557-.375.23-.089.457-.134.681-.134.333 0 .631.058.893.173.262.109.483.265.662.47.18.199.314.435.404.711.096.275.144.572.144.892 0 .269-.045.548-.135.836-.083.281-.221.54-.413.777-.185.231-.425.423-.72.576-.294.147-.646.221-1.056.221-.326 0-.63-.045-.912-.134-.275-.084-.518-.212-.729-.384-.211-.173-.381-.384-.509-.634-.122-.256-.189-.554-.202-.893h1.095c.032.365.157.647.374.845.218.192.506.288.864.288.231 0 .426-.038.586-.115s.288-.183.384-.317c.102-.134.173-.291.211-.47.045-.18.067-.372.067-.576 0-.186-.025-.362-.077-.528-.051-.173-.128-.324-.23-.452s-.237-.23-.403-.307c-.16-.077-.349-.115-.567-.115-.23 0-.448.045-.652.134-.199.084-.343.244-.432.48h-1.095z"/><path d="m226.819 468.954h-4.589c.007-.557.141-1.044.404-1.46.262-.416.62-.777 1.075-1.084.217-.16.445-.314.681-.461.237-.154.455-.317.653-.49.199-.173.362-.358.49-.557.128-.204.195-.438.201-.7 0-.122-.016-.25-.048-.384-.025-.141-.08-.269-.163-.384-.083-.122-.198-.221-.345-.298-.148-.083-.34-.125-.576-.125-.218 0-.4.045-.548.135-.14.083-.256.201-.345.355-.083.147-.147.323-.192.528-.039.205-.061.425-.067.662h-1.095c0-.371.048-.713.144-1.027.103-.32.253-.595.451-.826.199-.23.439-.409.72-.537.288-.135.621-.202.999-.202.409 0 .752.067 1.027.202.275.134.496.304.662.509.173.204.295.428.365.672.071.236.106.464.106.681 0 .269-.042.512-.125.73-.083.217-.195.419-.336.605-.141.179-.301.345-.48.499-.179.153-.365.297-.557.432-.192.134-.384.262-.576.384-.192.121-.371.243-.537.365-.16.121-.301.249-.423.384-.121.128-.205.265-.249.412h3.273zm4.163-5.021c-.025-.275-.124-.496-.297-.663-.167-.172-.394-.259-.682-.259-.198 0-.371.039-.518.115-.141.071-.263.167-.365.288-.096.122-.176.263-.24.423-.058.153-.106.317-.144.489-.038.173-.067.346-.086.519-.013.166-.026.323-.039.47l.019.019c.148-.268.349-.467.605-.595.263-.134.544-.201.845-.201.333 0 .63.057.893.172.262.116.483.276.662.48.186.199.327.436.423.711s.144.573.144.893c0 .326-.055.63-.164.912-.102.275-.252.518-.451.729-.198.205-.435.365-.71.48s-.579.173-.912.173c-.493 0-.899-.09-1.219-.269-.314-.185-.564-.435-.749-.749-.179-.32-.304-.691-.375-1.113-.07-.429-.105-.89-.105-1.383 0-.403.041-.809.125-1.219.089-.409.233-.781.432-1.113.198-.34.457-.615.777-.826.327-.211.727-.317 1.2-.317.269 0 .522.045.759.135.236.089.444.214.624.374.185.16.336.352.451.576s.179.474.192.749zm-1.056 4.243c.199 0 .372-.038.519-.115.147-.083.269-.189.365-.317.102-.128.176-.275.22-.442.052-.172.077-.348.077-.528 0-.179-.025-.352-.077-.518-.044-.166-.118-.31-.22-.432-.096-.128-.218-.23-.365-.307s-.32-.115-.519-.115c-.198 0-.374.038-.528.115-.147.07-.272.169-.374.297-.102.122-.179.266-.23.432-.052.167-.077.343-.077.528 0 .186.025.362.077.528.051.167.128.317.23.452.102.128.227.23.374.307.154.077.33.115.528.115z"/><path d="m310.996 468.954h-4.588c.006-.557.14-1.044.403-1.46.262-.416.621-.777 1.075-1.084.218-.16.445-.314.682-.461.236-.154.454-.317.652-.49.199-.173.362-.358.49-.557.128-.204.195-.438.202-.7 0-.122-.016-.25-.048-.384-.026-.141-.08-.269-.164-.384-.083-.122-.198-.221-.345-.298-.147-.083-.339-.125-.576-.125-.218 0-.4.045-.547.135-.141.083-.256.201-.346.355-.083.147-.147.323-.192.528-.038.205-.061.425-.067.662h-1.095c0-.371.048-.713.144-1.027.103-.32.253-.595.452-.826.198-.23.438-.409.72-.537.288-.135.62-.202.998-.202.41 0 .752.067 1.027.202.275.134.496.304.663.509.172.204.294.428.364.672.071.236.106.464.106.681 0 .269-.042.512-.125.73-.083.217-.195.419-.336.605-.141.179-.301.345-.48.499-.179.153-.365.297-.557.432-.192.134-.384.262-.576.384-.192.121-.371.243-.537.365-.16.121-.301.249-.423.384-.121.128-.204.265-.249.412h3.273zm.708-6.72h4.598v.912c-.352.396-.672.809-.96 1.238-.288.422-.541.874-.758 1.354-.212.473-.384.976-.519 1.507-.134.531-.224 1.101-.269 1.709h-1.2c.039-.532.128-1.056.269-1.575.147-.518.333-1.021.557-1.507.23-.486.496-.954.797-1.402s.624-.867.969-1.257h-3.484z"/><path d="m396.212 468.954h-4.589c.006-.557.141-1.044.403-1.46.263-.416.621-.777 1.075-1.084.218-.16.445-.314.682-.461.237-.154.454-.317.653-.49.198-.173.361-.358.489-.557.128-.204.196-.438.202-.7 0-.122-.016-.25-.048-.384-.026-.141-.08-.269-.163-.384-.083-.122-.199-.221-.346-.298-.147-.083-.339-.125-.576-.125-.217 0-.4.045-.547.135-.141.083-.256.201-.346.355-.083.147-.147.323-.192.528-.038.205-.06.425-.067.662h-1.094c0-.371.048-.713.144-1.027.102-.32.253-.595.451-.826.198-.23.438-.409.72-.537.288-.135.621-.202.998-.202.41 0 .752.067 1.028.202.275.134.496.304.662.509.173.204.294.428.365.672.07.236.105.464.105.681 0 .269-.041.512-.124.73-.084.217-.196.419-.336.605-.141.179-.301.345-.48.499-.18.153-.365.297-.557.432-.192.134-.384.262-.576.384-.192.121-.371.243-.538.365-.16.121-.301.249-.422.384-.122.128-.205.265-.25.412h3.274zm3.04-5.991c-.295 0-.544.09-.749.269-.205.173-.307.426-.307.758 0 .32.099.567.297.74.199.166.452.249.759.249s.56-.083.758-.249c.199-.173.298-.42.298-.74 0-.332-.103-.585-.307-.758-.205-.179-.455-.269-.749-.269zm0 6.125c-.339 0-.656-.048-.951-.144-.288-.096-.537-.234-.748-.413-.212-.185-.378-.409-.5-.672-.115-.262-.172-.557-.172-.883 0-.422.108-.778.326-1.066.224-.288.525-.48.902-.576v-.019c-.307-.115-.544-.291-.71-.528-.16-.243-.24-.528-.24-.854 0-.576.179-1.024.538-1.344.364-.327.883-.49 1.555-.49s1.187.163 1.545.49c.365.32.548.768.548 1.344 0 .326-.084.611-.25.854-.16.237-.394.413-.701.528v.019c.378.096.675.288.893.576.224.288.336.644.336 1.066 0 .326-.061.621-.182.883-.116.263-.279.487-.49.672-.211.179-.464.317-.758.413-.288.096-.602.144-.941.144zm0-.864c.365 0 .669-.109.912-.326.243-.218.365-.525.365-.922 0-.371-.122-.659-.365-.864-.243-.211-.547-.317-.912-.317s-.669.106-.912.317c-.243.205-.365.493-.365.864 0 .397.122.704.365.922.243.217.547.326.912.326z"/><path d="m480.389 468.954h-4.589c.006-.557.141-1.044.403-1.46.263-.416.621-.777 1.075-1.084.218-.16.445-.314.682-.461.237-.154.454-.317.653-.49.198-.173.361-.358.489-.557.128-.204.196-.438.202-.7 0-.122-.016-.25-.048-.384-.026-.141-.08-.269-.163-.384-.083-.122-.199-.221-.346-.298-.147-.083-.339-.125-.576-.125-.217 0-.4.045-.547.135-.141.083-.256.201-.346.355-.083.147-.147.323-.192.528-.038.205-.06.425-.067.662h-1.094c0-.371.048-.713.144-1.027.102-.32.253-.595.451-.826.198-.23.438-.409.72-.537.288-.135.621-.202.998-.202.41 0 .752.067 1.028.202.275.134.496.304.662.509.173.204.294.428.365.672.07.236.105.464.105.681 0 .269-.041.512-.124.73-.084.217-.196.419-.336.605-.141.179-.301.345-.48.499-.18.153-.365.297-.557.432-.192.134-.384.262-.576.384-.192.121-.371.243-.538.365-.16.121-.301.249-.422.384-.122.128-.205.265-.25.412h3.274zm1.917-1.7c.025.276.121.5.288.672.172.167.403.25.691.25.294 0 .528-.077.701-.23.179-.16.316-.356.412-.586.096-.237.16-.486.192-.749.039-.269.068-.515.087-.739l-.019-.019c-.148.262-.349.464-.605.605-.256.134-.538.201-.845.201-.32 0-.611-.054-.874-.163-.256-.109-.476-.259-.662-.451-.186-.199-.33-.435-.432-.711-.102-.281-.154-.595-.154-.94 0-.327.052-.628.154-.903.102-.281.253-.525.451-.729.199-.212.442-.375.73-.49s.614-.173.979-.173c.474 0 .864.093 1.171.279.307.179.547.428.72.748.179.314.304.685.375 1.114.07.429.105.886.105 1.373 0 .403-.045.809-.134 1.219-.083.41-.224.784-.423 1.123-.198.333-.46.605-.787.816-.32.211-.717.317-1.19.317-.269 0-.522-.045-.759-.134-.236-.09-.448-.215-.633-.375-.179-.16-.327-.352-.442-.576s-.179-.473-.192-.749zm1.046-4.243c-.198 0-.371.039-.518.115-.148.071-.269.17-.365.298s-.17.275-.221.442c-.045.166-.067.339-.067.518 0 .186.022.365.067.538.051.166.125.313.221.441s.217.234.365.317c.147.077.32.115.518.115.205 0 .384-.038.538-.115.153-.077.278-.179.374-.307.102-.135.179-.285.23-.451.052-.173.077-.352.077-.538 0-.179-.025-.352-.077-.518-.051-.167-.128-.311-.23-.432-.096-.128-.221-.231-.374-.308-.154-.076-.333-.115-.538-.115z"/><path d="m561.791 465.018c.179.006.358-.007.537-.039.18-.032.34-.086.48-.163.141-.083.253-.195.336-.336.09-.141.135-.314.135-.518 0-.288-.099-.519-.298-.692-.192-.172-.441-.259-.749-.259-.192 0-.358.039-.499.115-.141.077-.259.183-.355.317-.09.128-.157.275-.202.442-.044.16-.064.326-.057.499h-1.095c.013-.326.074-.627.183-.902.109-.282.256-.525.441-.73.192-.205.423-.365.692-.48.268-.115.572-.173.912-.173.262 0 .518.039.768.115.256.077.483.189.681.336.205.148.368.336.49.567.121.224.182.483.182.777 0 .34-.077.637-.23.893-.154.25-.394.432-.72.547v.02c.384.076.681.268.893.576.217.3.326.668.326 1.104 0 .32-.064.608-.192.864-.128.249-.301.464-.518.643-.218.173-.471.307-.759.403s-.592.144-.912.144c-.39 0-.733-.054-1.027-.163-.288-.115-.531-.275-.73-.48-.192-.205-.339-.451-.441-.739-.103-.288-.157-.608-.163-.96h1.094c-.013.409.086.752.298 1.027.217.269.54.403.969.403.365 0 .669-.102.912-.307.25-.211.375-.509.375-.893 0-.262-.052-.47-.154-.624s-.237-.269-.403-.346c-.167-.083-.355-.134-.567-.153-.204-.019-.416-.026-.633-.019zm5.814-2.919c.48 0 .871.112 1.171.336.308.218.544.499.711.845.173.339.288.714.345 1.123.064.41.096.807.096 1.191s-.032.78-.096 1.19c-.057.41-.172.787-.345 1.133-.167.339-.403.621-.711.845-.3.217-.691.326-1.171.326s-.873-.109-1.181-.326c-.3-.224-.537-.506-.71-.845-.166-.346-.282-.723-.346-1.133-.057-.41-.086-.806-.086-1.19s.029-.781.086-1.191c.064-.409.18-.784.346-1.123.173-.346.41-.627.71-.845.308-.224.701-.336 1.181-.336zm0 6.077c.237 0 .435-.067.595-.202.16-.14.285-.326.375-.556.096-.237.163-.512.201-.826.039-.314.058-.646.058-.998s-.019-.682-.058-.989c-.038-.314-.105-.589-.201-.826-.09-.237-.215-.422-.375-.557-.16-.14-.358-.211-.595-.211-.243 0-.445.071-.605.211-.153.135-.278.32-.374.557-.09.237-.154.512-.192.826-.038.307-.058.637-.058.989s.02.684.058.998.102.589.192.826c.096.23.221.416.374.556.16.135.362.202.605.202z"/><path d="m649.085 465.018c.18.006.359-.007.538-.039s.339-.086.48-.163c.141-.083.253-.195.336-.336.09-.141.134-.314.134-.518 0-.288-.099-.519-.297-.692-.192-.172-.442-.259-.749-.259-.192 0-.358.039-.499.115-.141.077-.259.183-.355.317-.09.128-.157.275-.202.442-.045.16-.064.326-.058.499h-1.094c.013-.326.074-.627.182-.902.109-.282.256-.525.442-.73.192-.205.422-.365.691-.48s.573-.173.912-.173c.263 0 .519.039.768.115.256.077.483.189.682.336.205.148.368.336.489.567.122.224.183.483.183.777 0 .34-.077.637-.231.893-.153.25-.393.432-.72.547v.02c.384.076.682.268.893.576.218.3.327.668.327 1.104 0 .32-.064.608-.192.864-.128.249-.301.464-.519.643-.217.173-.47.307-.758.403s-.592.144-.912.144c-.391 0-.733-.054-1.027-.163-.288-.115-.532-.275-.73-.48-.192-.205-.339-.451-.442-.739-.102-.288-.156-.608-.163-.96h1.095c-.013.409.086.752.297 1.027.218.269.541.403.97.403.365 0 .669-.102.912-.307.249-.211.374-.509.374-.893 0-.262-.051-.47-.153-.624-.103-.154-.237-.269-.404-.346-.166-.083-.355-.134-.566-.153-.205-.019-.416-.026-.634-.019zm3.655-1.671c.23 0 .454-.019.672-.057.217-.039.413-.103.585-.192.18-.09.33-.205.452-.346.128-.141.211-.314.249-.518h.893v6.72h-1.2v-4.743h-1.651z"/></g><rect fill="#d8d8d8" height="15.1723" rx="3.11765" width="78.2587" x="73.4668" y="158.826"/><rect fill="#d8d8d8" height="15.1723" rx="3.11765" width="78.2587" x="158.683" y="158.826"/><rect fill="#ff7c85" height="15.1723" rx="3.11765" width="78.2587" x="329.115" y="248.776"/><rect height="15.1723" rx="3.11765" stroke="#979797" stroke-dasharray="5.2 3.9" stroke-width="1.03922" width="76.9597" x="500.586" y="248.776"/><rect fill="#ffdd59" height="15.1722" rx="3.11765" width="78.2587" x="329.115" y="267.2"/><rect fill="#edacc8" height="15.1723" rx="3.11765" width="78.2588" x="414.33" y="328.973"/><rect fill="#ff7c85" height="15.1723" rx="3.11765" width="78.2587" x="158.683" y="249.86"/><rect fill="#ff7c85" height="15.1723" rx="3.11765" width="78.2587" x="158.683" y="328.973"/><rect fill="#ff7c85" height="15.1723" rx="3.11765" width="78.2587" x="243.899" y="405.918"/><rect fill="#ffa801" height="15.1723" rx="3.11765" width="78.2588" x="499.546" y="407.002"/><rect fill="#ffdd59" height="15.1722" rx="3.11765" width="78.2588" x="499.546" y="425.425"/><rect fill="#ffdd59" height="15.1725" rx="3.11765" width="78.2588" x="414.33" y="485.031"/><rect fill="#edacc8" height="15.1725" rx="3.11765" width="78.2587" x="329.115" y="485.031"/></g></g><g clip-rule="evenodd" fill-rule="evenodd"><path d="m723.784 43.3493c-11.479 0-20.784-9.704-20.784-21.6746 0-11.97062 9.305-21.6747 20.784-21.6747s20.785 9.70408 20.785 21.6747c0 11.9706-9.306 21.6746-20.785 21.6746z" fill="#ffa801"/><path d="m10.3922 117.915c-5.7394 0-10.39214087-4.852-10.39214087-10.837s4.65274087-10.8373 10.39214087-10.8373c5.7395 0 10.3922 4.8523 10.3922 10.8373s-4.6527 10.837-10.3922 10.837z" fill="#ffc048"/><path d="m197.971 660.865c-15.209 0-27.539-12.858-27.539-28.719s12.33-28.719 27.539-28.719c15.21 0 27.539 12.858 27.539 28.719s-12.329 28.719-27.539 28.719z" fill="#edacc8"/><path d="m723.394 216.622c-.195-.034-.358-.068-.554-.068-.13-.857-.716-1.611-1.563-1.92-.489-.171-.977-.137-1.401 0-.26-.446-.684-.823-1.205-.994-.684-.24-1.368-.103-1.921.274-.261-.411-.684-.754-1.173-.925-1.205-.412-2.508.308-2.866 1.542l-1.889 6.171v-.274c.065-1.509-1.042-2.811-2.475-2.88s-2.671 1.097-2.736 2.605l-.651 12.65c-1.173 1.166-4.397 4.663-5.016 10.182-.293 2.468.032 4.56.391 5.999 2.833-2.056 5.797-4.079 8.891-6.136 2.769-1.817 5.472-3.565 8.143-5.177 1.661-2.296 3.289-4.559 4.95-6.856.13-.171.228-.343.293-.548.359-.343.619-.823.717-1.372l1.921-9.05c.294-1.406-.521-2.88-1.856-3.223z" fill="#ff6876"/><path d="m709.063 231.723c-.131-.035-.164-.103-.164-.206l1.737-11.095c0-.103.098-.172.197-.137.098 0 .163.103.131.206l-1.737 11.094c0 .103-.066.138-.164.138z" fill="#000"/><path d="m713.812 226.181c-.13-.034-.162-.102-.162-.205l2.915-12.058c.033-.103.097-.137.194-.137.098.034.13.102.13.205l-2.915 12.058c-.032.069-.097.137-.162.137z" fill="#000"/><path d="m717.398 226.772c-.131-.035-.164-.103-.164-.206l2.523-11.968c.033-.102.098-.136.197-.136.098.034.131.102.131.205l-2.523 11.968c-.033.102-.098.137-.164.137z" fill="#000"/><path d="m707.92 234.948c-.033 0-.066 0-.066-.034-.065-.034-.097-.137-.065-.241 3.355-6.7 11.628-8.074 12.735-8.212l2.215-9.999c.032-.103.098-.138.195-.138.098.035.131.104.131.207l-2.248 10.102c0 .069-.065.137-.13.137-.033 0-2.313.241-4.983 1.375-2.476 1.031-5.798 3.024-7.589 6.666-.098.103-.13.137-.195.137z" fill="#000"/><path d="m614.646 277.876c-2.672-3.728-7.332-5.917-7.984-7.08l-6.094-10.911c-.717-1.3-2.346-1.745-3.584-.992-.684.41-1.108 1.094-1.238 1.847l-3.259-4.002c-.815-1.026-2.281-1.129-3.226-.274-.391.342-.652.821-.75 1.334-.651-.137-1.336.034-1.89.513-.423.377-.684.855-.749 1.403-.456.034-.913.205-1.304.547-.684.616-.945 1.539-.749 2.394-.163.069-.326.171-.489.274-.652.513-1.01 1.3-1.01 2.155 0 .547.163 1.128.489 1.607l5.083 7.559c.293.445.717.787 1.173.958.131.137.294.274.457.376 2.346 1.437 4.659 2.873 7.006 4.276.032 0 .032.034.065.034 3.128.479 6.256.992 9.417 1.505 3.454.581 6.876 1.163 10.265 1.744h.033c0-.923-.163-3.181-1.662-5.267z" fill="#ff6876"/><path d="m596.77 266.79c-.032 0-.097 0-.13-.034l-8.311-8.759c-.065-.069-.065-.172 0-.24.065-.069.163-.069.228 0l8.311 8.758c.065.069.065.172 0 .241-.032 0-.065.034-.098.034z" fill="#000"/><path d="m594.222 269.425c-.032 0-.097-.034-.13-.068l-8.182-9.543c-.065-.068-.065-.171 0-.24.065-.068.163-.068.228 0l8.182 9.542c.065.069.065.172 0 .241-.032.068-.065.068-.098.068z" fill="#000"/><path d="m606.166 275.739c-.065 0-.098-.035-.13-.069-2.702-4.242-14.78-4.036-14.91-4.036-.065 0-.098-.034-.13-.069l-7.162-8.894c-.065-.068-.065-.171.032-.239.065-.069.163-.069.228.034l7.097 8.826c.488 0 3.353-.035 6.413.41 4.59.65 7.488 1.916 8.692 3.763.065.068.033.171-.032.239-.033.035-.065.035-.098.035z" fill="#000"/><path d="m602.322 269.38c-.033 0-.098-.034-.13-.069l-6.579-8.467c-.065-.069-.032-.171.033-.239.065-.069.163-.035.228.034l6.578 8.467c.065.069.033.171-.032.24-.033.034-.065.034-.098.034z" fill="#000"/><g fill="#ffb600"><path d="m603.497 299.488c-1.727 1.715-3.878 2.675-6.094 2.915-.032-1.166-.065-2.469-.097-3.841 1.531-.035 2.932-.549 4.008-1.578 2.378-2.367 2.346-6.757.162-10.701.848-.823 1.695-1.681 2.542-2.504 3.91 4.459 3.682 11.524-.521 15.709z"/><path d="m606.897 342.331c-.779-.787-1.525-1.642-2.206-2.566 2.141-1.984 2.757-5.781 1.687-9.646 1.005-.616 2.011-1.197 3.017-1.779 2.53 4.721 1.362 10.638-2.498 13.991z"/><path d="m647.094 339.425c-.683 4.475-3.285 7.891-6.537 8.13s-6.276-2.801-7.512-7.14c-1.171.069-2.309.171-3.48.239.391 6.047 5.431 10.692 11.22 10.282 5.756-.409 10.178-5.704 9.788-11.785-1.171.103-2.341.171-3.479.274z"/><path d="m665.322 332.156c-3.717.72-7.335-.754-9.715-3.495 1.597-.309 3.162-.652 4.694-.994 1.37.994 2.935 1.405 4.467 1.131 2.543-.48 4.466-2.913 5.249-6.135 1.336-.651 2.64-1.302 3.977-1.954.228 5.45-3.423 10.419-8.672 11.447z"/><path d="m693.903 345.708c-.195 4.563-2.412 8.269-5.639 8.886-3.227.618-6.551-2.024-8.246-6.21-1.141.206-2.282.446-3.423.652 1.043 6.004 6.585 10.019 12.256 8.921 5.704-1.098 9.518-6.931 8.475-12.901-1.141.24-2.282.446-3.423.652z"/><path d="m665.318 384.765c-1.696.309-3.36.206-4.894-.309-.097-1.443-.228-2.887-.326-4.364 1.436 1.099 3.067 1.581 4.666 1.271 3.229-.618 5.448-4.363 5.644-8.899 1.142-.206 2.283-.447 3.425-.653 1.044 6.048-2.805 11.854-8.515 12.954z"/><path d="m723.28 372.741c-1.496 2.773-4.064 4.861-7.251 5.477-5.69 1.096-11.218-2.944-12.226-8.9 1.138-.206 2.276-.445 3.414-.651 1.724 4.177 5.008 6.847 8.227 6.196 3.219-.616 5.43-4.347 5.625-8.866.26-.068.52-.102.781-.137.455 2.26.942 4.553 1.43 6.881z"/><path d="m701.338 399.168c-1.727.342-3.455.65-5.247.958-2.934.514-5.802.925-8.572 1.302-2.38-1.61-4.14-4.178-4.661-7.294 1.14-.205 2.281-.445 3.422-.65 1.727 4.177 5.052 6.814 8.246 6.197 3.227-.616 5.443-4.348 5.639-8.868 1.14-.206 2.281-.445 3.422-.651.587 3.287-.359 6.575-2.249 9.006z"/><path d="m714.849 313.366c-.196 4.563-2.412 8.269-5.639 8.887-3.227.617-6.552-2.025-8.247-6.211-1.141.206-2.281.446-3.422.652 1.043 6.005 6.584 10.019 12.256 8.921 5.704-1.098 9.517-6.931 8.474-12.901-1.141.206-2.281.412-3.422.652z"/><path d="m726.521 298.496c-3.353.652-6.641-.48-8.985-2.745.033-.034.065-.068.098-.103.911-.857 1.823-1.715 2.669-2.641 1.661 1.681 3.647 2.504 5.632 2.127 3.223-.618 5.437-4.357 5.632-8.886 1.14-.205 2.279-.446 3.419-.651 1.041 5.969-2.8 11.801-8.465 12.899z"/><path d="m738.05 308.118c-.782 1.066-1.628 2.201-2.507 3.37-.782-1.238-1.335-2.614-1.596-4.161 1.14-.207 2.279-.447 3.419-.654.228.516.456.998.684 1.445z"/><path d="m712.601 263.575c-.488.103-.975.137-1.496.172-.13-.172-.26-.344-.39-.515-.976-1.271-1.952-2.644-3.026-4.052 1.334.927 2.831 1.305 4.294 1.03 3.221-.618 5.433-4.361 5.628-8.893 1.139-.206 2.277-.446 3.416-.652 1.073 5.974-2.765 11.811-8.426 12.91z"/></g><path d="m684.542 307.238c0 .206 0 .411-.032.617l-.586 7.99c-5.139 2.503-10.246 5.04-15.385 7.543l.13-1.851c-1.626.137-3.22-.034-4.717-.652-7.969-3.223-10.701-17.213-5.692-26.163.325-.549.683-1.132 1.074-1.68 1.658-.72 6.082-2.263 11.319-.789 2.667.754 4.651 2.058 5.92 3.086-.065.446-.716 4.458 1.789 6.995.358.309 6.18 4.664 6.18 4.904z" fill="#ff6876"/><path d="m687.824 294.08c0 .958-.097 1.883-.26 2.738-.13-.068-.26-.102-.391-.171-2.897-.993-6.022.685-6.966 3.731-.326 1.095-.358 2.19-.098 3.251-.879-.513-1.497-1.129-1.628-1.266-2.506-2.533-1.888-6.537-1.79-6.982-1.27-.993-3.256-2.294-5.925-3.081-5.241-1.472-9.669.069-11.329.787-.586-1.506-1.074-3.628-.521-5.818 1.53-5.785 9.799-8.899 16.277-7.53 6.316 1.3 12.501 7.188 12.631 14.341z" fill="#000"/><path d="m663.47 306.355c-.033 0-.066 0-.099-.034l-2.613-2.353c-.066-.068-.066-.17-.033-.239l4.346-6.478c.065-.068.163-.103.228-.034.066.068.098.17.033.238l-4.248 6.343 2.484 2.25c.065.068.065.171.032.239-.032.034-.065.068-.13.068z" fill="#000"/><path d="m660.876 298.451c.43 0 .778-.366.778-.818 0-.451-.348-.817-.778-.817-.429 0-.777.366-.777.817 0 .452.348.818.777.818z" fill="#000"/><path d="m669.341 298.451c.429 0 .777-.366.777-.818 0-.451-.348-.817-.777-.817-.43 0-.778.366-.778.817 0 .452.348.818.778.818z" fill="#000"/><path d="m662.841 293.118c-.092-.36-1.297-.339-2.692.047-1.396.386-2.452.992-2.36 1.353.092.36 1.297.339 2.692-.047 1.395-.387 2.452-.992 2.36-1.353z" fill="#000"/><path d="m669.355 295.721c1.327.559 2.512.73 2.647.381.136-.349-.83-1.085-2.157-1.644-1.327-.56-2.512-.731-2.647-.382s.83 1.085 2.157 1.645z" fill="#000"/><path d="m668.529 307.445c.033 0 .033 0 0 0 .131.034.164.102.164.205-.033.204-.425 2.115-2.225 2.968-1.276.58-2.781.375-3.926-.546-.065-.068-.098-.171-.032-.239.065-.068.163-.102.229-.034 1.047.853 2.388 1.058 3.566.512 1.668-.751 1.995-2.627 2.028-2.695.065-.103.131-.171.196-.171z" fill="#000"/><path d="m687.598 296.775c-.131-.069-.261-.104-.391-.172-2.899-.997-6.027.687-6.971 3.746-.326 1.099-.359 2.199-.098 3.264.456 1.856 1.792 3.437 3.648 4.09 2.9.996 6.027-.687 6.971-3.746.88-2.921-.521-6.048-3.159-7.182z" fill="#ff6876"/><path d="m683.605 304.992c-.065 0-.13-.034-.13-.103-.033-.069 0-.172.065-.241.454-.24.746-.722.778-1.238.033-.516-.227-1.032-.648-1.341-.033-.034-.065-.069-.065-.138 0-.068.032-.103.065-.137l3.503-2.442c.065-.069.162-.035.227.034s.032.172-.032.241l-3.309 2.339c.389.378.616.928.584 1.479-.033.653-.39 1.238-.941 1.513-.032.034-.065.034-.097.034z" fill="#000"/><path d="m668.727 321.708c-.065 0-.131-.068-.163-.137 0-.102.032-.17.13-.205.066 0 6.971-1.297 10.08-5.052.066-.069.164-.069.23-.035.065.069.065.171.032.239-3.174 3.858-9.982 5.122-10.309 5.19z" fill="#000"/><path d="m760.075 537.008-11.553 1.472c-2.408-1.575-5.336-1.609-7.452-.137-1.204.856-1.887 1.986-2.245 2.945-.618-1.815-1.237-3.596-1.855-5.41 6.769-2.637 13.57-5.274 20.339-7.945z" fill="#ff6876"/><path d="m633.453 537.082-1.566 8.249c-.033 0-.033 0-.065-.035l-10.243-3.849c-.587-1.615-1.794-2.922-3.36-3.609-2.055-.894-4.436-.55-6.165.928-.391.412-.913.928-1.533 1.581.391-1.34.783-2.715 1.174-4.056 7.242.241 14.516.516 21.758.791z" fill="#ff6876"/><path d="m722.21 393.932c-7.718 2.365-16.447 4.559-26.055 6.204-9.835 1.713-18.955 2.57-27.194 2.913-6.547 6.888-11.921 12.235-15.405 15.662-17.327 16.999-25.404 22.585-30.354 35.677-1.629 4.249-2.248 7.505-2.801 10.384-2.769 14.257-7.458 36.122-15.926 71.285 2.41.103 4.82.171 7.23.274 7.263.274 14.493.548 21.756.823 1.303.034 2.638.102 3.973.137 5.146-24.23 10.259-48.46 15.405-72.725 6.774-5.689 13.614-11.481 20.486-17.41 6.416-5.517 12.734-11.035 18.922-16.519 14.396 35.3 28.823 70.634 43.251 105.934.489-.206 1.01-.377 1.498-.583 6.775-2.639 13.582-5.277 20.356-7.951 1.465-.582 2.898-1.131 4.364-1.679-13.19-44.142-26.348-88.284-39.506-132.426z" fill="#2a005f"/><path d="m757.385 528.251c-.065 0-.13-.034-.163-.103-.358-.994-35.264-100.614-46.281-131.045-.032-.103 0-.171.098-.206.098-.034.163 0 .196.103 10.983 30.397 45.922 130.052 46.28 131.045.033.103 0 .172-.13.206 0 0 .033-.034 0 0z" fill="#ffb600"/><path d="m633.442 537.29c-.097 0-.162-.103-.162-.205l9.867-78.997c0-.068.033-.102.098-.137l48.916-27.439c.065-.035.163 0 .228.068.032.069 0 .171-.065.24l-48.851 27.405-9.868 78.894c0 .103-.065.171-.163.171z" fill="#ffb600"/><path d="m631.867 545.287c-.033 0-.033 0-.065-.035l-10.225-3.841c-.586-1.612-1.791-2.915-3.354-3.601-2.051-.891-4.428-.549-6.154.926-.391.412-.912.926-1.531 1.578-.097.103-.195.206-.325.308-.749.789-1.27 1.338-1.303 1.372-7.88 7.374-18.918 3.258-25.008 11.249-1.302 1.749-2.116 3.636-2.572 5.453-.163.618-.293 1.235-.391 1.852-.163 1.098-.228 2.127-.26 2.984l17.388-2.161c6.382-.789 12.764-1.612 19.179-2.4.847-1.509 1.726-2.984 2.573-4.459.423 1.338.879 2.675 1.302 3.978 4.591-.583 7.815-.96 8.401-1.063.196-1.097.424-2.229.619-3.326.065-.412.13-.686.13-.755.098-.549.326-1.783.879-4.527.717 0 1.401-.446 1.661-1.2.358-.961-.098-1.955-.944-2.332z" fill="#8400ed"/><path d="m762.752 544.844c-.065-.171-.651-1.849-1.53-4.35.684-.308 1.107-1.062 1.009-1.884-.097-.993-.976-1.712-1.921-1.575l-.26.034-11.558 1.473c-2.41-1.576-5.34-1.61-7.456-.137-1.205.856-1.888 1.986-2.247 2.946-.26.685-.39 1.233-.423 1.472-.098.686-.293 1.61-.716 2.604 0 0-.391 1.027-1.042 1.986-3.126 4.59-8.4 4.145-13.805 10.242-3.614 4.077-5.209 8.735-5.958 11.886 2.963-.205 7.358-.548 12.73-1.198 4.852-.617 7.293-.925 8.791-1.473 1.465-.548 3.419-1.713 13.544-11.921.879-.89 1.628-1.644 2.117-2.123-.131-1.371-.261-2.741-.391-4.111l3.191 1.405c1.66-1.645 3.646-3.426 5.925-5.276z" fill="#8400ed"/><path d="m581.489 558.185c-.065 0-.163-.068-.163-.136 0-.103.065-.171.131-.205 12.384-1.672 43.216-6.039 49.245-6.927.098 0 .163.069.196.137.032.068-.066.17-.131.205-6.062.887-36.893 5.254-49.278 6.926z" fill="#2a005f"/><path d="m718.044 565.771c-.065 0-.162-.068-.162-.137 0-.103.065-.171.13-.205 6.447-.788 14.946-2.022 18.887-3.461 6.35-2.329 24.032-21.377 24.194-21.583.066-.069.163-.069.228 0s.065.171 0 .24c-.032.034-4.526 4.865-9.736 9.935-7.001 6.783-11.918 10.757-14.621 11.751-3.908 1.439-12.439 2.672-18.92 3.46z" fill="#2a005f"/><path d="m615.262 542.761c-1.467-.752-6.225 2.258-7.301 2.942-.163-1.231-.912-6.226-2.509-7.389-.326-.24-.652-.308-1.011-.205-.325.068-.554.273-.651.581-.554 1.813 3.715 7.184 3.91 7.424h.033.033c.032.034.065.034.097.034h.098c.782 0 6.095-.068 7.496-1.642.261-.308.359-.65.326-1.026-.065-.308-.228-.548-.521-.719zm-11.136-3.982c.066-.206.196-.309.424-.378.066 0 .131-.034.196-.034.196 0 .359.069.522.206 1.337.996 2.087 5.255 2.315 6.835-1.369-1.752-3.848-5.392-3.457-6.629zm11.055 5.524c-1.113 1.256-5.238 1.493-6.777 1.527 1.67-1.052 4.813-2.816 6.286-2.816.197 0 .36.034.458.102.164.102.262.237.295.475 0 .237-.065.475-.262.712z" fill="#2a005f"/><path d="m608.224 549.374c-.032 0-.065 0-.098-.035l-4.251-4.172c-.065-.068-.065-.171 0-.239.066-.068.164-.068.229 0l4.251 4.172c.065.069.065.171 0 .239-.033.035-.065.035-.131.035z" fill="#2a005f"/><path d="m745.334 543.291c-.13-.34-.326-.544-.619-.612-1.598-.341-5.477 3.811-6.357 4.764-.456-1.123-2.38-5.751-4.205-6.466-.359-.136-.717-.136-1.011.034-.293.17-.456.409-.489.749-.13 1.872 5.346 5.955 5.575 6.126.032 0 .065.034.065.034h.032c.229-.068 5.933-1.566 6.944-3.574.13-.34.163-.68.065-1.055zm-12.423-1.47c0-.207.098-.344.327-.447.13-.069.261-.104.392-.104.13 0 .228.035.359.069 1.535.585 3.3 4.539 3.888 6.018-1.732-1.375-5.031-4.23-4.966-5.536zm12.055 2.403c-.785 1.541-4.711 2.842-6.183 3.287 1.472-1.575 4.417-4.451 5.692-4.451h.164c.196.034.327.171.392.376.099.24.066.514-.065.788z" fill="#2a005f"/><path d="m740.973 550.781c-.033 0-.033 0-.065 0l-5.555-1.867c-.098-.034-.131-.134-.098-.201.033-.1.131-.133.196-.1l5.555 1.868c.098.033.13.133.098.2 0 .067-.066.1-.131.1z" fill="#2a005f"/><path d="m584.42 248.828c-.504-1.615.373-3.337 1.976-3.88l121.246-41.083c1.66-.562 3.456.353 3.977 2.026l5.826 18.697c.503 1.615-.374 3.337-1.976 3.88l-121.247 41.083c-1.659.562-3.456-.353-3.977-2.026z" fill="#ffdd59"/></g></svg>