<svg enable-background="new 0 0 1026.4 975.6" viewBox="0 0 1026.4 975.6" xmlns="http://www.w3.org/2000/svg"><path d="m1026.4 185.7c-50.9 140.4-208.4 214-348.7 163-140.4-50.9-214-208.4-163-348.7 170.6 61.9 341.2 123.8 511.7 185.7z" fill="#d5e0ea"/><path d="m839 480.9c0 33.9-4 66.8-11.6 98.3-5.5 22.9-13 45.1-22.1 66.4-.5 1.1-.9 2.2-1.4 3.2-4.1 9.4-8.6 18.6-13.4 27.6-43.3 81.7-113 147.3-197.7 185.6-1.2.6-2.5 1.1-3.8 1.7-51.4 22.6-108.3 35.2-168 35.2-114 0-217.3-45.6-292.8-119.7-6.2-6.1-12.2-12.3-18-18.7-.7-.8-1.4-1.5-2-2.3-40.2-45.4-70.7-99.5-88.2-159.2-11.1-37.5-17-77.1-17-118.1 0-26.3 2.4-52 7.1-76.9 11.7-62.8 37.4-120.7 73.8-170.2 27.3-37.3 60.8-69.8 98.7-96.2 54.5-37.9 118.5-63.2 187.8-71.5 4.6-.6 9.2-1 13.8-1.4 12.1-1.1 24.4-1.6 36.9-1.6 77.5 0 150.1 21.1 212.3 57.8 48.6 28.7 90.9 67 124.2 112.2 21.5 29.1 39.2 61 52.6 95.2 1.9 4.8 3.7 9.8 5.5 14.7 15.1 43 23.3 89.5 23.3 137.9z" fill="#fff"/><g fill="#f714ff"><path d="m816.5 343.3c-1.7-5-3.6-9.9-5.5-14.8-13.3-34-31.1-66.1-52.9-95.6-33.8-45.8-75.8-83.8-124.8-112.7-64.4-38-138.2-58.1-213.3-58.1-12.4 0-24.8.5-37 1.6-5 .4-9.5.9-13.8 1.4-67.5 8.1-132.7 33-188.7 71.9-38.2 26.6-71.6 59.1-99.2 96.7-37.1 50.5-62.8 109.7-74.2 171-4.7 25.4-7.1 51.4-7.1 77.4 0 40.4 5.7 80.3 17 118.6 17.2 58.7 47.9 114 88.7 160 .6.7 1.2 1.3 1.8 2 6 6.6 12.1 13.1 18.3 19.1 29.5 29 63 53.4 99.6 72.5.3.2.6.2.9.2.7 0 1.4-.4 1.8-1.1.5-1 .1-2.2-.8-2.7-36.2-19-69.4-43.1-98.6-71.9-6.2-6-12.3-12.4-18.2-19-.1-.2-.3-.3-.4-.5-.5-.5-.9-1-1.3-1.5-40.4-45.5-70.8-100.3-87.9-158.4-11.2-37.8-16.9-77.3-16.9-117.3 0-25.7 2.4-51.5 7-76.6 11.3-60.8 36.7-119.4 73.4-169.4 27.3-37.2 60.4-69.4 98.3-95.8 55.4-38.5 120-63.2 186.9-71.2 4.3-.5 8.8-1 13.7-1.4 12.1-1.1 24.4-1.6 36.7-1.6 74.5 0 147.5 19.9 211.3 57.6 48.5 28.7 90.1 66.2 123.6 111.6 21.6 29.2 39.2 61.1 52.4 94.7 1.9 4.8 3.7 9.7 5.4 14.6 15.5 44.1 23.3 90.4 23.3 137.5 0 33.1-3.9 66-11.6 97.8-5.4 22.5-12.8 44.8-22 66.1-.3.8-.7 1.7-1.1 2.5-4.1 9.5-8.7 19-13.6 28.2-20 37.7-45.6 72-76.2 102s-65.4 55.1-103.4 74.4c-1 .5-1.4 1.7-.9 2.7.4.7 1.1 1.1 1.8 1.1.3 0 .6-.1.9-.2 38.4-19.5 73.6-44.8 104.4-75.1s56.7-65 76.9-103c5.4-10.2 10.4-20.6 14.8-31 9.2-21.5 16.7-44 22.2-66.8 7.8-32.2 11.7-65.4 11.7-98.8.1-47.5-7.8-94.2-23.4-138.7z"/><path d="m789.5 679.7c-.7 0-1.4-.4-1.8-1-8-14.5-12.9-32.4-18-51.5-5-18.6-10.2-37.8-18.7-54.6-9.5-18.8-22-31.9-38.2-40.1-10.5-5.3-19.5-8.6-31.5-8.6-.1 0-.2 0-.2 0-36.4 0-79.9 21.8-121.4 45.3-10.2 5.8-20.5 11.8-30.4 17.6-12.4 7.3-25.3 14.8-37.6 21.6-24.6 13.7-53.2 28.3-77.8 32.5-25.3 4.3-43.1-2.9-54.5-22-22.3-37.4-27.3-73.2-14.2-103.5 18.2-42.4 69.6-73.2 152.6-91.8 11.6-2.6 23.9-4.9 36.5-7 9.7-1.6 19.9-3.1 30.3-4.4 63.1-7.9 111.8-31.7 144.6-70.9 24-28.7 39.3-64.9 45.4-107.6.2-1.1 1.2-1.9 2.3-1.7s1.9 1.2 1.7 2.3c-6.2 43.5-21.7 80.4-46.3 109.6-33.5 39.9-83 64.3-147.2 72.3-10.3 1.3-20.5 2.7-30.1 4.3-12.6 2.1-24.8 4.4-36.3 7-42.4 9.5-76.8 22.4-102.2 38.3-23.2 14.5-39.2 31.8-47.6 51.2-12.5 29.1-7.7 63.6 14 99.9 21.8 36.5 66.5 21.7 126.9-11.9 12.2-6.8 24.5-14 37.5-21.6 10-5.8 20.3-11.9 30.5-17.6 42-23.8 86-45.9 123.4-45.9h.2c12.8 0 22.5 3.6 33.3 9 17 8.5 30 22.2 40 41.8 8.7 17.2 13.9 36.6 19 55.4s9.9 36.5 17.7 50.6c.5 1 .2 2.2-.8 2.7-.4.3-.8.3-1.1.3z"/><path d="m18.9 602.2c-.3 0-.7-.1-1-.3-1-.6-1.3-1.8-.7-2.7 23.5-41 54.2-78 70.4-96.4 8.8-10 14.5-15.9 14.5-15.9.8-.8 2-.8 2.8 0s.8 2 0 2.8c-.1.1-5.7 5.9-14.4 15.8-16.1 18.3-46.5 55.1-69.9 95.7-.3.6-1 1-1.7 1z"/><path d="m127.2 782.4c-.7 0-1.3-.3-1.7-1-.6-.9-.3-2.2.7-2.7 12.9-7.7 21.6-21 26.1-39.6 13.3-54.9-13.4-151.1-65-233.9-18.5-29.7-38.9-55.7-60.6-77.2-7-7-13.5-14.2-19.2-21.6-.7-.9-.5-2.1.3-2.8.9-.7 2.1-.5 2.8.3 5.6 7.2 12 14.3 18.9 21.2 21.9 21.7 42.5 48 61.2 78 24.9 40 45.1 85.2 57 127.2 12.3 43.8 15.3 81.7 8.5 109.7-4.8 19.7-14.2 33.8-28 42.1-.3.2-.6.3-1 .3z"/><path d="m826.4 582.4c-.4 0-.8-.1-1.2-.4-22.9-17.2-40.9-35.7-53.7-54.9-22.6-34.1-29-70.8-19-108.9 10.3-39.5 35.8-70.9 55.3-90.3.8-.8 2-.8 2.8 0s.8 2 0 2.8c-19.2 19.1-44.1 49.9-54.2 88.5-9.7 37-3.5 72.5 18.5 105.7 12.5 18.9 30.2 37 52.7 53.9.9.7 1.1 1.9.4 2.8-.4.6-1 .8-1.6.8z"/><path d="m671.8 628.3c-22 0-47.2-7.3-76.3-21.8-15.5-7.7-28.4-20.5-38.6-38-20-34.6-28.4-86.5-24.3-150 6.5-101.1 44-215.1 98-297.7.6-.9 1.8-1.2 2.8-.6.9.6 1.2 1.8.6 2.8-53.6 82-90.9 195.3-97.4 295.7-4 62.7 4.2 113.8 23.8 147.8 9.7 16.8 22.1 29.1 36.9 36.4 37.4 18.6 67.7 25 92.6 19.5 24.3-5.3 44.3-22.3 61.1-51.7 7.3-12.7 13.9-27.6 20.3-45.4 15-42 27.7-98 41.4-181.7.2-1.1 1.2-1.8 2.3-1.7 1.1.2 1.8 1.2 1.7 2.3-13.7 83.9-26.5 140.1-41.6 182.4-6.4 18-13.2 33.1-20.5 46-21.4 37.4-48 55.7-82.8 55.7z"/><path d="m486.7 610.1c-4.6 0-10.5-2.5-15.6-5-135.9-66.3-204.1-99.6-228.2-131.7-29.5-39.4-44.9-119.4-52.7-179.7-2.5-19.5-4.5-38.5-6-56.2-43.3-2.9-78.8-2-101.2-.6-1.1.1-2.1-.8-2.1-1.9-.1-1.1.8-2.1 1.9-2.1 22.5-1.4 57.9-2.3 101.1.6-3.8-46.2-4.4-82.7-4.3-94.8 0-1.1.9-2 2-2s2 .9 2 2c-.2 12.2.5 48.8 4.3 95.1.5 0 1.1.1 1.6.1 26.3 1.9 51.6 5.2 75.1 9.7 75.1 14.3 133.9 41 174.8 79.4 29.8 27.9 50.2 62.3 60.7 102.1 13.1 49.8 11.1 109.4-6.2 177v.4c0 1.3 0 3.8-1.9 5.7-1.3 1.4-3.2 1.9-5.3 1.9zm-298.4-372.3c1.5 17.4 3.4 36.1 5.9 55.4 7.7 59.8 23 139.1 52 177.8 23.5 31.4 91.4 64.5 226.7 130.6 11.8 5.8 15.4 4.9 16.4 3.8.7-.7.7-1.9.7-2.9 0-.5 0-1 .1-1.4 17.1-66.9 19.1-125.8 6.2-175-10.3-39.1-30.3-72.8-59.5-100.2-40.4-37.9-98.6-64.3-172.9-78.4-23.4-4.5-48.5-7.7-74.7-9.6-.3 0-.6 0-.9-.1z"/><path d="m395.8 364.9c-37.5 0-76.6-12.8-103.2-43.2-30.3-34.7-30.4-74.4-30.4-76.1.4-56.3 31.5-97.6 60.6-132 8.5-10.1 18.5-19.8 29.6-28.9-4.1-4.2-9.5-7.7-16-10.5-1-.4-1.5-1.6-1-2.6.4-1 1.6-1.5 2.6-1 7.1 3.1 13 7 17.6 11.7 11.9-9.5 20.4-14.6 20.5-14.6 2-1.2 4.1-2.4 6.1-3.5 1-.5 2.2-.2 2.7.8s.2 2.2-.8 2.7c-2 1.1-4 2.3-6 3.5-.1.1-8.5 5.1-19.9 14.2 1.1 1.4 2.2 2.9 3.1 4.4 7.7 12.7 5.3 24.7 2.9 36.2-2.1 10.5-4.1 20.5 1 31.2 12.5 26.4 55.5 28.3 97 30.1 40.9 1.8 79.5 3.5 90.7 27.6 14.1 30.4-25 77.2-37.8 92.6l-.7.8c-7.5 9-27.4 32.9-61.4 46.3-17 6.5-36.9 10.3-57.2 10.3zm-40.7-277.2c-11 9-20.8 18.6-29.2 28.5-28.6 33.8-59.2 74.5-59.6 129.4-.1 13.7 5.9 46.6 29.4 73.5 39.8 45.5 108.6 50.3 156 31.6 33-13 52.5-36.4 59.8-45.2l.7-.8c33.3-40 45.8-69.7 37.2-88.3-10.1-21.9-47.6-23.6-87.2-25.3-42.7-1.9-86.9-3.8-100.5-32.4-5.6-11.9-3.4-22.9-1.3-33.7 2.3-11.3 4.4-22-2.4-33.4-1-1.4-1.9-2.7-2.9-3.9z"/></g><path d="m174 325.2c-4.3-1.7-9.4-.1-12 3.9l-2.5 6-17.4 41.2-12.1 28.6-20.9 49.4 18.1 7.7 7.2-16.9 16.5-39.1c-3-1-5.4-3.2-6.8-6-1.1-2.3-1.5-4.9-.8-7.6 1.2-5.3 6-8.9 11.2-8.9.9 0 1.7.1 2.6.3l2.8.7 7.2-17 10.6-25.1 2.4-5.7c1.1-4.8-1.5-9.7-6.1-11.5z" fill="#1f0d60"/><path d="m127.2 462c-4.5 5-8.9 9.9-13.4 14.8-3.4 3.8-6.9 7.6-10.3 11.4.8-5 1.6-9.9 2.4-14.8 1-6.4 2.1-12.7 3.1-19.1 2.8-1 5.5-2 8.3-2.9.2 1.7.4 3.4.6 5.1 2.1-3 4.1-6 6.2-9.1 1.1 4.9 2.1 9.8 3.1 14.6z" fill="#d5e0ea"/><path d="m180.2 336.8-2.4 5.7-18.2-7.3 2.5-6c2.6-4 7.7-5.6 12-3.9 4.5 1.7 7.1 6.6 6.1 11.5z" fill="#f714ff"/><path d="m177.8 343.5c-.1 0-.2 0-.4-.1l-18.2-7.3c-.5-.2-.8-.8-.6-1.3s.8-.8 1.3-.6l18.2 7.3c.5.2.8.8.6 1.3-.2.4-.5.7-.9.7z" fill="#d5e0ea"/><path d="m176.1 347.6c-.1 0-.2 0-.4-.1l-18.2-7.3c-.5-.2-.8-.8-.6-1.3s.8-.8 1.3-.6l18.2 7.3c.5.2.8.8.6 1.3-.1.5-.5.7-.9.7z" fill="#d5e0ea"/><path d="m113.8 476.9c-3.4 3.8-6.9 7.6-10.3 11.4.8-5 1.6-9.9 2.4-14.8z" fill="#1f0d60"/><path d="m570.6 429.3c2.2-11.3 4.4-22.6 6.5-33.9-7.5 1.9-17.6 3.1-26.3-1.9-24.8-14.2-8-62.3-28-81-12.8-12-42.3-13.5-110.7 20.8-6.7 20.5-8.4 39.8-9.3 50.2-1 11.7-7.8 91.2 36 116 8 4.5 16.8 6.8 25.8 7.2-.3 7.1-.9 23.2-1.7 40.2-.9 21.8-1.9 45.2-2.3 53.6 35.1-23 70.1-46 105.2-68.9 0-.3 0-.7.1-1 .5-8.9 1-17.7 1.5-26.6.8-13.4 1.5-26.8 2.3-40.2.4-6.9.8-13.8 1.2-20.7 0-2.1-.1-4.1-.3-6.1 0-.2 0-.3 0-.5.1-.7.2-1.3.3-1.9 0-1.8-.1-3.6-.3-5.3z" fill="#ff0036"/><path d="m458.9 427.5h-.1l-26-3c-.3 0-.6-.2-.7-.5-.2-.3-.2-.6-.1-.8l18-56c.2-.5.7-.8 1.3-.6.5.2.8.7.6 1.3l-17.6 54.8 24.8 2.9c.5.1.9.6.9 1.1-.2.5-.6.8-1.1.8z"/><ellipse cx="498.2" cy="343.7" rx="5.2" ry="22.7" transform="matrix(.04491035 -.999 .999 .04491035 132.4812 825.901)"/><ellipse cx="420.2" cy="356.7" rx="5.2" ry="22.7" transform="matrix(.2349 -.972 .972 .2349 -25.2267 681.2795)"/><circle cx="485.1" cy="391.1" fill="#00b7ea" r="31.3"/><path d="m575.3 389.3c-.9.5-1.7 1-2.5 1.6l-63.4-11.8c-.5-.1-.9-.6-.8-1.2.1-.5.6-.9 1.2-.8z"/><path d="m489.8 402.9c-.3-.7-.7-1.3-1.1-1.9-.8-1.3-1.7-2.3-2.6-3.2-2.1-2-4.4-3.3-6.7-4.6-3.2-1.8-6.3-3.5-8.6-7.1-3.3-5.1-3.8-12.2-1.4-21.1 0-.1 0-.2 0-.2 0-.6-.5-1-1-1s-.9.3-1 .8c-2.5 9.5-1.9 17.1 1.7 22.7 2.6 4 6 6 9.4 7.8 3.3 1.8 6.3 3.5 8.6 7.2 3.1 4.9 3.6 11.5 1.6 19.7v.2c0 .5.5 1 1 1s.9-.3 1-.8c1.8-7.9 1.5-14.3-.9-19.5z" fill="#fff"/><circle cx="407" cy="387.9" fill="#00b7ea" r="31.3"/><path d="m412.8 401c-.3-.7-.7-1.3-1.1-2-.8-1.2-1.7-2.2-2.6-3-2.6-2.3-5.8-3.6-8.9-4.8-4.1-1.6-7.9-3.2-10.5-7.1-3.2-4.9-3.3-12-.2-21.1.2-.5-.1-1.1-.6-1.3s-1.1.1-1.3.6c-3.2 9.7-3.1 17.4.5 22.8 2.9 4.5 7.2 6.2 11.5 7.9 4.1 1.6 7.9 3.2 10.6 7.1 2.9 4.3 3.5 10.5 1.5 18.3-.1.5.2 1.1.7 1.2h.2c.5 0 .9-.3 1-.8 1.7-7.2 1.5-13.2-.8-17.8z" fill="#fff"/><path d="m462.9 380.7c-.2 0-.5-.1-.7-.3-2.5-2.3-7.6-6.3-14.2-6.2-5.7.1-11.6 3.3-13.5 4.4-.5.3-.9.5-1.1.7-.5.3-1.1.1-1.4-.3-.3-.5-.1-1.1.3-1.4.3-.2.7-.4 1.2-.7 2-1.1 8.2-4.6 14.4-4.7 7.2-.1 12.9 4.2 15.6 6.7.4.4.4 1 0 1.4-.1.3-.3.4-.6.4z"/><path d="m498 397.4c0 3.3-2.7 6-6 6-.8 0-1.6-.2-2.2-.4-.3-.7-.7-1.3-1.1-1.9-.8-1.3-1.7-2.3-2.6-3.2 0-.1 0-.2 0-.3 0-3.3 2.7-6 6-6 3.2-.2 5.9 2.5 5.9 5.8z"/><path d="m421 395.4c0 3.3-2.7 6-6 6-.8 0-1.5-.1-2.2-.4-.3-.7-.7-1.3-1.1-2-.8-1.2-1.7-2.2-2.6-3 0-.2 0-.4 0-.6 0-3.3 2.7-6 6-6 3.2 0 5.9 2.7 5.9 6z"/><path d="m444 470c-.5 0-1-.4-1-1s.4-1 1-1c7.8-.1 15.6-2 22.5-5.4 5.1-2.5 9.7-5.8 13.7-9.8.4-.4 1-.4 1.4 0s.4 1 0 1.4c-4.2 4.2-9 7.6-14.3 10.2-7.1 3.6-15.2 5.5-23.3 5.6z"/><path d="m662.9 228c.5-36.7-28.8-66.9-65.5-67.4s-66.9 28.8-67.4 65.5c-.1 10.2 2 19.9 6 28.5-18-4.3-37.1-5.3-55-2.1-10.1 1.8-36 6.9-54 28-4.5 5.3-14 16.7-16 34-.9 7.9 0 14.6 1 19 .1 0 .2-.1.3-.2 68.4-34.3 97.9-32.8 110.7-20.8 20 18.7 3.2 66.8 28 81 8.6 5 18.8 3.8 26.3 1.9-2.2 11.3-7.1 61.5-7.4 68.4-.8 13.4-1.5 26.8-2.3 40.2 9.6-6.7 21.2-16.5 31.8-30.3 25.8-33.6 28.8-68.8 29.7-81.1 3.4-47.7-16-83.1-24-96-.7-1.1-1.5-2.2-2.4-3.3 33.3-3.1 59.7-31 60.2-65.3z"/><path d="m611.9 309.5c-14-5.1-30.9-12.7-49-24-18.6-11.6-33.2-23.9-44.1-34.5 3.7-6.4 7.3-12.7 11-19.1 9.7 10.4 25.1 24.6 47.1 36.5 18.8 10.2 36.2 15.3 49 18-4.7 7.8-9.4 15.5-14 23.1z" fill="#f714ff"/><path d="m464.7 507.7c-.5 0-.9-.3-1-.8s.3-1.1.8-1.1c6.4-1.1 12.9-2.5 19.2-4.2 8.6-2.3 17.2-5.3 25.4-8.7.5-.2 1.1 0 1.3.5s0 1.1-.5 1.3c-8.3 3.5-16.9 6.5-25.6 8.8-6.3 1.7-12.9 3.1-19.4 4.2-.1 0-.1 0-.2 0z"/><path d="m600.9 385.5c-3.3-.7-6.5-1-9.7-.8-5.7.3-11.1 1.9-15.9 4.6-.9.5-1.7 1-2.5 1.6-.7.5-1.4 1-2.1 1.5-6.8 5.1-11.8 12.7-13.7 21.6-4.3 20 8.5 39.7 28.5 44s39.7-8.5 44-28.5c4.2-20-8.5-39.7-28.6-44z" fill="#ff0036"/><path d="m577.5 435.6c-.4 0-.7-.2-.9-.5-.2-.5-.1-1.1.4-1.3 3.3-1.7 5.5-5.1 5.7-8.8.2-3.8-1.7-7.5-5-9.5-.3-.2-.5-.5-.5-.9s.2-.7.5-.9l33.8-19.3c.5-.3 1.1-.1 1.4.4s.1 1.1-.4 1.4l-32.4 18.6c3.1 2.5 4.9 6.4 4.6 10.4-.2 4.4-2.9 8.5-6.8 10.5-.1-.2-.2-.1-.4-.1z"/><path d="m577.5 442.8-31.3 18.5 36.3 18.4z" fill="#00b7ea"/><path d="m801.3 648.6c-4.1 9.5-8.7 19-13.6 28.2-20 37.7-45.6 72-76.2 102s-65.4 55.1-103.4 74.4c-1 .5-1.4 1.7-.9 2.7-5.1 2.6-10.2 5-15.4 7.4-1.2.6-2.5 1.1-3.8 1.7-51.4 22.6-108.3 35.2-168 35.2-69.2 0-134.4-16.8-191.9-46.6.5-1 .1-2.2-.8-2.7-36.2-19-69.4-43.1-98.6-71.9-6.2-6-12.3-12.4-18.2-19-.1-.2-.3-.3-.4-.5 37.3-101.7 74.6-203.3 111.9-305 24.2 7.9 48.5 15.8 72.7 23.8-.8 25.9-1.9 52-3.1 78.5-2.2 45.6-5 90.3-8.3 134.1 4.5-6.9 70.2-104.5 179.8-144.1-.9 21.8-1.9 45.2-2.3 53.6 35.1-23 70.1-46 105.2-68.9 0-.3 0-.7.1-1 116.7 4.4 200.9 83.1 235.2 118.1z" fill="#00b7ea"/><path d="m460.7 601.5c-.2 0-.3 0-.5-.1-.3-.2-.5-.5-.5-.9l1.5-34.5c0-.6.5-1 1-1 .6 0 1 .5 1 1l-1.4 32.6 94.2-61.7c.5-.3 1.1-.2 1.4.3s.2 1.1-.3 1.4l-95.8 62.8c-.2 0-.4.1-.6.1z" fill="#d5e0ea"/><path d="m531.9 701.8v246.4c0 4.5-3.4 8.3-7.9 8.8-56.5 6.1-113.1 12.3-169.6 18.4-1.7.2-3.4-.1-4.9-.9-41-20.4-82-40.9-123-61.3-3.3-1.6-5.2-5.1-4.9-8.7 1.4-15.7 2.8-31.4 4.2-47.1 5.5-61.6 11.1-123.3 16.6-184.9.6-6.8 8.4-10.4 13.9-6.5.1 0 .1.1.2.1 27.2 19.2 88.9 64.2 104.5 75.6 2.3 1.7 5.3 2.1 8 1.3l145.2-47.8 5.9-1.9c5.9-1.8 11.8 2.5 11.8 8.5z" fill="#1f0d60"/><path d="m328.5 965.2h-.1c-.5-.1-.9-.5-.9-1.1l24-228.7c.1-.5.5-.9 1.1-.9.5.1.9.5.9 1.1l-24 228.7c-.1.5-.5.9-1 .9z" fill="#d5e0ea"/><path d="m397.8 971.8c-.5 0-1-.4-1-1l-8.1-234.4c0-.6.4-1 1-1 .5-.1 1 .4 1 1l8.1 234.4c0 .5-.4 1-1 1z" fill="#d5e0ea"/><path d="m301.5 791c-3.6 11.4-7.2 22.9-10.9 34.3-2.7-9.7-5.4-19.5-8.1-29.2-7.4 5.2-14.9 10.4-22.3 15.6 3.1-9.2 6.2-18.4 9.3-27.7-8.5-1.8-17-3.7-25.5-5.5 8.6-3.7 17.2-7.4 25.9-11.1-4-9.3-8.1-18.5-12.1-27.8 8.3 5.9 16.6 11.8 24.8 17.7 3.9-9.2 7.8-18.5 11.7-27.7 1.7 9.9 3.4 19.9 5.1 29.8 8.3-1.5 16.5-2.9 24.8-4.4-5.4 7.3-10.9 14.6-16.3 22 6.9 5.9 13.8 11.8 20.7 17.7-9.1-1.2-18.1-2.4-27.1-3.7z" fill="#f714ff"/><path d="m317.3 866.5c2 21-13.7 39.9-34.7 41.8-21 2-39.9-13.7-41.8-34.7 25.5-2.3 51-4.7 76.5-7.1z" fill="#00b7ea"/><path d="m424.2 860.6c20.4 3.1 40.7 6.2 61.1 9.3 4.4 20.4 8.8 40.7 13.2 61.1-19.7-3.9-39.5-7.8-59.2-11.7-5-19.5-10-39.1-15.1-58.7z" fill="#d5e0ea"/><path d="m494 773.8c-5.7 12-17.4 19.4-29 17.1s-19.6-13.6-20.2-26.9c-4.2-.8-8.4-1.7-12.7-2.5-4.1 20.4 9.4 40.6 29.8 44.7s40.6-9.4 44.7-29.8c-4.1-.9-8.3-1.7-12.6-2.6z" fill="#003fff"/><path d="m514.4 695.3-149.5 49.2s-76.9-56.1-108.2-78.3l21.4-8.7 87.1 70 126.8-49.4z" fill="#d5e0ea"/><path d="m283.1 431.3c-12.8-27-35.6-47.8-40.2-51.9-10.8-9.7-21-16.5-28.5-21-3.1-3.2-8.1-4.5-12.7-2.9l-34.6 12.1-7.2 17-2.8-.7c-.9-.2-1.8-.3-2.6-.3-5.2 0-10 3.6-11.2 8.9-.1.4-.1.7-.2 1.1v.2c0 .3-.1.5-.1.8v.3.7.4c0 .2 0 .4.1.6 0 .2.1.3.1.5s.1.3.1.4c0 .2.1.4.1.6 0 .1.1.2.1.3.1.2.1.5.2.7v.1c1.2 3.1 3.8 5.7 7.1 6.8l-16.6 39.1c3.4.2 6.8-1.1 9.2-3.8l17.5-19.6-8.3 17.6c-2.7 5.7-.2 12.6 5.5 15.3 5.7 2.7 12.6.2 15.3-5.5l6.9-14.8-3 9.2c-2 6 1.3 12.5 7.3 14.5 6 2 12.5-1.3 14.5-7.3l6.2-18.6c5.5 12 13.3 19.6 16.5 22.5 24.2 7.9 48.5 15.8 72.7 23.8-.6-14.4-3.5-30.7-11.4-47.1z" fill="#ff0036"/><path d="m243.9 420.3c-.2 0-.5-.1-.7-.3-10.9-10.1-23.3-18.2-36.8-24.1-15.6-6.8-32.2-10.6-49.3-11.1-.6 0-1-.5-1-1 0-.6.5-1 1-1 17.4.5 34.2 4.3 50.1 11.2 13.7 6 26.3 14.2 37.4 24.5.4.4.4 1 .1 1.4-.3.3-.5.4-.8.4z"/><path d="m180.5 435.3c-.1 0-.3 0-.4-.1-.5-.2-.7-.8-.5-1.3l7-15c.2-.5.8-.7 1.3-.5s.7.8.5 1.3l-7 15c-.2.4-.5.6-.9.6z"/><path d="m116.1 385.4 26-9.1-12.1 28.6-6.1 2.1c-6.2 2.1-13-.9-15.1-6.9-2.2-5.9 1.1-12.5 7.3-14.7z" fill="#ff0036"/><path d="m617.3 844c-.1.6-.8 4.5-2.1 7.7-5.7 14-53.3 30.5-73.6 35.1-12.9 2.9-30.2 6.3-50.9 8.8-6.2 1.3-12.3-2.7-13.6-8.9-.2-.8-.2-1.6-.2-2.4 0-.9.1-1.7.3-2.5-5.6.4-10.9-3.4-12-9.1-1.3-6.2 2.7-12.3 8.9-13.6l10.5-2.2-16.8 2.5c-.6.1-1.1.1-1.7.1-5.6 0-10.5-4.1-11.4-9.8-1-6.3 3.4-12.2 9.6-13.1l67.8-10.2v-11.9h-62.5c-6.3 0-11.5-5.2-11.5-11.5s5.2-11.5 11.5-11.5h62.5c0-9 0-17.9 0-26.9 12.2.5 29 3.1 46 12.9 21.7 12.5 34.4 32.1 38 45 2.9 11.5 1.2 21.5 1.2 21.5z" fill="#ff0036"/><path d="m473.9 860.1c-.5 0-.9-.3-1-.8s.3-1.1.8-1.2l61.6-11.7c.6-.1 1.1.3 1.2.8s-.3 1.1-.8 1.2l-61.6 11.7c-.1 0-.2 0-.2 0z"/><path d="m477 882.8c-.5 0-.9-.3-1-.8s.2-1.1.7-1.2l63.8-15.3c.5-.1 1.1.2 1.2.7s-.2 1.1-.7 1.2l-63.8 15.3c0 .1-.1.1-.2.1z"/><path d="m564.7 792.5h-32.9c-.6 0-1-.4-1-1s.4-1 1-1h32.9c.6 0 1 .4 1 1s-.4 1-1 1z"/></svg>